<svg xmlns="http://www.w3.org/2000/svg" xmlns:xlink="http://www.w3.org/1999/xlink" width="905" height="634" xmlns:v="https://vecta.io/nano"><style><![CDATA[.B{fill:#231f20}.C{fill:#fff}.D{fill:#46d281}]]></style><defs><clipPath id="A"><path d="M0,0H488.2V298.359H0Z" fill="none"/></clipPath><path id="B" d="M688.941 64.361c-.75 0-1.396.53-1.542 1.266s.248 1.473.941 1.76 1.493.045 1.91-.579.335-1.455-.195-1.986c-.295-.295-.696-.461-1.113-.461z"/><path id="C" d="M688.941 54.644c-.637 0-1.211.383-1.454.972s-.109 1.265.341 1.715 1.127.585 1.715.341.972-.818.972-1.454c-.001-.869-.705-1.573-1.574-1.574z"/><path id="D" d="M747.248 25.495c-.637 0-1.212.383-1.456.972s-.109 1.266.341 1.717 1.128.585 1.717.341.972-.819.972-1.456c0-.869-.705-1.574-1.574-1.574z"/><path id="E" d="M718.094 25.495c-.637 0-1.212.383-1.456.972s-.109 1.266.341 1.717 1.128.585 1.717.341.972-.819.972-1.456c-.001-.869-.705-1.573-1.574-1.574z"/><path id="F" d="M722.952 40.069c-.751 0-1.397.53-1.544 1.267s.248 1.474.941 1.761 1.494.045 1.911-.58.335-1.456-.196-1.987c-.295-.295-.696-.461-1.113-.461z"/><path id="G" d="M467.233 413.747a1.57 1.57 0 0 0-.601 3.024 1.57 1.57 0 0 0 1.714-2.563c-.295-.295-.696-.461-1.113-.461z"/><path id="H" d="M506.104 404.033c-.869.001-1.573.706-1.573 1.575s.705 1.574 1.574 1.573 1.574-.705 1.574-1.574-.706-1.574-1.575-1.574z"/><path id="I" d="M506.104 413.747c-.868.001-1.572.706-1.571 1.574s.705 1.572 1.573 1.572 1.572-.704 1.573-1.572-.706-1.573-1.575-1.574z"/><path id="J" d="M506.104 394.314c-.869.001-1.573.706-1.573 1.575s.705 1.574 1.574 1.573 1.574-.705 1.574-1.574-.706-1.573-1.575-1.574z"/><path id="K" d="M486.667 404.033c-.637 0-1.211.383-1.454.972s-.109 1.265.341 1.715 1.127.585 1.715.341.972-.818.972-1.454c0-.869-.705-1.574-1.574-1.574z"/><path id="L" d="M491.524 389.456c-.868.001-1.572.706-1.571 1.574s.705 1.572 1.573 1.572 1.572-.704 1.573-1.572-.706-1.574-1.575-1.574z"/><path id="M" d="M438.078 404.033c-.869.001-1.573.706-1.573 1.575s.705 1.574 1.574 1.573 1.574-.705 1.574-1.574c0-.418-.166-.818-.461-1.113s-.696-.461-1.114-.461z"/><path id="N" d="M229.137 418.604a1.57 1.57 0 0 0-.971 2.8h1.943a1.57 1.57 0 0 0-.971-2.8z"/><path id="O" d="M268.014 418.604a1.57 1.57 0 0 0-.971 2.8h1.943a1.57 1.57 0 0 0-.97-2.8z"/><path id="P" d="M277.731 418.604a1.57 1.57 0 0 0-.97 2.8h1.943a1.57 1.57 0 0 0-.971-2.8z"/><path id="Q" d="M303.79 265.52h5.04a2.14 2.14 0 0 1 2.134 2.135v14.157c0 1.235-.491 2.419-1.364 3.292s-2.058 1.363-3.293 1.363h0c-2.57-.001-4.653-2.084-4.654-4.654v-14.159a2.14 2.14 0 0 1 2.137-2.134z"/><path id="R" d="M701.25 621.487c-.418 0-.818.165-1.113.461s-.461.696-.461 1.113v.047h3.139v-.047c0-.418-.166-.818-.461-1.113s-.696-.461-1.114-.461z"/><path id="S" d="M704.541 598.723v.047c0 .869.705 1.574 1.574 1.574s1.574-.705 1.574-1.574v-.047z"/><path id="T" d="M681.814 621.487c-.418 0-.818.165-1.113.461s-.461.696-.461 1.113c-.002.016-.002.031 0 .047h3.138v-.047c0-.418-.165-.818-.461-1.113s-.696-.461-1.113-.461z"/><path id="U" d="M691.533 621.487c-.418 0-.818.165-1.114.461s-.461.696-.461 1.113v.047h3.139v-.047c0-.418-.165-.818-.461-1.113s-.696-.461-1.113-.461z"/><path id="V" d="M743.412 598.723v.047c0 .869.705 1.574 1.574 1.574s1.574-.705 1.574-1.574c.002-.016.002-.031 0-.047z"/><path id="W" d="M720.686 621.487a1.57 1.57 0 0 0-1.574 1.574c-.002.016-.002.031 0 .047h3.139v-.047a1.57 1.57 0 0 0-1.565-1.574z"/><path id="X" d="M642.942 621.487a1.57 1.57 0 0 0-1.574 1.574c-.002.016-.002.031 0 .047h3.141v-.047c0-.418-.166-.818-.461-1.113s-.696-.461-1.114-.461z"/><path id="Y" d="M837.303 611.77c-.869 0-1.574.705-1.574 1.574s.705 1.574 1.574 1.574 1.574-.705 1.574-1.574c0-.417-.166-.818-.461-1.113s-.696-.461-1.113-.461z"/><path id="Z" d="M668.454 612.041c-37.362-.006-67.647-30.297-67.643-67.66s30.294-67.648 67.656-67.646 67.65 30.291 67.65 67.653c-.045 37.349-30.314 67.614-67.663 67.653zm0-122.354c-30.209.006-54.694 24.498-54.69 54.707s24.495 54.695 54.703 54.693 54.697-24.491 54.697-54.7c-.036-30.199-24.511-54.67-54.71-54.701z"/></defs><g class="B"><use xlink:href="#B"/><use xlink:href="#C"/><path d="M708.376 28.643c.869 0 1.574-.705 1.574-1.574s-.705-1.574-1.574-1.574c-.229.001-.455.053-.662.151q-.478.733-.9 1.5a1.57 1.57 0 0 0 1.562 1.497zm-19.435 48.579c.751 0 1.397-.53 1.544-1.267s-.248-1.474-.941-1.761-1.494-.045-1.911.58-.335 1.456.196 1.987c.295.295.696.461 1.113.461zm9.718-48.581c.432-.001.844-.18 1.14-.495l-.847-.04-1.418.059a1.57 1.57 0 0 0 1.125.478z"/><use xlink:href="#B" y="-29.149"/><use xlink:href="#B" y="-19.433"/><circle cx="693.799" cy="70.792" r="1.574"/><use xlink:href="#B" x="4.858" y="-24.292"/><circle cx="722.952" cy="80.508" r="1.574"/><circle cx="693.799" cy="61.076" r="1.574"/><circle cx="693.799" cy="51.359" r="1.574"/><circle cx="693.799" cy="31.926" r="1.574"/><circle cx="727.812" cy="36.786" r="1.574"/><circle cx="727.812" cy="56.218" r="1.574"/><circle cx="727.812" cy="27.069" r="1.574"/><circle cx="727.812" cy="46.501" r="1.574"/><circle cx="722.952" cy="70.792" r="1.574"/><circle cx="708.376" cy="56.218" r="1.574"/><circle cx="727.812" cy="17.353" r="1.574"/><circle cx="708.376" cy="46.501" r="1.574"/><use xlink:href="#B" x="19.435"/><circle cx="727.812" cy="75.651" r="1.574"/><circle cx="708.376" cy="36.786" r="1.574"/><use xlink:href="#B" x="38.871"/><circle cx="708.376" cy="75.651" r="1.574"/><circle cx="693.799" cy="80.508" r="1.574"/><circle cx="674.363" cy="61.076" r="1.574"/><circle cx="674.363" cy="70.792" r="1.574"/><use xlink:href="#B" x="-9.719"/><circle cx="669.504" cy="56.218" r="1.574"/><circle cx="674.363" cy="51.359" r="1.574"/><use xlink:href="#B" x="-19.437"/><circle cx="679.222" cy="56.218" r="1.574"/><circle cx="684.081" cy="80.508" r="1.574"/><path d="M679.223 48.076a1.57 1.57 0 0 0 .965-2.809l-.07 1.125h-.226a17.5 17.5 0 0 0-2.239.149 1.57 1.57 0 0 0 1.571 1.535z"/><circle cx="684.081" cy="61.076" r="1.574"/><circle cx="684.081" cy="70.792" r="1.574"/><use xlink:href="#B" x="-4.86" y="-24.292"/><circle cx="684.081" cy="51.359" r="1.574"/><use xlink:href="#B" x="9.718"/><circle cx="698.658" cy="75.651" r="1.574"/><circle cx="703.517" cy="51.359" r="1.574"/><circle cx="703.517" cy="31.926" r="1.574"/><circle cx="698.658" cy="36.786" r="1.574"/><circle cx="669.504" cy="75.651" r="1.574"/><circle cx="698.658" cy="46.501" r="1.574"/><circle cx="698.658" cy="56.218" r="1.574"/><path d="M675.941 80.508c0-.869-.705-1.574-1.574-1.574s-1.574.705-1.574 1.574a1.56 1.56 0 0 0 .394 1.034q.692.289 1.411.518a1.57 1.57 0 0 0 1.342-1.55z"/><circle cx="679.222" cy="75.651" r="1.574"/><circle cx="703.517" cy="70.792" r="1.574"/><circle cx="703.517" cy="80.508" r="1.574"/><circle cx="703.517" cy="61.076" r="1.574"/><use xlink:href="#B" x="14.576" y="-24.292"/><circle cx="737.53" cy="27.069" r="1.574"/><circle cx="737.53" cy="36.786" r="1.574"/><circle cx="722.952" cy="61.076" r="1.574"/><circle cx="737.53" cy="46.501" r="1.574"/><path d="M743.962 80.508c.004-.74-.508-1.382-1.229-1.544s-1.459.2-1.771.871-.116 1.468.471 1.916a17.45 17.45 0 0 0 2.524-1.2v-.046z"/><circle cx="737.53" cy="75.651" r="1.574"/><use xlink:href="#B" x="53.447" y="-24.292"/><circle cx="742.389" cy="51.359" r="1.574"/><path d="M748.822 75.651c0-.75-.53-1.396-1.266-1.542s-1.473.248-1.76.941-.045 1.493.579 1.91 1.455.335 1.986-.195c.295-.295.461-.696.461-1.113z"/><circle cx="737.53" cy="56.218" r="1.574"/><circle cx="742.389" cy="70.792" r="1.574"/><circle cx="742.389" cy="31.926" r="1.574"/><circle cx="742.389" cy="22.211" r="1.574"/><circle cx="742.389" cy="61.076" r="1.574"/><use xlink:href="#D"/><use xlink:href="#B" x="58.307" y="-29.149"/><use xlink:href="#B" x="58.307" y="-19.433"/><path d="M752.106 69.217a1.57 1.57 0 0 0-.7 2.979 17.4 17.4 0 0 0 .962-2.952 1.62 1.62 0 0 0-.262-.027zm-1.573-37.289c0 .869.705 1.574 1.574 1.574.031 0 .06-.007.091-.01-.226-.993-.515-1.971-.864-2.928a1.57 1.57 0 0 0-.8 1.363zm-84.315 38.863a1.57 1.57 0 0 0-1.412-1.566 1.57 1.57 0 0 0-1.7 1.248l.558 1.538c.469.384 1.118.463 1.665.202s.894-.815.889-1.422z"/><circle cx="664.644" cy="61.076" r="1.574"/><path d="M752.107 59.504c-.572-.014-1.106.282-1.396.775s-.29 1.104 0 1.597.825.789 1.396.775c.25-.002.495-.063.716-.18v-2.79c-.221-.117-.466-.178-.716-.18zm0-9.717c-.562 0-1.082.3-1.363.787s-.281 1.087 0 1.574.801.787 1.363.787c.25-.002.495-.064.716-.181v-2.788c-.221-.117-.466-.179-.716-.181z"/><use xlink:href="#B" x="58.307" y="-9.717"/><path d="M752.107 40.069c-.572-.014-1.106.282-1.396.775s-.29 1.104 0 1.597.825.789 1.396.775c.25-.002.495-.063.716-.18v-2.787c-.221-.117-.466-.178-.716-.18z"/><use xlink:href="#B" x="58.307"/><use xlink:href="#B" x="48.589"/><use xlink:href="#B" x="29.153" y="-29.149"/><use xlink:href="#B" x="29.153" y="-19.433"/><use xlink:href="#B" x="29.153" y="9.716"/><use xlink:href="#B" x="29.153" y="-9.717"/><circle cx="713.235" cy="70.792" r="1.574"/><use xlink:href="#E"/><circle cx="713.235" cy="61.076" r="1.574"/><circle cx="722.952" cy="31.926" r="1.574"/><use xlink:href="#F"/><circle cx="722.952" cy="51.359" r="1.574"/><path d="M718.094 18.926a1.57 1.57 0 0 0 1.063-2.728c-.899.366-1.776.785-2.626 1.255a1.57 1.57 0 0 0 1.563 1.473z"/><circle cx="722.952" cy="22.211" r="1.574"/><use xlink:href="#B" x="29.153"/><circle cx="713.235" cy="31.926" r="1.574"/><circle cx="732.67" cy="61.076" r="1.574"/><circle cx="732.67" cy="70.792" r="1.574"/><circle cx="732.67" cy="51.359" r="1.574"/><circle cx="732.67" cy="80.508" r="1.574"/><circle cx="732.67" cy="22.211" r="1.574"/><circle cx="732.67" cy="31.926" r="1.574"/><circle cx="713.235" cy="51.359" r="1.574"/><path d="M732.67 43.216c.75 0 1.396-.53 1.542-1.266s-.248-1.473-.941-1.76-1.493-.045-1.91.579-.335 1.455.195 1.986c.295.295.696.461 1.113.461z"/><use xlink:href="#B" x="24.294" y="-24.292"/><path d="M735.959 17.353c-.01.62.346 1.189.908 1.451s1.226.17 1.695-.236.656-1.05.477-1.644q-1.087-.533-2.229-.962c-.522.267-.851.804-.852 1.391z"/><circle cx="713.235" cy="22.211" r="1.574"/><circle cx="713.235" cy="80.508" r="1.574"/><path d="M197.065 455.677a2.43 2.43 0 0 1-2.443-2.414 2.43 2.43 0 0 1 2.414-2.443l87.734-.977a2.43 2.43 0 0 1 2.455 2.402 2.43 2.43 0 0 1-2.402 2.455l-87.733.977zm-194.635 0a2.43 2.43 0 0 1-2.442-2.415 2.43 2.43 0 0 1 2.415-2.442l87.734-.977a2.43 2.43 0 0 1 2.178 3.632 2.43 2.43 0 0 1-2.125 1.225l-87.734.977zm397.895 0a2.43 2.43 0 0 1-2.442-2.415 2.43 2.43 0 0 1 2.415-2.442l87.734-.977a2.43 2.43 0 0 1 2.178 3.632 2.43 2.43 0 0 1-2.125 1.225l-87.734.977zm203.26 0a2.43 2.43 0 0 1-2.442-2.415 2.43 2.43 0 0 1 2.415-2.442l87.734-.977a2.43 2.43 0 0 1 2.178 3.631 2.43 2.43 0 0 1-2.124 1.226l-87.734.977zm301.413-5.77l-89.447.912a2.43 2.43 0 0 0-2.416 2.441 2.43 2.43 0 0 0 2.441 2.416h.025l89.4-.911z"/></g><path d="M904.998 4.421L593.677 128.783l.86 152.972h310.462z" class="C"/><g transform="translate(416.796)" clip-path="url(#A)"><path d="M194.11 156.647a.81.81 0 0 1-.769-.554.89.89 0 0 0-.9-.446 1.59 1.59 0 0 0-1.068.4.81.81 0 0 1-1.144.05.81.81 0 0 1-.049-1.144c.599-.6 1.413-.935 2.261-.929 1.061-.062 2.042.564 2.434 1.552.068.204.053.427-.044.619a.81.81 0 0 1-.469.406.82.82 0 0 1-.252.046z" class="C"/><path d="M224.528 281.631a3.23 3.23 0 0 1-1.057-.178 3.24 3.24 0 0 1-2-4.118l4.874-14.114a3.24 3.24 0 0 1 4.119-2 3.24 3.24 0 0 1 2 4.116l-4.874 14.114a3.24 3.24 0 0 1-3.062 2.18zm36.129 0a3.24 3.24 0 0 1-3.06-2.181l-4.874-14.115a3.24 3.24 0 0 1 2-4.117 3.24 3.24 0 0 1 4.118 2l4.874 14.114a3.24 3.24 0 0 1-2 4.118c-.34.119-.697.18-1.057.181zm35.535-88.38a3.24 3.24 0 0 1-3.238-3.238v-41.331a3.24 3.24 0 0 1 3.238-3.238 3.24 3.24 0 0 1 3.238 3.238v41.331a3.24 3.24 0 0 1-3.238 3.238zm-41.33 23.523h-38.996a3.24 3.24 0 0 1-3.238-3.238 3.24 3.24 0 0 1 3.238-3.238h36.419v-33.34h-46.961a3.24 3.24 0 0 1-3.238-3.238 3.24 3.24 0 0 1 3.238-3.238h49.536a3.91 3.91 0 0 1 3.9 3.9v38.488a3.9 3.9 0 0 1-3.9 3.9zm0-39.816z" fill="#c6c6c6"/><g class="B"><path d="M178.562 280.822a2.43 2.43 0 0 1-2.429-2.421V148.626c.33-13.859.032-21.793.03-21.872a2.43 2.43 0 0 1 2.333-2.521c1.34-.05 2.467.994 2.521 2.333 0 .081.307 8.147-.027 22.179-.332 13.922 0 128.489 0 129.645a2.43 2.43 0 0 1-2.422 2.435z"/><path d="M488.202-.001L156.46 129.071a1.92 1.92 0 0 0-1 1.309c-.12.563.019 1.15.377 1.6l1.581 6.4c.366.458.921.724 1.507.723.303 0 .601-.072.871-.209L488.203 11.81zm-92.251 151.113h-203.24c-2.816 0-5.02-2.833-5.02-6.447s2.206-6.448 5.02-6.448h203.24c2.816 0 5.02 2.833 5.02 6.448s-2.203 6.447-5.02 6.447zm-202.907-4.768zm-.081-.086h202.739a2.8 2.8 0 0 0 .416-1.591 2.8 2.8 0 0 0-.416-1.592H192.963a2.79 2.79 0 0 0-.415 1.591c-.023.56.122 1.115.418 1.591z"/><path d="M196.375 281.828a2.43 2.43 0 0 1-2.429-2.428V148.684a2.43 2.43 0 0 1 2.429-2.428 2.43 2.43 0 0 1 2.429 2.428v130.717a2.43 2.43 0 0 1-2.429 2.427zm8.4-10.884a2.43 2.43 0 0 1-2.429-2.429V157.757a2.43 2.43 0 0 1 2.429-2.428 2.43 2.43 0 0 1 2.429 2.428v110.758a2.43 2.43 0 0 1-2.428 2.429z"/><path d="M418.388 298.626h0l-407.7-.162a2.43 2.43 0 0 1-.942-4.667l39.491-16.633c.299-.125.619-.19.943-.19h332.387a2.43 2.43 0 0 1 2.428 2.429 2.43 2.43 0 0 1-2.429 2.428h-331.9l-27.971 11.781 395.241.158-26.263-10.459a2.43 2.43 0 0 1-1.358-3.157 2.43 2.43 0 0 1 3.158-1.357l26.66 10.615a4.71 4.71 0 0 1 2.948 5.318c-.399 2.274-2.386 3.924-4.694 3.9zm-27.42-24.862h-.014a2.43 2.43 0 0 1-2.415-2.441l.672-122.653a2.43 2.43 0 0 1 2.429-2.415h.014a2.43 2.43 0 0 1 2.416 2.442l-.672 122.653a2.43 2.43 0 0 1-2.43 2.415zm59.5-79.665h-25.421a3.5 3.5 0 0 1-3.5-3.5V72.725a3.5 3.5 0 0 1 3.5-3.5h25.421a3.5 3.5 0 0 1 3.5 3.5v117.876a3.5 3.5 0 0 1-3.497 3.499zm-24.061-4.857h22.7V74.082h-22.7z"/><path d="M451.54 191.671v-23.807h-6.32a3.32 3.32 0 0 0-3.319 3.319v10.156a3.32 3.32 0 0 1-3.323 3.319h-8.143c-1.833.002-3.318 1.487-3.32 3.32v3.682zM381.893 216.9h-2.39a3.32 3.32 0 0 0-3.319 3.319v8.478c-.003 1.832-1.487 3.316-3.319 3.319h-9.822a3.32 3.32 0 0 0-3.319 3.319v10.156a3.32 3.32 0 0 1-3.32 3.319h-8.142a3.32 3.32 0 0 0-3.319 3.319v7.8a3.32 3.32 0 0 1-3.32 3.319h-10.184a3.32 3.32 0 0 0-3.319 3.319v9.486a3.32 3.32 0 0 0 3.319 3.319h51.719z"/></g><path d="M257.574 267.517h-30.769a9.56 9.56 0 0 1-9.548-9.545v-18.97a9.56 9.56 0 0 1 9.548-9.547 9.52 9.52 0 0 1 8.816 5.879l3.434 8.25c.457 1.087 1.494 1.818 2.671 1.885l16.371.891c5.062.279 9.024 4.463 9.027 9.532v2.076a9.56 9.56 0 0 1-9.551 9.55zm-30.769-31.586c-1.695.002-3.069 1.376-3.072 3.071v18.97c.003 1.695 1.376 3.068 3.071 3.07h30.769c1.695-.002 3.069-1.375 3.072-3.07v-2.076a3.07 3.07 0 0 0-2.9-3.066l-16.372-.89a9.6 9.6 0 0 1-8.295-5.863l-3.434-8.25c-.474-1.15-1.595-1.899-2.839-1.897z" class="D"/><path d="M313.209 206.863H289.65a3.24 3.24 0 0 1-3.238-3.238 3.24 3.24 0 0 1 3.238-3.238h16.574a10.56 10.56 0 0 0-10.033-7.3c-5.819.006-10.534 4.721-10.541 10.54a3.24 3.24 0 0 1-3.238 3.238 3.24 3.24 0 0 1-3.238-3.238c.01-9.394 7.624-17.007 17.018-17.016a17.04 17.04 0 0 1 17.019 17.016z" fill="#ff8941"/></g><path d="M904.998 332.408l-724.746 1.167a2.43 2.43 0 0 0-2.429 2.429 2.43 2.43 0 0 0 2.429 2.428h0l724.738-1.165z" class="B"/><g class="C"><path d="M621.388 387.609h-41.081a46.51 46.51 0 0 0 8.211-15.352 2.4 2.4 0 0 0 1.229.345h.021l13.044-.111c7.864-.065 15.38-3.252 20.894-8.86s8.574-13.176 8.506-21.04l-.087-10.3c-.263-28.951-18.738-54.596-46.116-64.013l-59.722-44.62c-51.21-38.344-110.031-58.064-170.135-57l-54.421.863c-24.972.439-47.792 18.393-58.135 45.74l-16.481 54.958c-.18.599-.12 1.244.166 1.8a10.14 10.14 0 0 0-2.577 3.6c-.275.667-.479 1.361-.608 2.071l-.61 3.1a3.18 3.18 0 0 0-.2 1.013l-6.3 31.965c-.302.567-.429 1.211-.364 1.85l-6.017 30.543a26.36 26.36 0 0 0 25.938 31.439h.237l3.319-.138a46.54 46.54 0 0 0 7.205 12.147h-22.085c-9.229-.001-16.712 7.481-16.713 16.71h0c.002 9.229 7.484 16.71 16.713 16.71h396.174a16.71 16.71 0 0 0 16.713-16.71h0a16.71 16.71 0 0 0-16.719-16.711zm-302.032 0a46.58 46.58 0 0 0 7.529-12.966l173.033-1.214a46.5 46.5 0 0 0 7.833 14.178z"/><path d="M621.388 427.507H225.214c-8.32.055-16.031-4.353-20.207-11.549s-4.176-16.078 0-23.274 11.887-11.603 20.207-11.549h3.45c-17.052-4.168-27.808-21.013-24.414-38.236l5.88-29.849c.025-1.106.24-2.2.636-3.233l6.086-30.9c.061-.598.177-1.189.348-1.765l.536-2.723c.444-2.401 1.422-4.672 2.863-6.644a8.95 8.95 0 0 1 .3-1.429l16.551-55.163.081-.214c11.287-29.841 36.44-49.437 64.079-49.924l54.432-.863c61.511-1.071 121.735 19.065 174.121 58.289l58.918 44.02c29.472 10.597 49.23 38.423 49.52 69.741l.087 10.3c.082 9.581-3.646 18.801-10.364 25.633s-15.874 10.715-25.454 10.796l-9.949.081q-.446 1.052-.934 2.083h29.4c12.806 0 23.187 10.381 23.187 23.187s-10.381 23.187-23.187 23.187zm-396.174-33.42c-5.652 0-10.234 4.582-10.234 10.235s4.582 10.234 10.234 10.234h396.174c5.652 0 10.235-4.582 10.235-10.234s-4.582-10.234-10.235-10.234H566.75l8.514-10.544c3.17-3.918 5.568-8.402 7.068-13.214l2.438-7.808 6.082 3.6 11.9-.1c12.798-.108 23.085-10.569 22.977-23.367l-.087-10.3c-.243-26.203-16.962-49.412-41.739-57.941l-.964-.329-60.533-45.231c-50.066-37.487-107.531-56.776-166.144-55.71l-54.433.863c-22.232.391-42.665 16.612-52.1 41.346l-15.948 53.171 1.524 3-3.71 3.319c-.405.361-.724.808-.935 1.307a4.33 4.33 0 0 0-.214.787l-7.286 36.971h0l-6.2 31.5c-1.152 5.847.38 11.902 4.173 16.499s9.448 7.249 15.407 7.227h.081l7.772-.324 1.709 4.238c1.523 3.781 3.614 7.308 6.2 10.458l8.7 10.586zm296.093 0H305.65l8.7-10.586a40.03 40.03 0 0 0 6.477-11.163l1.579-4.137 182.127-1.278 1.509 4.414a39.88 39.88 0 0 0 6.741 12.2z"/></g><g class="B"><use xlink:href="#B" x="-221.708" y="329.953"/><use xlink:href="#C" x="-216.851" y="354.246"/><use xlink:href="#G"/><use xlink:href="#F" x="-255.719" y="363.964"/><use xlink:href="#C" x="-216.851" y="334.812"/><use xlink:href="#F" x="-246.004" y="363.964"/><use xlink:href="#B" x="-216.851" y="334.816"/><use xlink:href="#G" x="9.715"/><use xlink:href="#B" x="-211.993" y="329.953"/><use xlink:href="#B" x="-236.285" y="334.816"/><use xlink:href="#G" x="-9.719"/><use xlink:href="#B" x="-231.427" y="329.953"/><use xlink:href="#C" x="-207.131" y="334.812"/><use xlink:href="#B" x="-226.566" y="334.816"/><use xlink:href="#B" x="-236.285" y="325.095"/><use xlink:href="#F" x="-265.438" y="363.964"/><use xlink:href="#B" x="-177.977" y="344.529"/><use xlink:href="#B" x="-226.565" y="325.095"/><use xlink:href="#B" x="-207.131" y="334.816"/><use xlink:href="#B" x="-187.696" y="334.816"/><use xlink:href="#B" x="-187.696" y="344.529"/><use xlink:href="#C" x="-207.131" y="354.246"/><use xlink:href="#F" x="-226.57" y="363.964"/><use xlink:href="#B" x="-187.696" y="325.095"/><use xlink:href="#B" x="-177.977" y="325.095"/><use xlink:href="#H"/><use xlink:href="#I"/><use xlink:href="#J"/><use xlink:href="#B" x="-192.554" y="349.386"/><use xlink:href="#B" x="-192.559" y="329.953"/><use xlink:href="#K"/><use xlink:href="#B" x="-202.273" y="329.953"/><use xlink:href="#F" x="-275.156" y="363.964"/><use xlink:href="#B" x="-202.273" y="349.386"/><use xlink:href="#F" x="-231.425" y="359.108"/><use xlink:href="#L"/><use xlink:href="#H" x="-14.58" y="4.857"/><use xlink:href="#B" x="-226.566" y="344.529"/><use xlink:href="#B" x="-284.875" y="334.816"/><use xlink:href="#B" x="-280.017" y="329.953"/><use xlink:href="#G" x="-58.309"/><use xlink:href="#C" x="-284.875" y="354.246"/><use xlink:href="#B" x="-270.299" y="329.953"/><use xlink:href="#C" x="-275.157" y="354.246"/><use xlink:href="#G" x="-53.449" y="-14.57"/><use xlink:href="#F" x="-314.028" y="363.964"/><use xlink:href="#C" x="-284.875" y="334.812"/><use xlink:href="#C" x="-275.157" y="334.812"/><use xlink:href="#B" x="-299.453" y="349.386"/><use xlink:href="#C" x="-294.593" y="334.812"/><use xlink:href="#F" x="-323.746" y="363.964"/><use xlink:href="#B" x="-299.453" y="329.953"/><use xlink:href="#F" x="-333.464" y="363.964"/><use xlink:href="#B" x="-289.735" y="329.953"/><use xlink:href="#G" x="-68.027"/><use xlink:href="#C" x="-294.593" y="354.246"/><use xlink:href="#B" x="-294.593" y="334.816"/><use xlink:href="#B" x="-255.722" y="344.529"/><use xlink:href="#F" x="-284.874" y="373.678"/><use xlink:href="#M"/><use xlink:href="#F" x="-284.874" y="354.245"/><use xlink:href="#B" x="-255.722" y="334.816"/><use xlink:href="#B" x="-241.145" y="329.953"/><use xlink:href="#B" x="-241.145" y="349.386"/><use xlink:href="#B" x="-246.003" y="325.095"/><use xlink:href="#B" x="-270.299" y="349.386"/><use xlink:href="#B" x="-246.003" y="344.529"/><use xlink:href="#B" x="-246.003" y="334.816"/><use xlink:href="#F" x="-299.451" y="359.108"/><use xlink:href="#L" x="-68.026"/><use xlink:href="#H" x="-82.606" y="4.857"/><use xlink:href="#K" x="-68.026"/><use xlink:href="#C" x="-260.58" y="349.389"/><use xlink:href="#B" x="-260.58" y="329.953"/><use xlink:href="#B" x="-255.722" y="325.095"/><use xlink:href="#B" x="-260.585" y="349.386"/><use xlink:href="#B" x="-173.119" y="329.953"/><use xlink:href="#B" x="-95.375" y="349.386"/><use xlink:href="#F" x="-129.386" y="363.964"/><use xlink:href="#B" x="-90.515" y="325.095"/><use xlink:href="#B" x="-95.375" y="329.953"/><use xlink:href="#B" x="-85.657" y="349.386"/><use xlink:href="#B" x="-85.657" y="329.953"/><use xlink:href="#B" x="-90.515" y="344.529"/><use xlink:href="#B" x="-100.233" y="334.816"/><use xlink:href="#B" x="-90.515" y="334.816"/><use xlink:href="#B" x="-100.233" y="325.095"/><use xlink:href="#F" x="-148.822" y="373.678"/><use xlink:href="#B" x="-109.951" y="344.529"/><use xlink:href="#B" x="-100.233" y="344.529"/><use xlink:href="#B" x="-109.951" y="334.816"/><use xlink:href="#H" x="68.026"/><use xlink:href="#H" x="77.744"/><use xlink:href="#F" x="-119.668" y="363.964"/><use xlink:href="#I" x="77.744" y="-19.433"/><use xlink:href="#F" x="-139.104" y="373.678"/><use xlink:href="#B" x="-109.951" y="325.095"/><use xlink:href="#C" x="-61.361" y="354.246"/><use xlink:href="#F" x="-100.232" y="363.964"/><use xlink:href="#C" x="-61.361" y="334.812"/><use xlink:href="#G" x="155.487"/><use xlink:href="#C" x="-80.797" y="334.812"/><path d="M637.15 399.187a1.57 1.57 0 0 0 .147 3.133c.206.001.41-.04.6-.119-.153-1.026-.402-2.035-.743-3.014z"/><use xlink:href="#B" x="-56.502" y="329.953"/><use xlink:href="#K" x="145.77"/><use xlink:href="#B" x="-66.221" y="329.953"/><use xlink:href="#G" x="160.347" y="-14.57"/><use xlink:href="#B" x="-75.939" y="329.953"/><use xlink:href="#G" x="145.769"/><use xlink:href="#B" x="-80.797" y="334.816"/><use xlink:href="#C" x="-80.797" y="354.246"/><use xlink:href="#B" x="-71.079" y="334.816"/><use xlink:href="#C" x="-71.079" y="354.246"/><use xlink:href="#C" x="-71.079" y="334.812"/><use xlink:href="#F" x="-109.95" y="363.964"/><use xlink:href="#G" x="87.461"/><use xlink:href="#F" x="-197.412" y="363.964"/><use xlink:href="#B" x="-158.541" y="334.816"/><use xlink:href="#B" x="-153.683" y="329.953"/><use xlink:href="#B" x="-158.541" y="325.095"/><use xlink:href="#B" x="-158.541" y="344.529"/><use xlink:href="#C" x="-148.823" y="334.812"/><use xlink:href="#B" x="-153.683" y="349.386"/><use xlink:href="#C" x="-148.823" y="354.246"/><use xlink:href="#F" x="-187.694" y="363.964"/><use xlink:href="#B" x="-163.401" y="329.953"/><use xlink:href="#F" x="-207.13" y="363.964"/><use xlink:href="#B" x="-168.259" y="325.095"/><use xlink:href="#B" x="-173.119" y="349.386"/><use xlink:href="#G" x="58.307"/><use xlink:href="#B" x="-304.311" y="334.816"/><use xlink:href="#B" x="-148.823" y="334.816"/><use xlink:href="#B" x="-168.259" y="344.529"/><use xlink:href="#I" x="68.026" y="-19.433"/><use xlink:href="#B" x="-168.259" y="334.816"/><use xlink:href="#B" x="-124.529" y="329.953"/><use xlink:href="#F" x="-163.399" y="359.108"/><use xlink:href="#B" x="-124.529" y="349.386"/><use xlink:href="#H" x="53.446" y="4.857"/><use xlink:href="#B" x="-119.67" y="334.816"/><use xlink:href="#B" x="-119.67" y="344.529"/><use xlink:href="#K" x="77.744"/><use xlink:href="#H" x="53.449" y="-14.577"/><use xlink:href="#B" x="-119.67" y="325.095"/><use xlink:href="#B" x="-177.977" y="334.816"/><use xlink:href="#C" x="-139.105" y="334.812"/><use xlink:href="#F" x="-177.976" y="363.964"/><use xlink:href="#K" x="63.169" y="4.857"/><use xlink:href="#B" x="-143.965" y="349.386"/><use xlink:href="#B" x="-143.965" y="329.953"/><use xlink:href="#F" x="-168.258" y="363.964"/><use xlink:href="#B" x="-134.247" y="329.953"/><use xlink:href="#B" x="-139.105" y="334.816"/><use xlink:href="#B" x="-236.285" y="344.529"/><use xlink:href="#B" x="-469.519" y="334.816"/><use xlink:href="#B" x="-469.519" y="344.529"/><use xlink:href="#B" x="-469.519" y="325.095"/><use xlink:href="#H" x="-291.539"/><use xlink:href="#F" x="-508.387" y="373.678"/><use xlink:href="#M" x="-213.798"/><use xlink:href="#G" x="-238.096" y="-24.291"/><use xlink:href="#I" x="-281.824" y="-19.433"/><use xlink:href="#F" x="-498.672" y="373.678"/><use xlink:href="#N"/><use xlink:href="#I" x="-291.539" y="-19.433"/><use xlink:href="#N" x="19.441"/><use xlink:href="#N" x="29.159"/><use xlink:href="#O"/><use xlink:href="#N" x="9.719"/><use xlink:href="#B" x="-459.804" y="344.529"/><path d="M209.707 408.89a1.56 1.56 0 0 0-.619.128 16.49 16.49 0 0 0 1.092 2.939 1.57 1.57 0 0 0-.473-3.067zm0-9.713c-.086.001-.172.01-.257.026-.316.906-.552 1.837-.706 2.784a1.56 1.56 0 0 0 .963.338c.572.014 1.106-.282 1.396-.775s.29-1.104 0-1.597-.825-.789-1.396-.775zm9.715 19.427a1.57 1.57 0 0 0-1.5 1.114c.942.458 1.924.827 2.935 1.1a1.56 1.56 0 0 0 .137-.637c0-.418-.165-.818-.461-1.113s-.696-.461-1.113-.461z"/><use xlink:href="#B" x="-440.363" y="344.529"/><use xlink:href="#B" x="-435.505" y="329.953"/><use xlink:href="#P"/><use xlink:href="#B" x="-440.363" y="334.816"/><use xlink:href="#B" x="-304.311" y="344.529"/><use xlink:href="#B" x="-440.363" y="325.095"/><use xlink:href="#C" x="-430.645" y="334.812"/><use xlink:href="#B" x="-459.804" y="334.816"/><use xlink:href="#F" x="-469.516" y="363.964"/><use xlink:href="#G" x="-213.797"/><use xlink:href="#C" x="-430.645" y="354.246"/><use xlink:href="#B" x="-454.941" y="349.386"/><use xlink:href="#F" x="-488.952" y="363.964"/><use xlink:href="#B" x="-454.941" y="329.953"/><use xlink:href="#G" x="-223.515"/><use xlink:href="#B" x="-450.081" y="325.095"/><use xlink:href="#B" x="-450.081" y="344.529"/><use xlink:href="#B" x="-445.223" y="329.953"/><use xlink:href="#B" x="-450.081" y="334.816"/><use xlink:href="#O" x="68.026"/><use xlink:href="#N" x="291.542"/><path d="M559.553 418.604a1.57 1.57 0 0 0-.97 2.8h1.94a1.57 1.57 0 0 0-.971-2.8z"/><use xlink:href="#N" x="301.263"/><use xlink:href="#O" x="281.822"/><path d="M540.118 418.604a1.57 1.57 0 0 0-.971 2.8h1.948a1.57 1.57 0 0 0-.971-2.8z"/><use xlink:href="#P" x="213.793"/><use xlink:href="#N" x="281.827"/><use xlink:href="#O" x="213.796"/><use xlink:href="#P" x="223.514"/><use xlink:href="#P" x="291.54"/><use xlink:href="#N" x="242.953"/><path d="M627.58 418.604c-.418 0-.818.165-1.114.461s-.461.696-.461 1.113c.001.186.035.369.1.543 1.006-.297 1.982-.689 2.914-1.17-.249-.573-.814-.945-1.439-.947z"/><use xlink:href="#N" x="388.725"/><path d="M637.297 408.89a1.57 1.57 0 0 0-.8 2.921 16.53 16.53 0 0 0 1.048-2.9 1.52 1.52 0 0 0-.243-.025zm-4.859 4.857c-.62-.01-1.187.345-1.45.906s-.172 1.224.232 1.694 1.046.659 1.64.483q.582-.55 1.107-1.153c.028-.117.043-.237.044-.357a1.57 1.57 0 0 0-1.574-1.574z"/><use xlink:href="#N" x="359.571"/><use xlink:href="#N" x="349.853"/><use xlink:href="#N" x="379.007"/><use xlink:href="#N" x="369.289"/><use xlink:href="#N" x="165.211"/><use xlink:href="#B" x="-430.645" y="334.816"/><use xlink:href="#P" x="77.744"/><use xlink:href="#P" x="68.026"/><use xlink:href="#N" x="145.775"/><use xlink:href="#N" x="136.056"/><use xlink:href="#N" x="77.746"/><use xlink:href="#N" x="233.238"/><use xlink:href="#N" x="68.03"/><use xlink:href="#N" x="87.467"/><path d="M326.322 418.604a1.57 1.57 0 0 0-.971 2.8h1.948a1.57 1.57 0 0 0-.971-2.8z"/><use xlink:href="#N" x="204.082"/><use xlink:href="#P" x="145.77"/><use xlink:href="#N" x="213.801"/><use xlink:href="#N" x="223.516"/><use xlink:href="#O" x="145.77"/><use xlink:href="#N" x="58.312"/><use xlink:href="#N" x="155.493"/><use xlink:href="#N" x="174.929"/><use xlink:href="#F" x="-479.234" y="363.964"/><use xlink:href="#F" x="-382.054" y="363.964"/><use xlink:href="#H" x="-160.347" y="-14.577"/><use xlink:href="#B" x="-348.043" y="329.953"/><use xlink:href="#H" x="-160.35" y="4.857"/><use xlink:href="#B" x="-348.043" y="349.386"/><use xlink:href="#B" x="-333.466" y="325.095"/><use xlink:href="#B" x="-338.325" y="349.386"/><use xlink:href="#C" x="-338.325" y="349.389"/><use xlink:href="#B" x="-338.33" y="329.953"/><use xlink:href="#F" x="-377.195" y="359.108"/><use xlink:href="#B" x="-362.619" y="334.816"/><use xlink:href="#B" x="-352.901" y="334.816"/><use xlink:href="#B" x="-357.761" y="329.953"/><use xlink:href="#C" x="-362.619" y="334.812"/><use xlink:href="#C" x="-362.619" y="354.246"/><use xlink:href="#C" x="-352.901" y="334.812"/><use xlink:href="#B" x="-357.761" y="349.386"/><use xlink:href="#K" x="-150.627" y="4.857"/><use xlink:href="#F" x="-391.772" y="363.964"/><use xlink:href="#F" x="-343.182" y="363.964"/><use xlink:href="#B" x="-314.029" y="334.816"/><use xlink:href="#B" x="-314.029" y="344.529"/><use xlink:href="#B" x="-314.029" y="325.095"/><use xlink:href="#F" x="-352.9" y="363.964"/><use xlink:href="#B" x="-309.171" y="329.953"/><use xlink:href="#B" x="-318.889" y="349.386"/><use xlink:href="#F" x="-401.49" y="363.964"/><use xlink:href="#G" x="-82.603" y="-24.291"/><use xlink:href="#B" x="-309.171" y="349.386"/><use xlink:href="#J" x="-145.77"/><use xlink:href="#B" x="-318.889" y="329.953"/><use xlink:href="#H" x="-145.77"/><use xlink:href="#I" x="-145.77"/><use xlink:href="#B" x="-333.466" y="334.816"/><use xlink:href="#B" x="-333.466" y="344.529"/><use xlink:href="#B" x="-323.748" y="325.095"/><use xlink:href="#B" x="-323.748" y="334.816"/><use xlink:href="#B" x="-323.748" y="344.529"/><use xlink:href="#B" x="-382.055" y="325.095"/><use xlink:href="#B" x="-406.351" y="329.953"/><use xlink:href="#B" x="-406.351" y="349.386"/><use xlink:href="#F" x="-445.221" y="359.108"/><use xlink:href="#L" x="-213.796"/><use xlink:href="#H" x="-228.373" y="4.857"/><use xlink:href="#F" x="-440.367" y="363.964"/><use xlink:href="#G" x="-145.771"/><use xlink:href="#B" x="-401.492" y="344.529"/><use xlink:href="#B" x="-401.492" y="325.095"/><use xlink:href="#J" x="-213.796"/><use xlink:href="#C" x="-420.927" y="354.246"/><use xlink:href="#F" x="-459.798" y="363.964"/><use xlink:href="#C" x="-420.927" y="334.812"/><use xlink:href="#G" x="-204.079"/><use xlink:href="#B" x="-416.069" y="349.386"/><use xlink:href="#G" x="-199.219" y="-14.57"/><use xlink:href="#K" x="-213.796"/><use xlink:href="#B" x="-416.069" y="329.953"/><use xlink:href="#B" x="-401.492" y="334.816"/><use xlink:href="#B" x="-377.197" y="329.953"/><use xlink:href="#G" x="-155.489"/><use xlink:href="#B" x="-382.055" y="334.816"/><use xlink:href="#F" x="-411.208" y="363.964"/><use xlink:href="#B" x="-367.479" y="329.953"/><use xlink:href="#B" x="-382.055" y="344.529"/><use xlink:href="#I" x="-213.796"/><use xlink:href="#B" x="-372.337" y="334.816"/><use xlink:href="#B" x="-372.337" y="344.529"/><use xlink:href="#B" x="-372.337" y="325.095"/><use xlink:href="#B" x="-391.774" y="334.816"/><use xlink:href="#B" x="-391.774" y="344.529"/><use xlink:href="#B" x="-391.774" y="325.095"/><use xlink:href="#H" x="-213.796"/><use xlink:href="#B" x="-425.787" y="329.953"/><use xlink:href="#F" x="-420.926" y="363.964"/><use xlink:href="#B" x="-386.915" y="349.386"/><use xlink:href="#B" x="-386.915" y="329.953"/></g><path d="M602.79 370.441zm-369.4-92.763h0z" class="C"/><g class="B"><use xlink:href="#B" x="-459.804" y="286.23"/><use xlink:href="#B" x="-459.804" y="295.947"/><path d="M227.585 342.273c-.01.06-.016.12-.018.18a1.57 1.57 0 0 0 1.068 1.483c-.393-.526-.745-1.082-1.052-1.663zm-8.163-20.83a1.56 1.56 0 0 0-.281.028l-.584 2.859c.562.37 1.296.341 1.828-.07s.743-1.116.525-1.752-.816-1.064-1.488-1.064zm9.66-9.71zm0 0a1.57 1.57 0 0 0-1.036 2.695zm-8.108 1.792zm0 0l-.236.129-.139.683a1.56 1.56 0 0 0 .375-.809z"/><use xlink:href="#H" x="-281.825" y="-38.868"/><use xlink:href="#B" x="-469.519" y="286.23"/><use xlink:href="#F" x="-498.673" y="315.38"/><use xlink:href="#B" x="-450.082" y="305.663"/><use xlink:href="#I" x="-281.825" y="-77.731"/><use xlink:href="#F" x="-498.673" y="276.515"/><path d="M224.279 345.733c-.869.001-1.573.706-1.573 1.575s.705 1.574 1.574 1.573 1.574-.705 1.574-1.574-.706-1.573-1.575-1.574zm0-19.433c-.678 0-1.28.434-1.494 1.078s.009 1.352.552 1.758 1.286.418 1.842.03l.139-2.467a1.56 1.56 0 0 0-1.039-.398zm4.857 43.724a1.57 1.57 0 0 0-1.557 1.4c.921.423 1.869.784 2.838 1.08.19-.265.292-.582.292-.908 0-.418-.165-.818-.461-1.113s-.696-.461-1.113-.461z"/><use xlink:href="#B" x="-469.519" y="295.947"/><use xlink:href="#B" x="-454.942" y="291.088"/><use xlink:href="#B" x="-450.082" y="286.23"/><path d="M232.444 347.124a1.45 1.45 0 0 0-.019.182 1.57 1.57 0 0 0 2.9.836 12.27 12.27 0 0 1-2.881-1.018z"/><use xlink:href="#B" x="-450.082" y="295.947"/><path d="M243.073 355.589zm0 0c-.488.216-.833.666-.914 1.193s.113 1.06.514 1.413zm1.2-7.877zm0 0a16.1 16.1 0 0 1-1.873.45 1.57 1.57 0 0 0 1.318.718 1.55 1.55 0 0 0 .385-.053z"/><use xlink:href="#F" x="-488.953" y="325.096"/><path d="M215.986 336.93l-.373 1.828c.519-.457.672-1.204.373-1.828z"/><use xlink:href="#F" x="-503.53" y="300.806"/><use xlink:href="#B" x="-469.519" y="266.798"/><path d="M214.854 355.478a22.58 22.58 0 0 0 .751 2.716c.45-.396.635-1.015.475-1.593s-.636-1.014-1.226-1.123zm-.29-9.746c-.067.003-.134.01-.2.021v3.106a1.52 1.52 0 0 0 .2.021c.869 0 1.574-.705 1.574-1.574s-.705-1.574-1.574-1.574zm190.107-111.263c1.4 1.2 6.163 5.384 7.8 4.548 3.391-1.73 4.857-7.962 4.048-11.164-.264-1.293-.935-2.468-1.915-3.352-.931-.866-1.459-2.079-1.459-3.35s.529-2.484 1.459-3.35c1.823-1.823 6.184 2.8 8.72 2.347 2.036-.363 3.143-5.594 5.01-9.019 3.007-5.511 13.178-8.131 1.919-11.557-11.525-3.507-26.458-3.454-30.845 8.49-5.783 15.758 1.31 23.01 5.263 26.407z"/><path d="M424.754 248.689h-.035a2.43 2.43 0 0 1-2.394-2.461l-.011-3.21c-.055-6.092 3.992-6.835 7.243-7.432a27.09 27.09 0 0 0 4.419-1.091c3.37-1.208 4.254-9.763 3.789-15.164-.725-8.418-4.71-13.206-8.273-13.591-1.332-.143-2.297-1.339-2.154-2.671s1.339-2.297 2.671-2.154c6.562.707 11.739 8.11 12.591 18 .151 1.752 1.236 17.2-6.988 20.155-1.687.579-3.42 1.014-5.181 1.3-3.281.6-3.281.64-3.263 2.61l.011 3.319a2.43 2.43 0 0 1-2.425 2.391zm-16.042-.14c-1.245-.001-2.38-.716-2.918-1.839s-.384-2.455.397-3.426a13.63 13.63 0 0 0 2.339-4.712c-.232-.977-2.419-3.308-4.6-4.883a3.24 3.24 0 0 1 .53-5.63 3.24 3.24 0 0 1 3.257.376c7.437 5.351 7.508 9.655 7.192 11.257a19.7 19.7 0 0 1-3.67 7.646c-.616.768-1.547 1.213-2.531 1.211zm-.171-9.908z"/><path d="M398.266 271.177a2.43 2.43 0 0 1-2.424-2.313c-.521-10.958-.311-18 7-23.35 4.742-3.472 23.755-2.9 31.789.96 13.129 6.3 50.266 18.86 50.64 18.984a2.43 2.43 0 0 1 1.479 3.062 2.43 2.43 0 0 1-3.032 1.538c-1.538-.519-37.793-12.774-51.189-19.208-3.319-1.594-9.053-2.636-15.337-2.787-6.419-.162-10.577.706-11.479 1.367-5.19 3.8-5.515 8.769-5.019 19.2a2.43 2.43 0 0 1-2.31 2.542zm186.731 2.2a2.42 2.42 0 0 1-1.452-.486l-60.172-44.96c-50.341-37.692-108.145-57.1-167.144-56.03l-54.421.864c-22.943.4-43.992 17.091-53.642 42.521l-16.4 54.706a2.43 2.43 0 0 1-3.015 1.6 2.43 2.43 0 0 1-1.638-2.995l16.479-54.95c10.344-27.347 33.163-45.3 58.135-45.74l54.421-.864c60.07-1.052 118.926 18.654 170.135 57l60.172 44.958a2.43 2.43 0 0 1-1.456 4.376zm-75.98-3.2c-.704 0-1.374-.306-1.835-.837s-.671-1.237-.573-1.935c.459-3.764 1.461-7.441 2.974-10.917a86.39 86.39 0 0 1 10.335-18.583 2.43 2.43 0 0 1 4.167.569 2.43 2.43 0 0 1-.328 2.406 82.72 82.72 0 0 0-9.7 17.5 34.5 34.5 0 0 0-2.642 9.713 2.43 2.43 0 0 1-2.4 2.087zM342.031 375.088a2.43 2.43 0 0 1-2.438-2.418 2.43 2.43 0 0 1 2.418-2.438l152.328-1.3h.021a2.43 2.43 0 0 1 2.438 2.419 2.43 2.43 0 0 1-2.418 2.438l-152.328 1.3z"/><path d="M384.109 333.183a2.43 2.43 0 0 1-2.429-2.408l-.891-103.6-.206-56.626a2.43 2.43 0 0 1 2.42-2.436h.009a2.43 2.43 0 0 1 2.429 2.419l.209 56.617.891 103.589a2.43 2.43 0 0 1-2.408 2.449z"/></g><path d="M219.844 316.894a3.24 3.24 0 0 1-1.6-6.053l16.33-9.29c3.119-1.626 5.137-4.787 5.3-8.3a9.62 9.62 0 0 0-11.132-10l-1.81.235a3.24 3.24 0 0 1-3.459-4.466 3.24 3.24 0 0 1 2.626-1.955l1.81-.235a16.21 16.21 0 0 1 9.708 30.439l-16.169 9.2c-.487.278-1.039.425-1.6.425z" fill="#49c5d9"/><g class="B"><path d="M404.834 310.391a2.43 2.43 0 0 1-2.438-2.419 2.43 2.43 0 0 1 2.418-2.438l9.843-.081h.021a2.43 2.43 0 0 1 2.439 2.418 2.43 2.43 0 0 1-2.418 2.439l-9.843.081zm-58.962 45.648a2.43 2.43 0 0 1-2.438-2.419 2.43 2.43 0 0 1 2.418-2.438l82.347-.7h.02a2.43 2.43 0 0 1 2.439 2.419 2.43 2.43 0 0 1-2.419 2.438l-82.346.7zm244.385-.2a2.43 2.43 0 0 1-2.446-2.411 2.43 2.43 0 0 1 2.411-2.445l36.957-.506h.034a2.43 2.43 0 0 1 2.445 2.412 2.43 2.43 0 0 1-2.411 2.445l-36.956.51zm-377.044.2a2.43 2.43 0 0 1-2.437-2.42 2.43 2.43 0 0 1 2.419-2.437l26.183-.2h.019a2.43 2.43 0 0 1 2.437 2.42 2.43 2.43 0 0 1-2.419 2.438l-26.183.2z"/><path d="M283.342 333.671c13.623.012 24.676 11.03 24.731 24.653s-10.909 24.73-24.531 24.852h-.217c-13.623-.012-24.676-11.03-24.731-24.653s10.909-24.73 24.531-24.852h.221m0-21.855h-.4c-25.703.159-46.425 21.097-46.318 46.8s21.003 46.468 46.706 46.413h.4c25.703-.159 46.425-21.097 46.318-46.8s-21.003-46.468-46.706-46.413zm.269 58.88a2.43 2.43 0 0 1-2.439-2.418 2.43 2.43 0 0 1 2.418-2.439 7.26 7.26 0 0 0 7.228-7.289 7.26 7.26 0 0 0-7.289-7.229h-.062a7.27 7.27 0 0 0-7.2 7.322 2.43 2.43 0 0 1-2.408 2.449h-.021a2.43 2.43 0 0 1-2.429-2.408 12.14 12.14 0 0 1 12.014-12.223h.1a12.12 12.12 0 0 1 12.068 12.066 12.12 12.12 0 0 1-11.968 12.165z"/></g><path d="M583.973 291.623c-18.436 0-27.681-16.633-30.085-21.754a3.24 3.24 0 0 1 5.864-2.751c2.551 5.436 10 18.03 24.222 18.03h.222l25.795-.237h.03a3.24 3.24 0 0 1 3.253 3.223 3.24 3.24 0 0 1-3.223 3.253l-25.794.237z" fill="#49c5d9"/><path d="M236.54 375.983a26.36 26.36 0 0 1-25.934-31.454l13.487-68.465a10.04 10.04 0 0 1 9.882-8.26l64.053-.463h.018a2.43 2.43 0 0 1 2.437 2.42 2.43 2.43 0 0 1-2.42 2.437l-64.049.463a5.31 5.31 0 0 0-4.841 3.231c-.142.358-.247.73-.313 1.11l-13.487 68.467c-1.249 6.342.421 12.909 4.548 17.884s10.272 7.83 16.736 7.775l5.781-.243a2.43 2.43 0 0 1 2.526 2.326 2.43 2.43 0 0 1-2.326 2.526l-5.861.243zm73.532-103.978a2.43 2.43 0 0 1-2.437-2.421 2.43 2.43 0 0 1 2.42-2.437l15.535-.1h.016a2.43 2.43 0 0 1 2.436 2.42 2.43 2.43 0 0 1-2.42 2.437l-15.535.1zM589.75 372.982a2.43 2.43 0 0 1-2.438-2.418 2.43 2.43 0 0 1 2.418-2.438l13.044-.111c13.685-.131 24.682-11.314 24.583-25l-.087-10.3c-.34-34.785-28.613-62.817-63.4-62.859h-.546l-224.164 1.877h-.02a2.43 2.43 0 0 1-2.438-2.418 2.43 2.43 0 0 1 2.418-2.438l224.16-1.873h.588c37.452.044 67.891 30.225 68.255 67.675l.087 10.3c.12 16.368-13.032 29.744-29.4 29.9l-13.044.111z" class="B"/><path d="M546.957 261.831c-.556.001-1.095-.19-1.526-.541l-19.956-16.15c-37.271-30.229-76.181-49.852-115.644-58.325-38.082-8.175-98.255-3.919-98.858-3.873l-.134.006c-16.8.3-29.649 5.01-39.279 14.408-9.107 8.887-13.459 23.481-17.668 37.593l-.046.155a2.43 2.43 0 0 1-3.009 1.593 2.43 2.43 0 0 1-1.646-2.98l.046-.155c4.181-14.021 8.921-29.914 18.93-39.681 10.4-10.15 24.7-15.461 42.52-15.789 2.372-.166 61.981-4.223 100.162 3.973 40.22 8.636 79.815 28.587 117.684 59.3l19.953 16.149a2.43 2.43 0 0 1-1.53 4.317z" class="D"/><path d="M281.495 397.332c-18.553-.041-34.194-13.845-36.541-32.249-.066-.436.11-.873.459-1.143s.816-.329 1.221-.155.684.553.73.992c2.407 18.889 19.67 32.251 38.559 29.844.436-.066.874.109 1.144.458s.329.817.155 1.223-.555.685-.994.729a37.53 37.53 0 0 1-4.737.3z" class="C"/><path d="M544.035 333.979c13.525.149 24.426 11.126 24.481 24.651s-10.758 24.591-24.281 24.849h-.217c-13.623-.012-24.676-11.03-24.731-24.653s10.909-24.73 24.531-24.852h.221m0-21.855h-.4c-25.615.282-46.201 21.183-46.094 46.799s20.866 46.345 46.482 46.414h.4c25.703-.159 46.426-21.097 46.318-46.801s-21.004-46.468-46.707-46.412zm.074 58.573a2.43 2.43 0 0 1-2.438-2.419 2.43 2.43 0 0 1 2.418-2.438 7.26 7.26 0 0 0 7.228-7.29 7.26 7.26 0 0 0-7.29-7.228h-.062a7.27 7.27 0 0 0-7.2 7.322 2.43 2.43 0 0 1-2.409 2.449 2.43 2.43 0 0 1-2.449-2.409c-.052-6.69 5.323-12.159 12.013-12.223h.1a12.12 12.12 0 0 1 12.068 12.066 12.12 12.12 0 0 1-11.968 12.165z" class="B"/><g class="C"><path d="M542.239 397.639c-18.562-.036-34.219-13.834-36.587-32.245-.066-.436.11-.873.459-1.143s.816-.329 1.221-.155.684.553.73.992c2.429 18.876 19.677 32.225 38.559 29.843.436-.066.873.11 1.143.459s.329.816.155 1.221-.553.684-.992.73a37.2 37.2 0 0 1-4.688.298z"/><use xlink:href="#Q"/></g><path d="M306.311 288.892c-3.911-.004-7.081-3.173-7.085-7.084v-14.154a4.57 4.57 0 0 1 4.561-4.562h5.04a4.57 4.57 0 0 1 4.564 4.563v14.157c-.004 3.911-3.173 7.08-7.084 7.084zm-2.224-20.944v13.864c-.017.807.403 1.56 1.099 1.968s1.558.408 2.254 0 1.117-1.161 1.099-1.968v-13.864z" class="B"/><use xlink:href="#Q" x="26.005" class="C"/><g class="B"><path d="M332.315 288.892c-3.91-.005-7.079-3.174-7.084-7.084v-14.154a4.57 4.57 0 0 1 4.564-4.563h5.04a4.57 4.57 0 0 1 4.564 4.563v14.158c-.007 3.909-3.175 7.076-7.084 7.08zm-2.226-20.948v13.868c-.017.807.403 1.56 1.099 1.968s1.558.408 2.254 0 1.117-1.161 1.099-1.968v-13.864z"/><path d="M334.503 267.884a2.43 2.43 0 0 1-2.429-2.428v-8.225c.025-14.047-11-25.631-25.032-26.3l-17.31-.02h0c-.247-.001-.482.109-.639.3a.8.8 0 0 0-.18.663c.233 1.821.7 3.605 1.39 5.306a18.76 18.76 0 0 0 15.592 10.418l2.275.145v17.53a2.43 2.43 0 0 1-2.429 2.38 2.43 2.43 0 0 1-2.429-2.38v-13.092c-7.525-1.236-13.991-6.025-17.368-12.862-.894-2.115-1.505-4.338-1.817-6.613-.288-1.653.169-3.348 1.25-4.631s2.673-2.023 4.35-2.021h.01l17.475.031c16.645.758 29.742 14.487 29.716 31.149v8.222a2.43 2.43 0 0 1-2.43 2.428z"/><path d="M312.213 227.872h30.184c2.192 0 4.294.87 5.845 2.42s2.421 3.652 2.421 5.844h0c0 2.192-.871 4.294-2.421 5.844s-3.653 2.42-5.845 2.42h-9.009m-45.094-4.665q-.33 0-.659-.022a2.43 2.43 0 0 1-1.866-3.808 2.43 2.43 0 0 1 2.232-1.033c.868.053 2.888-.132 3.533-1.074a4.54 4.54 0 0 0 .291-4.144 2.43 2.43 0 1 1 4.4-2.065 9.34 9.34 0 0 1-.678 8.952c-1.973 2.88-5.698 3.199-7.253 3.199z"/><circle cx="315.028" cy="238.686" r="2.206"/></g><path d="M877.316 470.097c-12.32-.015-24.448 3.051-35.28 8.92l-6.458-9.187c5.322-4.251 10.341-8.868 15.02-13.817a38.39 38.39 0 0 0 15.749-10.1c.341-.363.341-.363 16.366-20.585a14.99 14.99 0 0 0-6.206-23.416c-11.55-4.649-21.358-9.879-26.909-14.351-6.17-4.967-11.651-12.687-16.49-19.508-2.556-3.766-5.319-7.387-8.275-10.847 14.618-5.812 28.117-21.259 28.117-39.873 0-25.155-19.16-45.619-42.711-45.619-20.059 0-36.895 10.83-43.937 28.263a15.47 15.47 0 0 0-.739 2.024c-1.167 3.983-.793 8.26 1.048 11.98-.391.876-.628 1.472-.677 1.6-8.56 21.667 2.319 34.159 5.858 37.47 1.863 1.743 4.156 2.96 6.643 3.528-12.5 9.785-21.312 24.326-22.471 26.29l-3 5.1.185.279c-4.283 3.536-8.374 6.516-9.848 7.081-3.985 1.527-14.47 7.071-22.3 11.548-3.562 2.037-6.534 3.809-9.011 5.367a10.21 10.21 0 0 0-8.458-4.226l-7.438-.024a16.71 16.71 0 0 0-16.4 19.775c.42 2.317 1.341 4.515 2.7 6.438a16.66 16.66 0 0 0 13.641 7.139l2.631.009a12.87 12.87 0 0 0 1.2 2.085 11.84 11.84 0 0 0 4.436 3.786l-12.846 26.518c-31.032-10.112-65.03 1.214-83.798 27.916s-17.91 62.526 2.114 88.3h-6.051c-9.943.001-18.005 8.059-18.011 18.002v8.024a18.01 18.01 0 0 0 18.012 18.01H905V475.444c-8.799-3.543-18.198-5.358-27.684-5.347z" class="C"/><g fill="#211e1f"><use xlink:href="#H" x="195.146" y="207.737"/><use xlink:href="#B" x="-16.845" y="537.693"/><use xlink:href="#R"/><circle cx="696.392" cy="618.203" r="1.574"/><use xlink:href="#J" x="190.288" y="212.599"/><use xlink:href="#R" x="9.718"/><use xlink:href="#S"/><use xlink:href="#B" x="17.169" y="542.552"/><use xlink:href="#B" x="2.587" y="537.693"/><circle cx="706.11" cy="618.203" r="1.574"/><use xlink:href="#I" x="195.146" y="188.307"/><use xlink:href="#B" x="-2.267" y="542.552"/><use xlink:href="#T"/><use xlink:href="#S" x="-29.155"/><use xlink:href="#B" x="-11.985" y="542.552"/><circle cx="676.956" cy="618.203" r="1.574"/><use xlink:href="#D" x="-65.434" y="586.275"/><use xlink:href="#B" x="-7.127" y="537.693"/><use xlink:href="#C" x="2.592" y="557.126"/><use xlink:href="#S" x="-19.437"/><use xlink:href="#U"/><use xlink:href="#H" x="204.864" y="207.737"/><use xlink:href="#C" x="-2.267" y="561.985"/><use xlink:href="#S" x="-9.718"/><use xlink:href="#T" x="58.308"/><use xlink:href="#S" x="29.152"/><use xlink:href="#D" x="-7.126" y="586.275"/><use xlink:href="#B" x="46.323" y="542.552"/><use xlink:href="#B" x="41.463" y="537.693"/><circle cx="735.264" cy="618.203" r="1.574"/><use xlink:href="#T" x="68.026"/><use xlink:href="#V"/><use xlink:href="#B" x="56.041" y="542.552"/><use xlink:href="#C" x="56.041" y="561.985"/><use xlink:href="#B" x="51.181" y="537.693"/><use xlink:href="#F" x="7.452" y="571.701"/><use xlink:href="#W"/><use xlink:href="#V" x="-29.153"/><use xlink:href="#I" x="204.864" y="188.307"/><use xlink:href="#B" x="26.887" y="552.268"/><use xlink:href="#D" x="2.592" y="586.275"/><use xlink:href="#B" x="26.887" y="542.552"/><use xlink:href="#V" x="-19.433"/><use xlink:href="#T" x="48.59"/><use xlink:href="#B" x="36.605" y="542.552"/><circle cx="725.546" cy="618.203" r="1.574"/><use xlink:href="#B" x="31.745" y="537.693"/><use xlink:href="#F" x="-2.266" y="571.701"/><use xlink:href="#U" x="-68.026"/><use xlink:href="#C" x="-65.434" y="557.126"/><use xlink:href="#S" x="-87.463"/><use xlink:href="#F" x="-104.305" y="566.844"/><circle cx="618.648" cy="618.203" r="1.574"/><use xlink:href="#R" x="-68.026"/><use xlink:href="#S" x="-77.741"/><use xlink:href="#B" x="-65.439" y="537.693"/><use xlink:href="#B" x="-75.153" y="537.693"/><use xlink:href="#B" x="-60.575" y="542.552"/><use xlink:href="#B" x="-60.575" y="552.268"/><path d="M904.999 614.881v-3.078c-.725.156-1.243.796-1.243 1.538s.518 1.382 1.243 1.538z"/><use xlink:href="#D" x="-143.178" y="586.275"/><use xlink:href="#B" x="-89.729" y="542.552"/><path d="M599.211 616.629c-.428 0-.838.176-1.133.486a12.3 12.3 0 0 0 1.9 2.452 1.57 1.57 0 0 0-.771-2.937zm305.786-11.464v-3.074c-.725.156-1.243.796-1.243 1.538s.518 1.382 1.243 1.538z"/><use xlink:href="#M" x="195.146" y="207.737"/><path d="M608.93 616.629c-.637 0-1.211.383-1.454.972s-.109 1.265.341 1.715 1.127.585 1.715.341.972-.818.972-1.454c0-.418-.165-.818-.461-1.113s-.696-.461-1.113-.461z"/><use xlink:href="#B" x="-84.871" y="537.693"/><path d="M608.551 598.723c-.4 0-.8.022-1.194.061.004.869.711 1.57 1.581 1.567s1.57-.711 1.567-1.58c.002-.016.002-.031 0-.047zm5.237 22.763c-.418 0-.818.165-1.113.461s-.461.696-.461 1.113v.047h3.139v-.047a1.57 1.57 0 0 0-1.565-1.577z"/><use xlink:href="#D" x="-133.46" y="586.275"/><use xlink:href="#B" x="-80.011" y="542.552"/><use xlink:href="#B" x="-36.281" y="537.693"/><use xlink:href="#V" x="-87.461"/><use xlink:href="#T" x="-19.436"/><use xlink:href="#B" x="-31.421" y="542.552"/><use xlink:href="#D" x="-84.87" y="586.275"/><use xlink:href="#B" x="-31.421" y="552.268"/><use xlink:href="#B" x="-21.703" y="552.268"/><use xlink:href="#V" x="-77.743"/><use xlink:href="#B" x="-26.563" y="537.693"/><use xlink:href="#T" x="-9.718"/><use xlink:href="#F" x="-50.856" y="571.701"/><path d="M667.238 606.913c-.75 0-1.396.53-1.542 1.266s.248 1.473.941 1.76 1.493.045 1.91-.579.335-1.455-.195-1.986a1.57 1.57 0 0 0-1.113-.461z"/><use xlink:href="#S" x="-68.026"/><use xlink:href="#M" x="204.864" y="207.737"/><use xlink:href="#X"/><use xlink:href="#J" x="127.12" y="207.74"/><use xlink:href="#B" x="-50.857" y="542.552"/><circle cx="638.084" cy="618.203" r="1.574"/><use xlink:href="#V" x="-97.182"/><use xlink:href="#J" x="136.838" y="207.74"/><use xlink:href="#D" x="-94.588" y="586.275"/><path d="M652.66 621.487a1.57 1.57 0 0 0-1.574 1.574v.047h3.139v-.047a1.57 1.57 0 0 0-1.565-1.574z"/><circle cx="647.802" cy="618.203" r="1.574"/><use xlink:href="#B" x="-41.139" y="542.552"/><path d="M604.07 621.487a1.56 1.56 0 0 0-.947.324c.792.397 1.625.706 2.485.921-.155-.726-.796-1.245-1.538-1.245z"/><use xlink:href="#R" x="155.488"/><use xlink:href="#H" x="350.634" y="207.737"/><use xlink:href="#V" x="106.899"/><use xlink:href="#B" x="162.939" y="542.552"/><use xlink:href="#B" x="158.075" y="537.693"/><circle cx="851.88" cy="618.203" r="1.574"/><use xlink:href="#V" x="116.617"/><path d="M866.456 621.487a1.57 1.57 0 0 0-1.574 1.574v.047h3.139v-.047a1.57 1.57 0 0 0-1.565-1.574z"/><use xlink:href="#I" x="350.634" y="188.307"/><use xlink:href="#B" x="172.657" y="552.268"/><use xlink:href="#B" x="172.657" y="542.552"/><circle cx="842.162" cy="618.203" r="1.574"/><use xlink:href="#Y"/><path d="M837.303 621.487c-.418 0-.818.165-1.113.461s-.461.696-.461 1.113v.047h3.139v-.047c.001-.866-.699-1.57-1.565-1.574z"/><use xlink:href="#C" x="158.08" y="557.126"/><use xlink:href="#F" x="109.492" y="566.844"/><use xlink:href="#F" x="109.492" y="576.56"/><use xlink:href="#S" x="126.334"/><use xlink:href="#S" x="136.052"/><use xlink:href="#B" x="148.362" y="537.693"/><use xlink:href="#U" x="155.488"/><use xlink:href="#E" x="148.362" y="586.275"/><use xlink:href="#B" x="153.221" y="542.552"/><use xlink:href="#B" x="211.53" y="542.552"/><use xlink:href="#S" x="184.641"/><use xlink:href="#T" x="213.797"/><use xlink:href="#C" x="201.811" y="561.985"/><use xlink:href="#B" x="201.811" y="542.552"/><use xlink:href="#D" x="148.363" y="586.275"/><path d="M904.999 621.522c-.725.155-1.244.796-1.244 1.538v.047h1.239z"/><use xlink:href="#S" x="194.356"/><use xlink:href="#B" x="196.951" y="537.693"/><circle cx="900.47" cy="618.203" r="1.574"/><use xlink:href="#B" x="138.644" y="537.693"/><use xlink:href="#B" x="206.67" y="537.693"/><use xlink:href="#B" x="177.515" y="537.693"/><use xlink:href="#V" x="126.335"/><use xlink:href="#T" x="194.36"/><circle cx="871.316" cy="618.203" r="1.574"/><use xlink:href="#B" x="182.375" y="542.552"/><use xlink:href="#D" x="128.926" y="586.275"/><use xlink:href="#T" x="204.078"/><use xlink:href="#B" x="187.233" y="537.693"/><use xlink:href="#F" x="162.94" y="571.701"/><use xlink:href="#V" x="136.055"/><use xlink:href="#B" x="192.093" y="542.552"/><use xlink:href="#B" x="192.093" y="552.268"/><path d="M808.149 621.487a1.57 1.57 0 0 0-1.574 1.574v.047h3.138v-.047c.001-.866-.698-1.569-1.564-1.574z"/><use xlink:href="#B" x="80.336" y="537.693"/><use xlink:href="#H" x="272.89" y="207.737"/><use xlink:href="#E" x="70.62" y="586.275"/><use xlink:href="#B" x="85.195" y="552.268"/><use xlink:href="#B" x="85.195" y="542.552"/><use xlink:href="#S" x="68.026"/><use xlink:href="#S" x="77.742"/><use xlink:href="#F" x="56.042" y="561.985"/><path d="M788.714 621.487c-.418 0-.818.165-1.113.461s-.461.696-.461 1.113c-.002.016-.002.031 0 .047h3.139v-.047c0-.418-.165-.818-.461-1.113s-.696-.461-1.113-.461z"/><circle cx="783.854" cy="618.203" r="1.574"/><use xlink:href="#B" x="94.916" y="542.552"/><use xlink:href="#X" x="136.052"/><use xlink:href="#Y" x="-77.745"/><path d="M759.558 621.483c-.418 0-.818.165-1.113.461s-.461.696-.461 1.113v.047h3.139v-.047c0-.418-.165-.818-.461-1.113s-.696-.461-1.113-.461zm-6.428-22.763v.047c0 .869.705 1.574 1.574 1.574s1.574-.705 1.574-1.574v-.047z"/><circle cx="754.699" cy="618.203" r="1.574"/><use xlink:href="#B" x="65.759" y="542.552"/><use xlink:href="#S" x="58.308"/><use xlink:href="#U" x="77.744"/><use xlink:href="#C" x="80.336" y="557.126"/><use xlink:href="#J" x="258.314" y="212.599"/><circle cx="764.418" cy="618.203" r="1.574"/><use xlink:href="#B" x="70.618" y="537.693"/><use xlink:href="#S" x="87.46"/><use xlink:href="#V" x="68.026"/><use xlink:href="#D" x="70.618" y="586.275"/><use xlink:href="#T" x="136.052"/><circle cx="813.008" cy="618.203" r="1.574"/><use xlink:href="#B" x="124.067" y="542.552"/><use xlink:href="#S" x="116.615"/><use xlink:href="#B" x="128.925" y="537.693"/><path d="M827.585 621.487c-.418 0-.818.165-1.113.461s-.461.696-.461 1.113c-.002.016-.002.031 0 .047h3.138v-.047a1.57 1.57 0 0 0-1.574-1.574z"/><use xlink:href="#B" x="119.207" y="537.693"/><circle cx="822.726" cy="618.203" r="1.574"/><use xlink:href="#B" x="133.785" y="542.552"/><circle cx="793.572" cy="618.203" r="1.574"/><use xlink:href="#K" x="340.917" y="207.737"/><use xlink:href="#W" x="77.743"/><use xlink:href="#E" x="80.335" y="586.275"/><use xlink:href="#B" x="104.631" y="542.552"/><use xlink:href="#B" x="99.774" y="537.693"/><use xlink:href="#B" x="109.488" y="537.693"/><use xlink:href="#V" x="58.309"/><use xlink:href="#D" x="60.9" y="586.275"/><use xlink:href="#B" x="60.899" y="537.693"/><use xlink:href="#B" x="114.346" y="542.552"/><use xlink:href="#B" x="114.346" y="552.268"/></g><g class="B"><use xlink:href="#Z"/><use xlink:href="#Z"/><path d="M668.451 587.8a43.63 43.63 0 0 1-40.663-28.169 2.43 2.43 0 0 1 1.438-3.083 2.43 2.43 0 0 1 3.11 1.378c5.18 13.815 17.789 23.464 32.478 24.854s28.884-5.724 36.563-18.323 7.496-28.475-.471-40.894a2.43 2.43 0 0 1 4.085-2.628 43.42 43.42 0 0 1-36.54 66.865zm-40.987-40.982a2.43 2.43 0 0 1-2.429-2.428c.027-23.966 19.45-43.387 43.416-43.412a2.43 2.43 0 0 1 2.428 2.428 2.43 2.43 0 0 1-2.428 2.428c-21.283.023-38.532 17.27-38.558 38.553a2.43 2.43 0 0 1-2.429 2.428zM877.316 587.8a43.22 43.22 0 0 0 27.682-9.994v-6.617a38.54 38.54 0 0 1-63.8-13.262 2.43 2.43 0 0 0-3.114-1.387 2.43 2.43 0 0 0-1.434 3.093 43.63 43.63 0 0 0 40.666 28.167zm27.682 3.745c-22.977 13.509-52.346 8.489-69.533-11.884s-17.187-50.168 0-70.541 46.555-25.393 69.533-11.884V482.68c-28.384-12.756-61.809-4.505-80.997 19.994s-19.187 58.928 0 83.428 52.612 32.751 80.997 19.994zm-66.24-47.156c.026-21.283 17.275-38.529 38.558-38.552a2.43 2.43 0 0 0 2.428-2.428 2.43 2.43 0 0 0-2.428-2.428c-23.965.025-43.387 19.444-43.416 43.409a2.43 2.43 0 0 0 2.428 2.38 2.43 2.43 0 0 0 2.428-2.38z"/></g><path d="M783.717 530.454c-1.639-17.871-4.16-48.375-2.624-51.886 4.048-9.249 34.371-35.623 37.815-38.6l3.177 3.674c-9.093 7.86-33.3 29.726-36.505 36.791-.78 3.311 1.263 30.921 2.974 49.577z" fill="#fdf14c"/><g class="B"><circle cx="755.008" cy="471.141" r="1.574"/><circle cx="755.008" cy="451.708" r="1.574"/><circle cx="755.008" cy="461.424" r="1.574"/><circle cx="755.008" cy="480.857" r="1.574"/><circle cx="755.008" cy="441.992" r="1.574"/><use xlink:href="#B" x="61.208" y="410.063"/><circle cx="750.149" cy="446.849" r="1.574"/><circle cx="750.149" cy="456.565" r="1.574"/><circle cx="759.867" cy="437.133" r="1.574"/><path d="M751.688 437.455l-2.1 1.144c.178.07.368.106.559.107.745 0 1.387-.522 1.54-1.251z"/><circle cx="750.149" cy="466.282" r="1.574"/><use xlink:href="#B" x="61.208" y="419.779"/><circle cx="759.867" cy="466.282" r="1.574"/><path d="M742.002 466.281a1.57 1.57 0 0 0-1.484-1.565q.324 1.464.7 2.914a1.57 1.57 0 0 0 .784-1.349z"/><circle cx="764.726" cy="451.708" r="1.574"/><circle cx="759.867" cy="446.849" r="1.574"/><path d="M764.725 469.567c-.734-.004-1.373.5-1.541 1.214s.18 1.45.839 1.773 1.454.148 1.916-.422l.346-.839c0-.051.015-.1.015-.151 0-.418-.166-.818-.461-1.113s-.696-.461-1.114-.461zm-24.3-21.144a1.57 1.57 0 0 0 .908-2.855c-.499.896-.898 1.844-1.188 2.827.092.018.186.027.28.028z"/><circle cx="764.726" cy="461.424" r="1.574"/><path d="M740.43 458.139a1.57 1.57 0 0 0 .78-2.935 1.57 1.57 0 0 0-1.897.254l.122 2.322c.28.232.632.359.995.359z"/><circle cx="764.726" cy="441.992" r="1.574"/><circle cx="759.867" cy="456.565" r="1.574"/><path d="M745.291 443.565a1.57 1.57 0 0 0 .917-2.848 28.1 28.1 0 0 0-2.386 1.829 1.57 1.57 0 0 0 1.469 1.019z"/><use xlink:href="#B" x="70.926" y="419.779"/><use xlink:href="#C" x="70.926" y="419.78"/><circle cx="774.444" cy="441.992" r="1.574"/><circle cx="789.02" cy="427.416" r="1.574"/><circle cx="789.02" cy="437.133" r="1.574"/><circle cx="784.162" cy="432.275" r="1.574"/><circle cx="784.162" cy="441.992" r="1.574"/><path d="M793.88 424.133a1.57 1.57 0 0 0 1.574-1.574c-.002-.176-.033-.351-.094-.517l-3.026.789a1.57 1.57 0 0 0 1.546 1.302z"/><circle cx="793.88" cy="432.275" r="1.574"/><circle cx="798.739" cy="427.416" r="1.574"/><path d="M777.848 455.966l.853-.855a1.58 1.58 0 0 0-.853.855zm4.956-5.041l.522-.546a1.59 1.59 0 0 0-.522.545zm-5.076-23.508c-.004.718.479 1.348 1.174 1.531s1.425-.129 1.775-.756.23-1.412-.291-1.907q-1.306.4-2.627.831c-.02.099-.03.199-.031.3z"/><circle cx="779.302" cy="437.133" r="1.574"/><circle cx="779.302" cy="446.849" r="1.574"/><path d="M764.726 433.849c.621.004 1.185-.36 1.439-.927s.148-1.23-.269-1.69q-1.386.523-2.743 1.06c.009.862.711 1.557 1.573 1.557zm-17.862 47.007c0-.418-.165-.818-.461-1.113s-.696-.461-1.113-.461a1.53 1.53 0 0 0-.182.019l1.142 2.793c.385-.295.612-.752.614-1.238zm16.288 0a1.57 1.57 0 0 0 .966 1.451 20.7 20.7 0 0 1 .044-2.914 1.57 1.57 0 0 0-1.01 1.463zm4.858-14.576a1.56 1.56 0 0 0 .365 1q.74-1.225 1.646-2.5c-.141-.044-.288-.067-.436-.069-.418 0-.818.165-1.114.461s-.461.696-.461 1.113z"/><circle cx="745.29" cy="471.141" r="1.574"/><circle cx="745.291" cy="461.424" r="1.574"/><circle cx="769.585" cy="446.849" r="1.574"/><circle cx="769.585" cy="437.133" r="1.574"/><path d="M772.902 461.108l1.048-1.171a1.57 1.57 0 0 0-1.048 1.171z"/><circle cx="745.29" cy="451.708" r="1.574"/><circle cx="774.444" cy="432.275" r="1.574"/><circle cx="774.444" cy="451.708" r="1.574"/><circle cx="769.585" cy="456.565" r="1.574"/><path d="M769.105 549.619h-.031a8.71 8.71 0 0 1-8.696-8.723 8.71 8.71 0 0 1 8.723-8.696h.028c4.808.021 8.692 3.93 8.683 8.738h0c.007 2.309-.909 4.525-2.544 6.156s-3.854 2.54-6.163 2.525zm0-10.943c-1.215.023-2.189 1.014-2.191 2.23s.968 2.21 2.183 2.237h.007c1.233.002 2.234-.997 2.236-2.23s-.997-2.234-2.23-2.236zm5.474 2.252zm-32.649-19.45a6.5 6.5 0 0 1-4.034-1.509 5.28 5.28 0 0 1-2-4.938c.263-1.928 1.529-3.572 3.326-4.318l13.921-5.733-3.928-15.352a2.43 2.43 0 0 1 1.76-2.923 2.43 2.43 0 0 1 2.945 1.723l4.974 19.439-17.821 7.34a.6.6 0 0 0-.363.479c-.037.169.029.344.169.446.763.593 1.143.49 1.269.458 3.649-.983 23.207-1.367 27.091-1.434a2.43 2.43 0 0 1 2.444 2.387 2.43 2.43 0 0 1-2.361 2.47c-8.76.151-23.542.628-25.912 1.266a5.66 5.66 0 0 1-1.478.2z"/><path d="M765.447 491.25h-.008l-17.981-.058-.674-1.321a120.46 120.46 0 0 1-7.488-19.14c-4.122-14.293-3.25-24.165 2.591-29.346 10.357-9.186 40.709-18.3 55.313-21.844a2.43 2.43 0 0 1 2.904 1.796 2.43 2.43 0 0 1-1.76 2.925c-16.5 4-44.29 12.825-53.233 20.757-8.491 7.528.448 31.216 5.343 41.325l15 .049a2.43 2.43 0 0 1 2.428 2.428 2.43 2.43 0 0 1-2.428 2.428z"/></g><g fill="#cc5ca6"><path d="M667.807 549.193a3.24 3.24 0 0 1-2.912-4.65l53.942-111.345c-.75-.978-.879-2.297-.333-3.402s1.671-1.804 2.903-1.804h.011l7.124.023-57.82 119.352a3.24 3.24 0 0 1-2.915 1.826zm34.825-114.787h-.01l-6.567-.02a9.72 9.72 0 0 1-9.7-9.73 9.72 9.72 0 0 1 9.73-9.7h.033l7.6.024a3.24 3.24 0 0 1 3.233 3.243 3.24 3.24 0 0 1-3.243 3.233h-.01l-7.6-.024h-.011a3.24 3.24 0 0 0-3.244 3.235 3.24 3.24 0 0 0 3.235 3.244l6.567.02a3.24 3.24 0 0 1 3.232 3.244 3.24 3.24 0 0 1-3.243 3.232z"/><path d="M776.246 460.782h-.012l-65.318-.25a3.24 3.24 0 0 1-3.232-3.244 3.24 3.24 0 0 1 3.244-3.232h.012l65.318.25a3.24 3.24 0 0 1 3.232 3.244 3.24 3.24 0 0 1-3.244 3.232z"/></g><path d="M768.738 561.811c-.966.005-1.932-.066-2.887-.213-10.798-1.701-18.471-11.42-17.62-22.317s9.94-19.308 20.87-19.312h.069a3.24 3.24 0 0 1 3.233 3.243 3.24 3.24 0 0 1-3.243 3.233h-.058a14.45 14.45 0 0 0-12.352 22.349 14.45 14.45 0 0 0 13.418 6.484l.115-.006 2.254-.095a3.24 3.24 0 0 1 3.032 4.743 3.24 3.24 0 0 1-2.761 1.727l-2.2.092c-.648.049-1.271.074-1.872.074z" class="B"/><path d="M769.032 543.238a3.24 3.24 0 0 1-2.653-1.376l-58.1-82.7a3.24 3.24 0 0 1 .804-4.489 3.24 3.24 0 0 1 4.496.768l58.1 82.7a3.24 3.24 0 0 1-2.647 5.1zm106.085 3.813a3.23 3.23 0 0 1-2.652-1.376l-51.588-73.39a3.24 3.24 0 0 1 .788-4.512 3.24 3.24 0 0 1 4.512.788l51.587 73.387c.695.988.783 2.282.226 3.354s-1.664 1.746-2.873 1.746z" fill="#cc5ca6"/><g class="B"><path d="M794.254 357.895l-4.528-1.76a.75.75 0 0 0-.061.187 7.9 7.9 0 0 0-.073-2.331c-.493-3.8-1.822-3.828-5.373-3.885-2.386-.037-5.355-.081-7.614-2.2-3.481-3.26-10.859-12.687-4.12-29.743.453-1.147 4.551-11.206 8.878-11.206a2.43 2.43 0 0 1 .517 4.8c-1.547 1.137-6.129 8.288-7.071 16.779-.735 6.638.986 11.957 5.116 15.822.891.834 2.5.86 4.372.89 3.4.053 9.082.143 10.115 8.115.308 1.501.254 3.053-.158 4.529zm-12.888-46.078zm28.443 48.911a2.43 2.43 0 0 1-1.9-.908c-1.852-2.383-3.176-5.134-3.882-8.069-.982-4.991 5.739-9.426 7.822-10.667a2.43 2.43 0 0 1 3.701 2.046 2.43 2.43 0 0 1-1.213 2.126c-2.942 1.76-5.739 4.565-5.543 5.558a16.55 16.55 0 0 0 2.9 5.966 2.43 2.43 0 0 1-1.892 3.949zm-8.134 173.385h-.014l-32.354-.1-.324-2.045c-.311-1.984-7.61-48.688-6.92-57.241.329-4.113 3.855-9.521 10.779-16.533 3.112-3.138 6.378-6.117 9.788-8.928 5.019-4.2 12.926-15.039 18.163-23.039a2.43 2.43 0 0 1 4.064 2.659c-1.962 2.995-12.1 18.243-19.139 24.128-7.062 5.728-18.377 16.765-18.808 22.1-.506 6.314 4.291 39.39 6.558 54.056l28 .09-4.474-35.928a12.91 12.91 0 0 1 4.636-11.631c2.753-2.259 6.353-5.087 10.165-8.082 11.612-9.12 26.064-20.47 31.294-27.15a2.43 2.43 0 0 1 3.825 2.994c-5.593 7.141-20.3 18.693-32.119 27.975l-10.082 8.014a8.07 8.07 0 0 0-2.9 7.274l4.5 36.132a4.68 4.68 0 0 1-4.636 5.255z"/><path d="M775.311 570.551h-1.249c-16.243-.041-16.367-.274-17.172-1.79l-.1-.19a4.37 4.37 0 0 1-1.141-3.686c.306-1.231 1.187-2.24 2.366-2.708 2.144-1.014 5.162-2.048 8.357-3.145 2.8-.96 5.7-1.954 7.685-2.847a12.3 12.3 0 0 0 1.619-.84c-.1-3.286-2.012-15.243-3.454-23.326a2.43 2.43 0 0 1 1.973-2.762 2.43 2.43 0 0 1 2.808 1.908c.644 3.605 3.836 21.76 3.5 25.237-.2 2.032-2.255 3.225-4.453 4.209s-5.2 2.016-8.1 3.012l-5.359 1.9c6.787.262 22.807.223 27.235-.108.923-3.99.3-19.946-.891-33.56a2.43 2.43 0 0 1 2.21-2.598 2.43 2.43 0 0 1 2.629 2.174c3.3 37.59.068 38.224-2.068 38.644-2.19.431-12.335.476-16.392.476zm-17.981-4.684l-.029.03zm-47.739-124.468h-.086c-1.555-.005-3.01-.767-3.9-2.041-2.792-3.924-.355-11.727-.069-12.6 1.968-6.016 37.483-23.777 40.28-24.85 4.2-1.608 13.573-9.611 16.832-12.559a2.43 2.43 0 0 1 4.06 1.265 2.43 2.43 0 0 1-.801 2.335c-1.268 1.147-12.554 11.268-18.352 13.491-2.492.955-11.32 5.46-20.006 10.395-12.386 7.042-16.758 10.537-17.433 11.542-1.167 3.634-1.184 7.127-.638 8.054a16.4 16.4 0 0 0 .907-1.384c2.152-3.522 5.755-9.416 18.857-9.9 6.6-.243 11.415-2.6 21.02-7.3l2.723-1.331c7.36-3.709 14.333-8.141 20.817-13.229a2.43 2.43 0 0 1 3.967 1.49 2.43 2.43 0 0 1-.907 2.282 127.18 127.18 0 0 1-21.751 13.819l-2.714 1.327c-9.9 4.845-15.349 7.513-22.977 7.794-10.5.386-13.034 4.543-14.9 7.577-1.038 1.706-2.332 3.822-4.937 3.822zm63.445-138.628l-.481 1.275a8.43 8.43 0 0 1 .481-1.275z"/><path d="M810.239 279.001c-18.1 0-31.637 9.981-37.181 23.706l-.022.066q-.261.629-.481 1.275a9.26 9.26 0 0 0 2.339 9.147c3.261 3.144 7.291 5.375 11.687 6.469a35.13 35.13 0 0 0 5.311.984c1.575.168 2.74 1.6 4.074.641 2.2-1.588 4.627-2.062 6.106-.816 3.468 2.929 1.275 5.406-1.632 10.126a8.06 8.06 0 0 0-.627 3.8c.029 3.759 1.159 9.179 3.68 12.829 3.024 4.378 8.671 5.362 11.614 5.027 14.017-1.587 30.558-16.486 30.558-34.925 0-20.367-15.053-38.332-35.425-38.332z"/></g><path d="M764.665 389.978a2.5 2.5 0 0 1-2.48-2.222c-.109-.973-2.48-23.928 13.481-32.177 11.036-5.468 17.997-16.742 17.941-29.058a2.5 2.5 0 0 1 2.48-2.521h.02a2.5 2.5 0 0 1 2.5 2.479c.07 14.218-7.956 27.238-20.689 33.564-12.852 6.643-10.786 26.957-10.765 27.161a2.5 2.5 0 0 1-2.21 2.758 2.6 2.6 0 0 1-.278.016z" class="D"/><path d="M838.296 450.987c-7.385.008-14.535-2.592-20.189-7.342l-3.913-3.231c-6.777-5.559-15.211-12.479-19.579-18.446-5.586-7.636-8.21-13.379-9.416-16.791l-6.13 4.733c-.534.414-1.216.587-1.883.478s-1.258-.49-1.632-1.053l-13.449-20.316a2.43 2.43 0 0 1-.067-2.574c.522-.886 12.969-21.788 28.537-29.266 9.78-4.7 20.893-1.9 25.663 1.592 3.425 2.509 7 7.541 11.135 13.368 5.1 7.186 10.883 15.33 17.816 20.911 8.311 6.693 21.546 12.52 28.7 15.4 2.364.95 4.141 2.96 4.794 5.422s.105 5.089-1.478 7.085l-15.982 20.141a31.38 31.38 0 0 1-22.917 9.891zm-49-48.94c.674 2.362 2.842 8.31 9.24 17.053 4 5.47 12.175 12.173 18.741 17.559l3.952 3.265c10.774 9.023 26.708 8.109 36.379-2.088l15.779-19.9a3.22 3.22 0 0 0-1.324-4.989c-9.038-3.639-21.569-9.39-29.928-16.121-7.456-6-13.445-14.438-18.729-21.882-3.892-5.482-7.254-10.218-10.044-12.26-3.682-2.7-12.8-4.921-20.687-1.133-12.17 5.845-22.75 21.496-25.665 26.076l11.151 16.841 11.889-9.076a44.36 44.36 0 0 0 7.31-6.638 2.43 2.43 0 0 1 3.781 3.049c-2.432 2.801-5.181 5.311-8.19 7.48l-3.658 2.759z" class="B"/></svg>