<svg xmlns="http://www.w3.org/2000/svg" width="1070" height="730"  xmlns:v="https://vecta.io/nano"><style><![CDATA[.B{fill:#231f20}.C{fill:#efefef}.D{fill:#49c5d9}.E{fill:#46d281}]]></style><path fill="#fff" d="M0 0h1069.996v730H0z"/><path d="M0 656.044h183.616v6H0zm548.7 3a3 3 0 0 0 3 3h237.7v-6H551.7a3 3 0 0 0-3 3zm297.576-3H1070v6H846.276zM319.636 339.37h-74.06a12.812 12.812 0 0 0-12.8 12.8v27.97a12.812 12.812 0 0 0 12.8 12.8h74.06a12.812 12.812 0 0 0 12.8-12.8v-27.97a12.812 12.812 0 0 0-12.8-12.8zm6.8 40.77a6.807 6.807 0 0 1-6.8 6.8h-74.06a6.807 6.807 0 0 1-6.8-6.8v-27.97a6.807 6.807 0 0 1 6.8-6.8h74.06a6.807 6.807 0 0 1 6.8 6.8zm192.04 66.27h-74.06a12.81 12.81 0 0 0-12.79 12.8v27.97a12.81 12.81 0 0 0 12.79 12.8h74.06a12.812 12.812 0 0 0 12.8-12.8v-27.97a12.812 12.812 0 0 0-12.8-12.8zm6.8 40.77a6.807 6.807 0 0 1-6.8 6.8h-74.06a6.8 6.8 0 0 1-6.79-6.8v-27.97a6.8 6.8 0 0 1 6.79-6.8h74.06a6.807 6.807 0 0 1 6.8 6.8zm-314.87 38.37h-74.06a12.81 12.81 0 0 0-12.8 12.79v27.98a12.812 12.812 0 0 0 12.8 12.8h56.68a67.984 67.984 0 0 1 3.85-6h-60.53a6.807 6.807 0 0 1-6.8-6.8v-27.98a6.8 6.8 0 0 1 6.8-6.79h74.06a6.8 6.8 0 0 1 6.8 6.79v15.96a66.666 66.666 0 0 1 6-3.25v-12.71a12.816 12.816 0 0 0-12.8-12.79zm8.54 42.82l-6.58 10.6a12.826 12.826 0 0 0 10.84-12.65v-2.09a12.211 12.211 0 0 0-4.26 4.14z" class="C"/><path d="M131.249 392.424a3 3 0 0 1-3-3v-44.837a4.033 4.033 0 0 0-4.028-4.028H80.968a3 3 0 0 1 0-6h43.253a10.04 10.04 0 0 1 10.028 10.028v44.837a3 3 0 0 1-3 3z" class="D"/><g class="B"><path d="M178.246 431.04h-20.04a14.768 14.768 0 0 0 2.95-8.87 3 3 0 0 0-3-3h-10.24v-79.4a18.1 18.1 0 0 0-18.08-18.09H0v6h129.836a12.1 12.1 0 0 1 12.08 12.09v79.4H0v6h154.636a8.877 8.877 0 0 1-8.33 5.84H0v6l178.246.026a3.08 3.08 0 1 1 0 6.16L0 443.177v6l178.246.023a9.08 9.08 0 1 0 0-18.16zM383.59 593.827a3 3 0 0 1-2.844-3.957l1.463-4.353a5.421 5.421 0 0 0-3.407-6.86l-21.234-7.139a5.412 5.412 0 0 0-6.859 3.407l-1.464 4.352a3 3 0 0 1-5.688-1.912l1.464-4.352a11.418 11.418 0 0 1 14.459-7.183l21.234 7.139a11.415 11.415 0 0 1 7.182 14.46l-1.463 4.353a3 3 0 0 1-2.843 2.045z"/><path d="M554.376 662.04a30.092 30.092 0 0 0-2.93-5.98l-.18-.29a30.552 30.552 0 0 0-19.04-13.29l-108.9-24.58a37.848 37.848 0 0 1-18.74-10.48 97.122 97.122 0 0 0-18.56-14.86q-2.535-1.575-5.18-2.97h-.01a96.149 96.149 0 0 0-29.78-10.05l-1.8-.3-5.86-.96-3.13-.52-22.92-16.87a118.149 118.149 0 0 0-54.72-21.97 74.588 74.588 0 0 0-39.42 5.54l-6 2.92a75.123 75.123 0 0 0-27.57 25.74l-3.43 6a75.071 75.071 0 0 0-6.97 20.5l-3.1 16.72a74.721 74.721 0 0 0 3.4 39.7q1.14 3.059 2.53 6a74.94 74.94 0 0 0 50.15 40.86 118.126 118.126 0 0 0 58.95-.88l27.46-7.53 10.7 2.21a96.178 96.178 0 0 0 59.97-6.84 37.7 37.7 0 0 1 21.25-3.06l110.47 16.1a30.74 30.74 0 0 0 33.36-40.86zm-14.35 30.44a24.611 24.611 0 0 1-18.14 4.49l-110.47-16.11a43.771 43.771 0 0 0-24.62 3.55 90.221 90.221 0 0 1-56.25 6.41l-12.12-2.5-28.84 7.91a112.016 112.016 0 0 1-55.96.84 69.01 69.01 0 0 1-51.59-79.64l3.1-16.71a68.954 68.954 0 0 1 7.89-21.6 67.984 67.984 0 0 1 3.85-6 69.105 69.105 0 0 1 20.33-18.82 66.666 66.666 0 0 1 6-3.25 68.747 68.747 0 0 1 38.65-6.18 112.079 112.079 0 0 1 51.93 20.85l24.09 17.73 12.21 2.01a90.186 90.186 0 0 1 50.21 26.15 43.636 43.636 0 0 0 21.71 12.14l108.9 24.579a24.752 24.752 0 0 1 9.12 44.151z"/></g><path d="M264.046,658.47a17.558,17.558,0,1,0-17.67,27.22v-.01a16.914,16.914,0,0,0,3.24.3,17.557,17.557,0,0,0,14.43-27.51Zm-3.1,12.06a11.565,11.565,0,0,1-13.48,9.26v-.01a11.556,11.556,0,0,1,2.09-22.92,11.877,11.877,0,0,1,2.13.19,11.565,11.565,0,0,1,9.26,13.48Z" fill="#ff8941"/><path d="M289.856 681.68l-14.23-64.67a3 3 0 0 0-3.58-2.29l-18.33 4.04a2.982 2.982 0 0 0-1.88 1.31 2.947 2.947 0 0 0-.4 2.259l6.77 30.8 5.62 25.57 1.83 8.31a3 3 0 0 0 2.93 2.35 2.934 2.934 0 0 0 .65-.07l18.33-4.03a2.993 2.993 0 0 0 1.88-1.31 3.03 3.03 0 0 0 .41-2.269zm-18.98 1.11l-12.94-58.82 12.47-2.74 12.94 58.81z" class="E"/><path d="M240.026,581.45a12.394,12.394,0,0,0-16.82-17.22,12.211,12.211,0,0,0-4.26,4.14l-6.58,10.6-9.33,15.04a12.4,12.4,0,0,0,10.52,18.94,12.416,12.416,0,0,0,10.56-5.86l.73-1.19a6.142,6.142,0,0,1,4.89-3.01,10.207,10.207,0,0,0,9.03-14.54,6.109,6.109,0,0,1,.52-5.71Zm-5.1-3.17-.74,1.19a11.99,11.99,0,0,0-.85,11.42,4.222,4.222,0,0,1-3.73,6.01,11.4,11.4,0,0,0-5.58,1.61,12.57,12.57,0,0,0-4.27,4.22l-.74,1.19a6.4,6.4,0,0,1-11.68-1.91,6.331,6.331,0,0,1,.8-4.84l15.91-25.64a6.412,6.412,0,0,1,5.45-3.03,6.4,6.4,0,0,1,5.43,9.78Z" class="D"/><path d="M220.876 133.14c1.39-5.85 4.6-19.89 7.03-34.12 5.97-34.93 2.38-41.5-1.92-43.31-9.46-3.98-19.54 10.69-24.96 20.34-7.46-33.88-15.2-38.1-20.57-38.1a8.88 8.88 0 0 0-7.97 4.12c-5.4 8.52 1.75 29.09 6.7 41.02-4-1.57-8.91-2.67-13.27-1.31a12.546 12.546 0 0 0-7.98 7.94c-4.82 12.53 11.72 33.21 20.02 42.5h-1.1a2.761 2.761 0 0 0-.57.06 21.119 21.119 0 0 0-17.1 20.56v.25c0 28.489 9.21 52.38 22.67 62.76a23.68 23.68 0 0 0 30.49 0c13.46-10.38 22.67-34.271 22.67-62.76v-.16a21.061 21.061 0 0 0-14.14-19.79zm2.72-71.93c.17.14 4.16 3.66-1.79 37.92-2.46 14.11-5.63 27.85-6.89 33.13l-5.43-.01c-.34-3.421-1.01-9.89-2.04-17.86s-2.39-17.44-4.12-26.87l-.39-2.12c5.47-11.53 15.68-26.28 20.664-24.19zm-60.55 33.59a8.083 8.083 0 0 1 .49-2.93 6.609 6.609 0 0 1 4.15-4.36c5.15-1.61 13.3 2.819 16 4.66a3 3 0 0 0 4.41-3.75 195.38 195.38 0 0 1-7.51-18.88c-5.72-17.2-4.03-22.69-3.03-24.26.41-.66 1.09-1.33 2.9-1.33 1.46 0 9.18 2.15 16.96 44.61 3.33 18.15 5.32 36.5 6.04 43.69l-17.3-.02c-9.65-9.91-23.11-27.49-23.11-37.43zm65.97 58.29c0 33.78-14.61 62.32-31.92 62.32s-31.91-28.54-31.91-62.32v-.2a15.123 15.123 0 0 1 11.98-14.67l39.82.04a15.1 15.1 0 0 1 12.03 14.67zm203.3-97.77h-55.16a3 3 0 0 0-3 3v47.57a3 3 0 0 0 3 3h55.16a12.812 12.812 0 0 0 12.8-12.8V68.11a12.81 12.81 0 0 0-12.8-12.79zm6.8 40.77a6.807 6.807 0 0 1-6.8 6.8h-52.16V61.32h52.16a6.8 6.8 0 0 1 6.8 6.79z" class="C"/><path d="M314.936 51.29A16.765 16.765 0 1 0 331.7 68.06a16.785 16.785 0 0 0-16.764-16.77zm0 27.53A10.765 10.765 0 1 1 325.7 68.06a10.778 10.778 0 0 1-10.764 10.76z" class="B"/><path d="M364.748 95.218a3 3 0 0 1-3-3V51.983c0-.29-.6-.846-1.544-.846h-21.211a3 3 0 0 1 0-6H360.2c4.16 0 7.544 3.071 7.544 6.846v40.235a3 3 0 0 1-2.996 3z" class="E"/><path d="M366.136 32.81h-102.41A13.956 13.956 0 0 0 249.8 46.75v149.42a13.946 13.946 0 0 0 9.29 13.14v1.43a10.525 10.525 0 0 0 1.31 5.11 10.646 10.646 0 0 0 18.7-.01 10.515 10.515 0 0 0 1.31-5.1v-.63h69.06v.63a10.655 10.655 0 0 0 21.31 0v-1.43a13.954 13.954 0 0 0 9.3-13.14V46.75a13.964 13.964 0 0 0-13.944-13.94zm-101.05 177.93v-.63h9.32v.63a4.66 4.66 0 0 1-9.32 0zm45.12-6.63a4.985 4.985 0 0 1 9.46 0zm45.26 6.63v-.63h9.31v.63a4.655 4.655 0 1 1-9.31 0zm18.61-14.57a7.947 7.947 0 0 1-7.94 7.94h-40.32a11 11 0 0 0-21.77 0h-40.32a7.944 7.944 0 0 1-7.93-7.94V46.75a7.944 7.944 0 0 1 7.93-7.94h102.41a7.947 7.947 0 0 1 7.94 7.94z" class="B"/><circle cx="314.932" cy="68.057" r="5.017" class="D"/><g class="B"><path d="M314.936 60.04a8.015 8.015 0 1 0 8.01 8.02 8.032 8.032 0 0 0-8.01-8.02zm0 10.03a2.015 2.015 0 1 1 2.01-2.01 2.012 2.012 0 0 1-2.01 2.01zm0 27.85a37.1 37.1 0 1 0 37.09 37.1 37.138 37.138 0 0 0-37.09-37.1zm0 68.19a31.1 31.1 0 1 1 31.09-31.09 31.131 31.131 0 0 1-31.09 31.09zm0-52.88a21.79 21.79 0 1 0 21.79 21.79 21.808 21.808 0 0 0-21.79-21.79zm0 37.58a15.79 15.79 0 1 1 15.79-15.79 15.81 15.81 0 0 1-15.79 15.79z"/><circle cx="280.637" cy="103.643" r="2.722"/><circle cx="348.83" cy="103.643" r="2.722"/><circle cx="280.637" cy="166.392" r="2.722"/><circle cx="348.83" cy="166.392" r="2.722"/></g><path d="M303.647 138.017a3 3 0 0 1-3-3 14.3 14.3 0 0 1 14.285-14.285 3 3 0 0 1 0 6 8.3 8.3 0 0 0-8.285 8.285 3 3 0 0 1-3 3z" fill="#ff8941"/><path d="M379.546,215.829h-28.79l-71.66.011-18.7.01h-78.54l-39.74.01a9.08,9.08,0,1,0,0,18.16l237.43-.03a9.081,9.081,0,0,0,0-18.161Zm0,12.161-237.43.03a3.08,3.08,0,1,1,0-6.16l237.43-.031a3.081,3.081,0,0,1,0,6.161Z" class="B"/><path d="M16.686 24.5H0v6h16.686a6.807 6.807 0 0 1 6.8 6.8v27.98a6.814 6.814 0 0 1-6.8 6.8H0v6h16.686a12.818 12.818 0 0 0 12.8-12.8V37.3a12.812 12.812 0 0 0-12.8-12.8zm774.63-15.171h-74.06a12.811 12.811 0 0 0-12.79 12.8V50.1a12.81 12.81 0 0 0 12.79 12.8H777.5v-6h-60.24a6.8 6.8 0 0 1-6.79-6.8V22.13a6.806 6.806 0 0 1 6.79-6.8h74.06a6.808 6.808 0 0 1 6.8 6.8v18.11h6V22.13a12.813 12.813 0 0 0-12.804-12.801zm-8.53 49.9V62.9h6v-3.67a6.684 6.684 0 0 1 .42-2.33h-6.2a11.956 11.956 0 0 0-.22 2.33zm15.33-12.83v3.7a6.512 6.512 0 0 1-.41 2.3h6.2a12.533 12.533 0 0 0 .21-2.3V46.4zM553.5 197.53h-74.06a12.825 12.825 0 0 0-12.8 12.8v27.98a12.818 12.818 0 0 0 12.8 12.8h74.06a12.826 12.826 0 0 0 12.8-12.8v-27.981a12.818 12.818 0 0 0-12.8-12.799zm6.8 40.78a6.807 6.807 0 0 1-6.8 6.8h-74.06a6.814 6.814 0 0 1-6.8-6.8v-27.981a6.813 6.813 0 0 1 6.8-6.8h74.06a6.806 6.806 0 0 1 6.8 6.8z" class="C"/><path d="M576.176 213.66a7.854 7.854 0 1 0 7.85 7.85 7.855 7.855 0 0 0-7.85-7.85zm0 9.7a1.85 1.85 0 1 1 1.85-1.85 1.844 1.844 0 0 1-1.85 1.85z" fill="#f6f6f6"/><path d="M576.206,395.45h-.08a19.95,19.95,0,0,0-.07,39.9h.07a19.95,19.95,0,0,0,.08-39.9Zm-.08,33.9h-.05a13.95,13.95,0,0,1,.05-27.9h.05a13.95,13.95,0,0,1-.05,27.9Z" class="B"/><path d="M567.12 418.362h-.011a3 3 0 0 1-2.989-3.011 12.023 12.023 0 0 1 12.009-11.965h.045a11.925 11.925 0 0 1 4.672.962 3 3 0 1 1-2.358 5.518 5.952 5.952 0 0 0-2.335-.48h-.022a6.009 6.009 0 0 0-6.011 5.986 3 3 0 0 1-3 2.99z" class="D"/><g class="B"><path d="M567.626 438.23a1.64 1.64 0 0 0-.14-.39 1.343 1.343 0 0 0-.14-.261 2.917 2.917 0 0 0-.24-.369c-.04-.06-.09-.11-.13-.16a.809.809 0 0 0-.16-.16.457.457 0 0 0-.07-.07 2.512 2.512 0 0 0-.32-.25 2.881 2.881 0 0 0-.38-.22 23.36 23.36 0 0 1-13.16-21.04l.02-.92a.274.274 0 0 1 .01-.09 3.447 3.447 0 0 1 .03-.46l.07-.87.11-.91.04-.29c.01-.1.03-.18.05-.28l.13-.73.03-.12.03-.14.17-.75.29-1.07.34-1.05.4-1.04a19.036 19.036 0 0 1 .93-2l.54-.97.59-.95.63-.91v-.01c.02-.03.04-.04.06-.07l.01-.01.39-.51.47-.57a2.434 2.434 0 0 1 .2-.25l.12-.15c.06-.06.11-.12.16-.18l.55-.58c.02-.03.04-.05.06-.08.05-.06.11-.11.16-.17a3 3 0 0 0-2.13-5.1h-1.23l-28.37-.109-3-.01h-.01a3.069 3.069 0 0 0-2.12.869 3.019 3.019 0 0 0-.88 2.121v.02l-.14 36.2a8.734 8.734 0 0 0 8.69 8.75l33.79.13h.67a2.854 2.854 0 0 0 .82-.12 2.313 2.313 0 0 0 .37-.13 2.8 2.8 0 0 0 .68-.41l.11-.09a2.07 2.07 0 0 0 .21-.21.9.9 0 0 0 .09-.1.01.01 0 0 0 .01-.01 2.349 2.349 0 0 0 .19-.25 2.883 2.883 0 0 0 .22-.38 2.485 2.485 0 0 0 .19-.521l.03-.109a2.026 2.026 0 0 0 .06-.34 2.966 2.966 0 0 0-.1-1.151zm-37.32-2.31a2.723 2.723 0 0 1-2.71-2.73l.13-33.22 23.49.09-.17.29-.82 1.44-.32.63c-.01.01-.01.03-.02.04l-.22.47c-.05.09-.09.18-.13.27l-.31.71a1.008 1.008 0 0 0-.07.15l-.9 2.44-.22.73q-.3 1-.51 2.04l-.18.92-.29 2.05-.08.85-.05.89-.03.55-.01.75v.13l.02.78.02.56a2.449 2.449 0 0 0 .01.27l.1 1.27v.01l.18 1.43.22 1.25c0 .03.01.05.01.08 0 .01.01.03.01.04q.15.735.33 1.47l.39 1.36.45 1.35.44 1.16.12.28.23.53.24.52c0 .01.01.02.01.03l.7 1.4.63 1.11.14.22.56.89.32.48.38.55.34.46c.01.01.02.03.03.04s.02.03.03.04.03.03.04.05l.46.6.02.02c.01.02.03.03.04.05l.01.01 1.13 1.33.91.96zm97.37-41.58l-3-.011-28.38-.109h-1.23a3 3 0 0 0-2.17 5.08 23.11 23.11 0 0 1 6.48 16.18 23.343 23.343 0 0 1-13.32 20.94 2.354 2.354 0 0 0-.38.22 2.7 2.7 0 0 0-.64.57 2.844 2.844 0 0 0-.44.7 3.045 3.045 0 0 0-.2.65.019.019 0 0 0 0 .03.566.566 0 0 0-.03.18 2.766 2.766 0 0 0 .14 1.33 1.662 1.662 0 0 0 .12.31 2.457 2.457 0 0 0 .22.39 4.077 4.077 0 0 0 .25.33 3 3 0 0 0 .32.3 2.128 2.128 0 0 0 .34.25 3.021 3.021 0 0 0 1.58.45h.64l33.8.13h.03a8.723 8.723 0 0 0 8.73-8.69l.13-36.22v-.021a3 3 0 0 0-2.99-2.989zm-3.14 39.21a2.731 2.731 0 0 1-2.73 2.71h-.01l-25.1-.09c.02-.02.03-.04.04-.05a.167.167 0 0 1 .04-.041l.14-.139.77-.81.94-1.08.88-1.12.83-1.16.32-.49a2.153 2.153 0 0 0 .13-.19l.17-.27a.076.076 0 0 1 .02-.04c.02-.04.05-.07.07-.11l.11-.19.66-1.151.6-1.179.11-.21.46-1.02.01-.04 1.05-2.84.02-.04.02-.06.35-1.25.3-1.26.03-.12.01-.07c0-.02.01-.03.01-.05l.2-1.111.07-.419.16-1.24.05-.57.04-.5a.173.173 0 0 0 .01-.07c0-.05.01-.09.01-.14l.01-.311.03-.559.01-.77-.02-1.16-.05-.87-.08-1.1-.16-1.28a1.684 1.684 0 0 0-.04-.22l-.19-1.08-.12-.6-.13-.59-.04-.16-.23-.87a1.2 1.2 0 0 0-.05-.18l-.16-.55c0-.02-.01-.03-.02-.05a7.458 7.458 0 0 0-.26-.8.186.186 0 0 0-.02-.07 3 3 0 0 0-.11-.32l-.21-.57-.22-.56-.23-.55-.24-.55a3.743 3.743 0 0 0-.16-.35l-.17-.35-.34-.7-.01-.01-.64-1.18-.11-.19-.21-.35 23.5.089z"/><path d="M587.34 442.132a3 3 0 0 1-1.283-5.714 23.355 23.355 0 0 0 13.319-20.939A23.092 23.092 0 0 0 592.9 399.3a3 3 0 0 1 2.162-5.08h.011l29.606.11.08-21.395a2.728 2.728 0 0 0-2.715-2.736l-16.007-.059a9.473 9.473 0 0 1-5.923-2.118l-5.577-4.56-36.43-.135-5.6 4.514a9.48 9.48 0 0 1-5.919 2.079h-.032l-16.007-.059a2.521 2.521 0 0 0-1.923.79 2.709 2.709 0 0 0-.8 1.925l-.079 21.395 29.6.11a3 3 0 0 1 2.135 5.1 23.089 23.089 0 0 0-6.595 16.127 23.357 23.357 0 0 0 13.164 21.039 3 3 0 0 1-2.6 5.406 29.387 29.387 0 0 1-16.562-26.466 29.065 29.065 0 0 1 4.333-15.224l-26.492-.1a3 3 0 0 1-2.99-3.01l.09-24.4a8.731 8.731 0 0 1 8.717-8.693h.032l16.007.059h.012a3.451 3.451 0 0 0 2.157-.755l6.422-5.177a3 3 0 0 1 1.883-.664h.01l38.559.142a3 3 0 0 1 1.888.678l6.4 5.229a3.44 3.44 0 0 0 2.152.767l16.006.059a8.735 8.735 0 0 1 8.694 8.757l-.091 24.4a3 3 0 0 1-3 2.989h-.011l-26.5-.1a29.068 29.068 0 0 1 4.221 15.255 29.387 29.387 0 0 1-16.758 26.344 2.991 2.991 0 0 1-1.29.289z"/></g><path d="M614.236 373.94l-5.56-.02h-.02a6.3 6.3 0 0 0-6.29 6.27l-.01 1.92a6.3 6.3 0 0 0 6.27 6.32l5.56.02h.02a6.306 6.306 0 0 0 6.3-6.27l.01-1.92a6.312 6.312 0 0 0-6.28-6.32zm.27 8.21a.288.288 0 0 1-.09.21.346.346 0 0 1-.21.09l-5.56-.02a.3.3 0 0 1-.29-.3l.01-1.91a.278.278 0 0 1 .08-.21.288.288 0 0 1 .21-.09l5.56.02a.307.307 0 0 1 .3.3z" fill="#fdf14c"/><g class="B"><path d="M592.313 371.748h-.01l-32.149-.119a3 3 0 0 1 .011-6h.011l32.148.119a3 3 0 0 1-.011 6zm-48.885-5.083h-.011l-12.042-.044a3 3 0 0 1 .011-6h.01l12.042.044a3 3 0 0 1-.01 6z"/><path d="M557.3 401.75v.01a.01.01 0 0 0 .01-.01zm1.41-1.74l-.16.18-.12.15a2.434 2.434 0 0 0-.2.25l.8-.9c.08-.08.15-.17.23-.26l-.554.58zm-1.41 1.75a.01.01 0 0 0 .01-.01h-.01zm48.06 12.58l-.05-.87-.08-1.1-.16-1.28a1.684 1.684 0 0 0-.04-.22l-.19-1.08-.12-.6-.13-.59-.04-.16-.23-.87a1.2 1.2 0 0 0-.05-.18l-.16-.55c0-.02-.01-.03-.02-.05a7.458 7.458 0 0 0-.26-.8.186.186 0 0 0-.02-.07 3 3 0 0 0-.11-.32l-.21-.57-.22-.56-.23-.55-.24-.55a3.743 3.743 0 0 0-.16-.35l-.17-.35-.34-.7-.01-.01-.64-1.18-.11-.19-.21-.35a30.477 30.477 0 0 0-3.93-5.09q-.45-.481-.93-.93a28.9 28.9 0 0 0-20.06-8.07h-.11a28.915 28.915 0 0 0-20 7.929h-.01l-.93.911a28.666 28.666 0 0 0-4.14 5.36l-.82 1.44-.32.63c-.01.01-.01.03-.02.04l-.22.47c-.05.09-.09.18-.13.27l-.31.71a1.008 1.008 0 0 0-.07.15l-.9 2.44-.22.73q-.3 1-.51 2.04l-.18.92-.29 2.05-.08.85-.05.89-.03.55-.01.75v.13l.02.78.02.56a2.449 2.449 0 0 0 .01.27l.1 1.27v.01l.18 1.43.22 1.25c0 .03.01.05.01.08 0 .01.01.03.01.04q.15.735.33 1.47l.39 1.36.45 1.35.44 1.16.12.28.23.53.24.52c0 .01.01.02.01.03l.7 1.4.63 1.11.14.22.56.89.32.48.38.55.34.46c.01.01.02.03.03.04s.02.03.03.04.03.03.04.05l.46.6.02.02c.01.02.03.03.04.05l.01.01 1.13 1.33.91.96.69.68c.06.06.12.11.18.16l.58.52a.466.466 0 0 1 .07.07l.46.389.79.651.98.73 1.15.78a.01.01 0 0 1 .01.01l.92.56.41.24.42.23a.915.915 0 0 0 .13.08l.32.17.93.47.63.3a29.118 29.118 0 0 0 11.95 2.59h.11a28.8 28.8 0 0 0 11.84-2.51l.64-.29 1.16-.58 1.03-.57.22-.14.86-.52.15-.1.87-.59q.6-.42 1.17-.87l1.12-.92.41-.36.4-.37.44-.41.25-.24c.02-.02.03-.04.04-.05a.167.167 0 0 1 .04-.041l.14-.139.77-.81.94-1.08.88-1.12.83-1.16.32-.49a2.153 2.153 0 0 0 .13-.19l.17-.27a.076.076 0 0 1 .02-.04c.02-.04.05-.07.07-.11l.11-.19.66-1.151.6-1.179.11-.21.46-1.02.01-.04 1.05-2.84.02-.04.02-.06.35-1.25.3-1.26.03-.12.01-.07c0-.02.01-.03.01-.05l.2-1.111.07-.419.16-1.24.05-.57.04-.5a.173.173 0 0 0 .01-.07c0-.05.01-.09.01-.14l.01-.311.03-.559.01-.77-.024-1.16zm-19.3 22.08a22.7 22.7 0 0 1-10.01 2.22 23 23 0 0 1-10-2.29 23.36 23.36 0 0 1-13.16-21.04l.02-.92a.274.274 0 0 1 .01-.09 3.447 3.447 0 0 1 .03-.46l.07-.87.11-.91.04-.29c.01-.1.03-.18.05-.28l.13-.73.03-.12.03-.14.17-.75.29-1.07.34-1.05.4-1.04a19.036 19.036 0 0 1 .93-2l.54-.97.59-.95.63-.91a.01.01 0 0 0 .01-.01l.05-.07.01-.01.39-.51.47-.57.8-.9c.08-.08.15-.17.23-.26l.23-.25a22.99 22.99 0 0 1 16.64-7.03h.09a23.257 23.257 0 0 1 23.16 23.33 23.343 23.343 0 0 1-13.324 20.94zm-28.76-34.67v.01a.01.01 0 0 0 .01-.01zm1.41-1.74l-.16.18-.12.15a2.434 2.434 0 0 0-.2.25l.8-.9c.08-.08.15-.17.23-.26l-.554.58zm-1.41 1.74v.01a.01.01 0 0 0 .01-.01zm47.506-33.23a3 3 0 0 1-2.96-2.543l-22.439-145.612a3.157 3.157 0 0 0-3.242-2.781h0a3.156 3.156 0 0 0-3.238 2.786l-22.169 145.6a3 3 0 0 1-5.932-.9l22.169-145.6a9.117 9.117 0 0 1 9.164-7.883h.01a9.119 9.119 0 0 1 9.17 7.867l22.438 145.612a3 3 0 0 1-2.969 3.457zM932.01 265.67h-12.136a3 3 0 0 1 0-6h12.136a13.957 13.957 0 0 0 13.94-13.94 3 3 0 1 1 6 0 19.963 19.963 0 0 1-19.94 19.94z"/><path d="M951.946 54.18v175.73a3 3 0 0 1-6 0V54.18a13.958 13.958 0 0 0-13.94-13.94h-140.57A13.964 13.964 0 0 0 777.5 54.18v191.55a13.958 13.958 0 0 0 13.94 13.94h128.44a3 3 0 0 1 0 6H791.436a19.963 19.963 0 0 1-19.94-19.94V54.18a19.969 19.969 0 0 1 19.94-19.94h140.57a19.963 19.963 0 0 1 19.94 19.94zm-95.005 113.074a2.986 2.986 0 0 1-2.1-.855 27.651 27.651 0 0 1-6.5-10.1c-6.531-19.463-3.22-30.8-3.077-31.269a3.001 3.001 0 0 1 5.741 1.748c-.025.083-2.833 10.156 3.023 27.613a21.9 21.9 0 0 0 5.005 7.718 3 3 0 0 1-2.1 5.144z"/><path d="M866.357 171.551a14.388 14.388 0 0 1-3.5-.437 3 3 0 0 1 1.455-5.821c6.031 1.509 11.938-4.523 15.828-9.849 19.09-26.147 22.41-44.562 12.685-70.369-3.775-10.02-12.225-16.654-23.185-18.2a3 3 0 1 1 .839-5.941c13.2 1.865 23.389 9.894 27.961 22.028 10.435 27.694 6.788 48.3-13.455 76.024-6.104 8.353-12.354 12.565-18.628 12.565zm-18.215-42.645a3.011 3.011 0 0 1-.741-.094l-12.013-3.056a10.869 10.869 0 0 1-8.177-11.305c.714-10.106 3.079-28.872 10.889-41.019 4.389-6.823 12.458-11.415 22.139-12.6a3 3 0 0 1 .729 5.955c-7.789.953-14.451 4.649-17.821 9.889-7.089 11.023-9.277 28.661-9.952 38.195a4.877 4.877 0 0 0 3.671 5.069L848.88 123a3 3 0 0 1-.738 5.909z"/></g><path d="M861.115 140.571a22.479 22.479 0 0 1-6.27-.889 3 3 0 0 1 1.673-5.762 16.572 16.572 0 0 0 10.854-.571l.23-.1a3 3 0 0 1 2.28 5.551l-.236.1a22.588 22.588 0 0 1-8.531 1.671z" fill="#cc5ca6"/><path d="M859.756 163.04a2.925 2.925 0 0 0-.87-1.09c-.01 0-.01 0-.02-.01l-.02-.02-.02-.02a3.111 3.111 0 0 0-2.35-.61 2.987 2.987 0 0 0-2.13 1.47l-1.59 1.33-1.1.9c-8.43 6.89-28.18 23.05-36.02 39.589-6.59 13.9-9.65 23.241-8.62 26.291a3 3 0 0 0 5.79-1.5c0-.59.25-5.35 8.25-22.22 7.27-15.33 26.98-31.45 34.4-37.52l2.64-2.19c.92-.79 2.62-2.25 1.66-4.4z" class="E"/><path d="M852.124 119.22a3 3 0 0 1-2.9-3.787l11.46-42.2a3 3 0 0 1 5.791 1.572L855.017 117a3 3 0 0 1-2.893 2.22z" fill="#ffff7b"/><path d="M910.077,115.13a3,3,0,0,1-1.039-.186l-33.4-12.326a3,3,0,1,1,2.078-5.629l33.4,12.326a3,3,0,0,1-1.039,5.815Z" class="D"/><path d="M922.333 238.376a3 3 0 0 1-3-2.97 125.528 125.528 0 0 0-30.554-80.877 3 3 0 1 1 4.539-3.924 131.535 131.535 0 0 1 32.015 84.742 3 3 0 0 1-2.971 3.029zM818.946 49.4a3 3 0 0 1-3 3h-20.32a6.824 6.824 0 0 0-6.42 4.5 6.684 6.684 0 0 0-.42 2.33v21.32a3 3 0 0 1-6 0V59.23a11.956 11.956 0 0 1 .22-2.33 12.842 12.842 0 0 1 12.62-10.5h20.32a3 3 0 0 1 3 3z" class="B"/><path d="M986.216 419.56v12.58a12.773 12.773 0 0 0 5.48-10.48v-26.11a55.061 55.061 0 0 0-5.48 24.01zm-5.04-38.47a12.241 12.241 0 0 0-2.28-.21h-74.05a12.812 12.812 0 0 0-12.8 12.8v27.98a12.81 12.81 0 0 0 12.8 12.79h72.66v-6h-72.66a6.8 6.8 0 0 1-6.8-6.79v-27.98a6.807 6.807 0 0 1 6.8-6.8H978.9a6.813 6.813 0 0 1 4.89 2.07 61.226 61.226 0 0 1 2.92-5.41 12.6 12.6 0 0 0-5.534-2.45z" class="C"/><g class="B"><path d="M848.576 593.53a13.336 13.336 0 0 0-9.39-4.17l-19.17-.47-6.02-.15-13.5-.33a13.4 13.4 0 0 0-13.74 13.09l-.35 14.01-1.35 40.53-.2 6-1 29.83-.34 10.69a10.828 10.828 0 0 0 10.47 11.17l44.71 1.43.36.01a10.818 10.818 0 0 0 10.81-10.57l1.02-42.56.14-6 .62-25.65.63-27.28a13.365 13.365 0 0 0-3.7-9.58zm-2.93 36.72l-1.77 74.2a4.816 4.816 0 0 1-4.99 4.71l-44.7-1.43a4.833 4.833 0 0 1-4.68-4.98l.35-10.68 2.55-76.38.24-9.7.11-4.34a6.907 6.907 0 0 1 .23-1.65 7.428 7.428 0 0 1 7.18-5.59h.19l38.68.95a7.444 7.444 0 0 1 7.1 5.95 7.6 7.6 0 0 1 .14 1.66l-.1 4.33z"/><path d="M848.922,607.374h-.075l-58.883-1.449a3,3,0,0,1,.073-6h.075l58.883,1.449a3,3,0,0,1-.073,6Z"/></g><g fill="#fdf14c"><path d="M810.818,674.612l12.565-12.628-12.089-.959,11.195-8.742,7.306-5.7H806.473v5.207h11.66l-10.066,10.862,10.066,1.713Z"/><path d="M832.636 645.6a3.007 3.007 0 0 0-2.84-2.021h-23.32a3 3 0 0 0-3 3v5.211a3 3 0 0 0 3 3h4.79l-5.4 5.82a3 3 0 0 0 1.7 5l5.34.91-4.53 6.35a3 3 0 0 0 4.57 3.86l12.56-12.63a3 3 0 0 0-1.89-5.11l-4.4-.35 12.43-9.7a3.021 3.021 0 0 0 .99-3.34zm-12.09 4.4a3.893 3.893 0 0 0-.38-.421h.91z"/></g><path d="M738.526 556.07h-41.44a9.007 9.007 0 0 0-9 9v41.45a9.007 9.007 0 0 0 9 9h41.44a9.014 9.014 0 0 0 9-9v-41.45a9.014 9.014 0 0 0-9-9zm3 50.45a3 3 0 0 1-3 3h-41.44a3 3 0 0 1-3-3v-41.45a3 3 0 0 1 3-3h41.44a3 3 0 0 1 3 3z" class="C"/><g class="B"><path d="M727.076,577.2h-16.56a8.6,8.6,0,0,0,0,17.21h16.56a8.6,8.6,0,0,0,0-17.21Zm0,11.21h-16.56a2.6,2.6,0,0,1,0-5.21h16.56a2.6,2.6,0,0,1,0,5.21Z"/><path d="M744.574 693.162a28.809 28.809 0 0 1-28.774-28.776v-72.179a3 3 0 0 1 6 0v72.179a22.777 22.777 0 0 0 45.513 1.36l4.608-77.066a24.089 24.089 0 0 1 48.1 2.693l-.009.188a3 3 0 1 1-5.993-.309l.01-.189a18.09 18.09 0 0 0-17.276-19.017l-.785-.016a18.174 18.174 0 0 0-18.059 17.007L773.3 666.1a28.814 28.814 0 0 1-28.726 27.062z"/></g><path d="M1053.492 371.53a15.538 15.538 0 0 0-23.61-.01h-.01a15.574 15.574 0 1 0 23.62.01zm-11.81 19.71a9.575 9.575 0 1 1 9.57-9.58 9.585 9.585 0 0 1-9.57 9.58z" class="C"/><path d="M1016.371 480.25a3 3 0 0 1-3-3v-45.018a3 3 0 0 1 6 0v45.018a3 3 0 0 1-3 3zm50.629 0a3 3 0 0 1-3-3v-45.018a3 3 0 0 1 6 0v45.018a3 3 0 0 1-3 3z" class="D"/><path d="M1069.992 359.03v-6.62a70.11 70.11 0 0 0-88.82 28.68q-1.665 2.82-3.05 5.79a69.637 69.637 0 0 0-6.62 29.73v39.259a11.083 11.083 0 0 0 11.05 11.051h4.28a30.468 30.468 0 0 0 29.54 23.15h9.64a9.58 9.58 0 0 0 9.58-9.58v-41.68a9.609 9.609 0 0 0-9.581-9.58h-9.639a30.4 30.4 0 0 0-24.16 11.96v-21.63a49.556 49.556 0 0 1 37.66-48.04h.01a48.777 48.777 0 0 1 11.8-1.43 51.559 51.559 0 0 1 11.81 1.44 41.461 41.461 0 0 1 16.49 7.493.006.006 0 0 0 .01-.005v-7.128a55.278 55.278 0 0 0-62.32 3.9l-6.69-8.77a65.177 65.177 0 0 1 40.7-14.59c13.801-.195 21.606 3.256 28.31 6.6zm-56.62 76.38a24.664 24.664 0 0 1 3-.18h9.64a3.583 3.583 0 0 1 3.58 3.58v41.69a3.574 3.574 0 0 1-3.58 3.57h-9.64a24.45 24.45 0 0 1-24.16-20.85v-7.13a24.484 24.484 0 0 1 21.16-20.68zm-10.24-55.68a55.838 55.838 0 0 0-11.44 15.82 55.061 55.061 0 0 0-5.48 24.01v36.16a30.05 30.05 0 0 0-.26 3.93c0 .429.01.85.03 1.27h-3.43a5.062 5.062 0 0 1-5.05-5.05v-39.26a63.637 63.637 0 0 1 6.28-27.66 61.227 61.227 0 0 1 2.92-5.41 64.563 64.563 0 0 1 9.82-12.48zM1070 483.868a24.531 24.531 0 0 1-3 .206h-9.645a3.58 3.58 0 0 1-3.576-3.576v-41.691a3.58 3.58 0 0 1 3.576-3.575H1067a24.338 24.338 0 0 1 3 .206v-6.047l-3-.159h-9.645a9.587 9.587 0 0 0-9.576 9.575V480.5a9.587 9.587 0 0 0 9.576 9.576H1067c1.013 0 2.013-.056 3-.153z" class="B"/><path d="M1009.374 370.063a3 3 0 0 1-1.68-5.488 60.623 60.623 0 0 1 33.989-10.4 3 3 0 0 1 0 6 54.629 54.629 0 0 0-30.635 9.371 2.993 2.993 0 0 1-1.674.517z" fill="#cc5ca6"/></svg>