<svg xmlns="http://www.w3.org/2000/svg" xmlns:xlink="http://www.w3.org/1999/xlink" width="970" height="890" xmlns:v="https://vecta.io/nano"><path fill="#fff" d="M0-.001h970v890H0z"/><path d="M219.589 748.599l-.2 6H3.679a3 3 0 1 1 0-6zm38.7 6h-22.6a3.02 3.02 0 0 1 .64-1.09l4.54-4.91h12.68l-3.57 2.79 5.56.44a2.98 2.98 0 0 1 2.57 1.95c.099.263.16.539.18.82zm711.19-3a3 3 0 0 1-3 3h-687.33l.15-6h687.18a3 3 0 0 1 3 3zM97.849 67.359H16.731a13.75 13.75 0 0 0-13.73 13.73v30.65a13.75 13.75 0 0 0 13.73 13.73h60.38v-6h-60.38c-4.266-.007-7.723-3.464-7.73-7.73v-30.65c.007-4.266 3.464-7.723 7.73-7.73h81.12c4.27.002 7.732 3.46 7.74 7.73v18.1h6v-18.1c-.01-7.583-6.159-13.726-13.742-13.73zm-14.34 52.11q-.03.4-.03.81v5.19h6v-5.19a7.2 7.2 0 0 1 .04-.81zm22.08-12.97v5.24a6.22 6.22 0 0 1-.04.76h6.02l.02-.76v-5.24zm298.62 255.91h-81.12c-7.582.01-13.725 6.158-13.73 13.74v30.64c.005 7.582 6.148 13.73 13.73 13.74h81.12a13.76 13.76 0 0 0 13.74-13.74v-30.64a13.76 13.76 0 0 0-13.74-13.74zm7.74 44.38a7.75 7.75 0 0 1-7.74 7.74h-81.12a7.74 7.74 0 0 1-7.73-7.74v-30.64a7.74 7.74 0 0 1 7.73-7.74h81.12a7.75 7.75 0 0 1 7.74 7.74z" fill="#efefef"/><path d="M476.509 308.079a8.31 8.31 0 0 0-5.879 14.189 8.31 8.31 0 0 0 14.189-5.879 8.32 8.32 0 0 0-8.31-8.31zm0 10.62a2.31 2.31 0 0 1-1.633-3.943 2.31 2.31 0 0 1 3.943 1.633 2.31 2.31 0 0 1-2.31 2.31z" fill="#f6f6f6"/><path d="M466.583 531.737h-.012a3 3 0 0 1-2.988-3.012 12.87 12.87 0 0 1 12.868-12.821h.049a12.77 12.77 0 0 1 5.006 1.031 3 3 0 1 1-2.359 5.517 6.8 6.8 0 0 0-2.669-.548h-.026a6.87 6.87 0 0 0-6.869 6.844 3 3 0 0 1-3 2.989z" fill="#49c5d9"/><path d="M518.199 483.649l-6.09-.02c-1.758-.035-3.453.66-4.68 1.92a6.55 6.55 0 0 0-1.96 4.67v2.09a6.62 6.62 0 0 0 6.58 6.64l6.09.02h.02c3.644-.002 6.602-2.946 6.62-6.59v-2.09c.016-3.65-2.93-6.623-6.58-6.64zm.58 8.71a.63.63 0 0 1-.62.61l-6.09-.02c-.336-.007-.604-.284-.6-.62v-2.09a.6.6 0 0 1 .18-.43c.118-.114.276-.178.44-.18l6.08.02c.163.001.319.067.433.184s.178.273.177.436z" fill="#fdf14c"/><g fill="#231f20"><path d="M476.531 507.209h-.08a21.57 21.57 0 0 0-21.605 21.525 21.57 21.57 0 0 0 21.525 21.605h.09a21.57 21.57 0 0 0 21.6-21.53 21.57 21.57 0 0 0-21.53-21.6zm10.89 32.61c-2.91 2.906-6.858 4.533-10.97 4.52h-.05a15.57 15.57 0 0 1-15.54-15.59 15.57 15.57 0 0 1 15.59-15.54h.06c6.296.021 11.959 3.834 14.348 9.659a15.56 15.56 0 0 1-3.438 16.951zm-45.71 1.623c1.057.004 1.917-.85 1.921-1.907s-.85-1.917-1.907-1.921-1.917.85-1.921 1.907.85 1.917 1.907 1.921zm-11.833-.044c.774.003 1.474-.46 1.773-1.174s.139-1.538-.407-2.088a1.91 1.91 0 0 0-2.084-.423c-.716.294-1.185.99-1.188 1.764-.003 1.056.85 1.916 1.906 1.921zm.044-11.833c1.057.004 1.917-.85 1.921-1.907s-.85-1.917-1.907-1.921-1.917.85-1.921 1.907.85 1.917 1.907 1.921zm5.939-5.894c.775.003 1.475-.461 1.774-1.175s.139-1.539-.407-2.089-1.369-.717-2.086-.423-1.186.991-1.188 1.766a1.91 1.91 0 0 0 .556 1.355c.358.36.844.564 1.351.566z"/><use xlink:href="#B"/><path d="M429.966 517.732c1.057.004 1.917-.85 1.921-1.907s-.85-1.917-1.907-1.921-1.917.85-1.921 1.907c-.002.508.198.995.555 1.356s.844.564 1.352.565z"/><use xlink:href="#B" x="5.982" y="-17.727"/><path d="M435.817 535.504c.775.003 1.475-.461 1.774-1.175s.139-1.539-.407-2.089-1.369-.717-2.086-.423-1.186.99-1.189 1.765c-.004 1.057.85 1.918 1.907 1.922z"/><use xlink:href="#B" x="6.026" y="-29.56"/><use xlink:href="#C"/><use xlink:href="#D"/><use xlink:href="#D" x="0.044" y="-11.833"/><path d="M512.723 537.876c-1.057-.004-1.917.85-1.921 1.907s.85 1.917 1.907 1.921 1.917-.85 1.921-1.907-.85-1.917-1.907-1.921z"/><use xlink:href="#C" x="6.026" y="-29.56"/><use xlink:href="#E"/><use xlink:href="#C" x="5.982" y="-17.727"/><use xlink:href="#E" x="11.789" y="11.876"/><path d="M512.81 514.21c-.775-.003-1.475.461-1.774 1.175s-.139 1.539.407 2.089 1.369.717 2.086.423 1.186-.991 1.188-1.766a1.91 1.91 0 0 0-.556-1.355c-.358-.36-.844-.564-1.351-.566zm-6.025 29.561c-.774-.003-1.474.46-1.773 1.174s-.139 1.538.407 2.088a1.91 1.91 0 0 0 2.084.423c.716-.294 1.185-.99 1.188-1.764.002-.508-.198-.995-.555-1.355s-.843-.564-1.351-.566zm19.984-70.792l-16.05-.05-1.48-.01c-.925-.007-1.821-.328-2.54-.91l-2.5-2.05h-.01l-4.5-3.68c-.536-.432-1.202-.671-1.89-.68l-42.23-.15h-.01a3.02 3.02 0 0 0-1.89.66l-4.56 3.68-2.47 2a4.11 4.11 0 0 1-2.54.89h-.02l-.51-.01a2.52 2.52 0 0 0 .06-.55 3.06 3.06 0 0 0-.66-1.9 3 3 0 0 0-2.33-1.11l-13.19-.05h-.01a3 3 0 0 0-2.12.873 2.99 2.99 0 0 0-.88 2.117 2.82 2.82 0 0 0 .11.77 9.3 9.3 0 0 0-7.3 9.03l-.1 26.72-.14 39.68c-.015 5.11 4.11 9.266 9.22 9.29l37.11.14a31.36 31.36 0 0 0 12.99 2.84h.13a31.51 31.51 0 0 0 12.89-2.74l37.11.13h.03c5.104.01 9.252-4.116 9.27-9.22l.15-39.68.1-26.72a9.29 9.29 0 0 0-9.24-9.31zm-75.18 78.42a1.92 1.92 0 0 0 .03.24l-8.06-.03a.97.97 0 0 0 .03-.24c.006-1.058-.847-1.919-1.905-1.925s-1.919.847-1.925 1.905c.004.081.014.161.03.24l-8.06-.03a1.57 1.57 0 0 0 .03-.24c.021-.725-.37-1.399-1.009-1.742a1.92 1.92 0 0 0-2.01.121c-.593.417-.899 1.134-.792 1.851l-1.69-.01a3.24 3.24 0 0 1-2.307-.957c-.61-.614-.95-1.447-.943-2.313v-1.23a1.85 1.85 0 0 0 .93.25 1.91 1.91 0 1 0 .02-3.82 1.88 1.88 0 0 0-.94.24l.03-8.5c.284.16.604.245.93.25.808.015 1.538-.478 1.825-1.233s.07-1.609-.543-2.135-1.49-.611-2.192-.212l.03-8.51a1.83 1.83 0 0 0 .93.26c1.058.003 1.917-.852 1.92-1.91s-.852-1.917-1.91-1.92a1.85 1.85 0 0 0-.93.25l.03-8.46h.1a1.93 1.93 0 0 0 .83.21 2 2 0 0 0 .84-.2l10.16.04a1.96 1.96 0 0 0 .84.2c.289.001.574-.067.83-.2l10.17.04c.256.133.541.201.83.2a1.91 1.91 0 0 0 .83-.19h1.11c-.05.08-.09.16-.14.24-.3.47-.58.95-.85 1.44-.08.13-.15.26-.22.39-.31.58-.61 1.16-.88 1.76-.05.1-.09.21-.14.32-.23.51-.44 1.03-.65 1.56l-.16.44c-.23.61-.44 1.24-.63 1.87-.02.08-.05.17-.07.26-.16.56-.3 1.13-.43 1.7-.04.16-.08.31-.11.48-.14.64-.26 1.3-.36 1.96-.01.05-.01.1-.02.16-.09.61-.15 1.23-.2 1.84a9.85 9.85 0 0 0-.04.52 27.06 27.06 0 0 0-.08 2.02c0 .68.02 1.36.07 2.03.01.2.02.39.04.58.04.53.1 1.05.16 1.57.03.16.04.32.07.48.09.66.21 1.31.34 1.96.03.13.07.27.1.41q.18.78.39 1.56c.03.1.05.2.08.3.02.08.06.17.08.25.17.57.36 1.14.56 1.7.02.07.04.13.06.19q.345.93.75 1.83c.07.17.15.33.23.5.21.46.44.92.67 1.38.07.13.13.26.2.39a1.86 1.86 0 0 0-.88-.23c-1.05-.007-1.91.831-1.928 1.881s.811 1.918 1.86 1.948 1.927-.79 1.968-1.839c.06.1.13.19.19.29l.92 1.37.35.47c.32.44.67.88 1.02 1.31.07.09.14.18.21.26.13.16.28.32.42.48-.631.324-1.031.971-1.04 1.68zm37.49-.18c-.26.15-.54.28-.81.42s-.54.29-.82.42c-7.026 3.308-15.168 3.279-22.17-.08a25.88 25.88 0 0 1-14.58-23.3c0-.84.05-1.68.13-2.5a22.97 22.97 0 0 1 .19-1.45 25.78 25.78 0 0 1 25.43-21.71h.1c14.218.063 25.698 11.632 25.65 25.85a26.26 26.26 0 0 1-.27 3.66c-.11.72-.26 1.44-.43 2.14a25.92 25.92 0 0 1-12.42 16.55zm9.87.59h-.67c.19-.18.38-.37.56-.56.05-.05.1-.09.15-.14-.04.15-.06.305-.06.46a1.94 1.94 0 0 0 .02.24zm30.92-31.49a1.9 1.9 0 0 0-.02 3.57l-.03 8.26a1.9 1.9 0 0 0-.01 3.57l-.03 8.26a1.91 1.91 0 0 0-.01 3.58l-.01 1.1a3.24 3.24 0 0 1-.957 2.307c-.614.61-1.447.95-2.313.943h-.09a1.79 1.79 0 0 0 .02-.24c.003-1.058-.852-1.917-1.91-1.92s-1.917.852-1.92 1.91a1.92 1.92 0 0 0 .03.24l-8.06-.03a1.92 1.92 0 0 0 .03-.24c.003-1.058-.852-1.917-1.91-1.92s-1.917.852-1.92 1.91a1.94 1.94 0 0 0 .02.24l-8.05-.03a1.94 1.94 0 0 0 .02-.24 1.9 1.9 0 0 0-1.9-1.92 2.07 2.07 0 0 0-.62.1c.1-.11.21-.23.31-.35.08-.09.14-.17.22-.26l1.03-1.3c.11-.16.23-.31.34-.47a25.53 25.53 0 0 0 .94-1.37c.06-.09.13-.18.19-.28.35-.55.68-1.12.99-1.69l.24-.45q.36-.69.69-1.38l.23-.49c.27-.6.53-1.21.76-1.83l.06-.18c.21-.56.4-1.13.58-1.71.05-.18.11-.36.16-.54.15-.52.28-1.04.4-1.57.02-.08.05-.16.07-.24a1.9 1.9 0 0 0 .55-3.31c.04-.29.06-.57.09-.86.01-.19.03-.38.04-.57a27.33 27.33 0 0 0 .08-2.03c0-.68-.02-1.35-.06-2.02-.01-.18-.02-.35-.04-.53a27.34 27.34 0 0 0-.18-1.82c-.012-.063-.019-.126-.02-.19-.03-.21-.07-.43-.11-.64a1.9 1.9 0 0 0-.78-3.57 1.46 1.46 0 0 1-.05-.2c-.19-.62-.39-1.24-.61-1.85-.05-.16-.11-.31-.17-.47a34.88 34.88 0 0 0-.62-1.53l-.15-.35a40.45 40.45 0 0 0-.86-1.75c-.07-.14-.15-.27-.23-.41a40.16 40.16 0 0 0-.82-1.42c-.05-.08-.1-.17-.15-.25l2.72.01c.258.128.542.197.83.2a1.99 1.99 0 0 0 .84-.19l10.16.03a1.83 1.83 0 0 0 .84.2 1.78 1.78 0 0 0 .83-.19l10.16.04c.06.02.11.05.17.07zm.05-14.33l-31.49-.12c-5.863-5.674-13.701-8.848-21.86-8.85h-.12a31.44 31.44 0 0 0-21.81 8.69l-31.48-.12.09-23.72a3.28 3.28 0 0 1 3.26-3.26h.02l17.53.07h.04a10.1 10.1 0 0 0 6.3-2.22l6.21-5.01 40.11.15 6.19 5.06a10.04 10.04 0 0 0 6.3 2.26l17.54.06c1.803.013 3.258 1.477 3.26 3.28zm-70.966-25.445l35.216.13h.011a3 3 0 1 0 .011-6l-35.217-.13h-.011a3 3 0 1 0-.01 6z"/><path d="M445.413 477.138a3.04 3.04 0 0 1-.455-.034 3 3 0 0 1-2.515-3.417l24.288-159.495a9.71 9.71 0 0 1 9.757-8.392h.01a9.7 9.7 0 0 1 9.761 8.374l24.58 159.507a3 3 0 0 1-4.06 3.3 3 3 0 0 1-1.869-2.386l-24.58-159.507a3.69 3.69 0 0 0-3.833-3.288h0a3.69 3.69 0 0 0-3.83 3.295l-24.292 159.494a3 3 0 0 1-2.962 2.549z"/></g><g fill="#e2e2e2"><use xlink:href="#F"/><use xlink:href="#G"/><use xlink:href="#G" y="32.746"/><use xlink:href="#F" y="43.661"/><use xlink:href="#G" y="-10.913"/><use xlink:href="#F" y="10.915"/><use xlink:href="#F" x="-5.457" y="38.204"/><use xlink:href="#H"/><use xlink:href="#I"/><use xlink:href="#G" y="-32.746"/><use xlink:href="#F" y="-32.746"/><use xlink:href="#G" y="-43.661"/><use xlink:href="#J"/><use xlink:href="#F" x="-5.457" y="16.371"/><use xlink:href="#H" x="10.915"/><use xlink:href="#K"/><use xlink:href="#F" x="5.458" y="38.204"/><use xlink:href="#L"/><use xlink:href="#J" y="10.915"/><use xlink:href="#F" x="5.458" y="16.371"/><use xlink:href="#F" x="5.458" y="5.458"/><use xlink:href="#F" x="5.458" y="-27.288"/><use xlink:href="#H" x="10.915" y="-65.492"/><use xlink:href="#F" x="5.458" y="-16.373"/><use xlink:href="#H" x="10.915" y="-32.746"/><use xlink:href="#H" y="-32.746"/><circle cx="128.039" cy="185.389" r="1.768"/><circle cx="128.039" cy="163.559" r="1.768"/><use xlink:href="#F" x="-10.916" y="-32.746"/><circle cx="128.039" cy="174.474" r="1.768"/><use xlink:href="#H" x="-10.916"/><use xlink:href="#G" x="-10.916" y="-32.746"/><use xlink:href="#F" x="-16.373" y="38.204"/><path d="M124.349 125.354a1.75 1.75 0 0 0-.177-.757q-1.305 1.091-2.57 2.228c.542.361 1.24.395 1.814.087s.933-.907.933-1.558z"/><use xlink:href="#F" x="-16.373" y="-16.373"/><path d="M129.771 120.25q-.955.686-1.9 1.4l.164.016c.842.002 1.569-.591 1.736-1.416z"/><use xlink:href="#H" x="-10.916" y="-65.492"/><use xlink:href="#F" x="-16.373" y="-27.288"/><circle cx="133.496" cy="179.931" r="1.768"/><use xlink:href="#H" y="-65.492"/><use xlink:href="#F" x="-5.457" y="-27.288"/><use xlink:href="#K" x="-10.915"/><use xlink:href="#G" x="-10.916" y="-10.913"/><use xlink:href="#I" x="-10.916"/><use xlink:href="#F" x="-5.457" y="-16.373"/><use xlink:href="#J" y="32.748"/><circle cx="133.496" cy="169.016" r="1.768"/><circle cx="133.496" cy="158.1" r="1.768"/><use xlink:href="#F" x="-5.457" y="5.458"/><use xlink:href="#G" x="-10.916" y="32.746"/><use xlink:href="#F" x="-10.916" y="43.661"/><use xlink:href="#I" x="21.831"/><use xlink:href="#J" x="16.371" y="70.948"/><use xlink:href="#J" x="16.371" y="92.781"/><use xlink:href="#J" x="16.371" y="60.035"/><use xlink:href="#J" x="21.828"/><use xlink:href="#L" x="16.371" y="27.289"/><use xlink:href="#L" x="16.371" y="60.035"/><path d="M177.159 105.292c.723-.001 1.373-.443 1.639-1.115q-1.6.037-3.213.136a1.76 1.76 0 0 0 1.574.979z"/><use xlink:href="#J" x="16.371" y="-5.457"/><use xlink:href="#G" x="-21.831" y="32.746"/><use xlink:href="#J" x="16.371" y="27.289"/><use xlink:href="#L" x="16.371" y="-5.457"/><use xlink:href="#J" x="16.371" y="38.204"/><use xlink:href="#M"/><use xlink:href="#M" x="5.457" y="81.864"/><use xlink:href="#J" x="21.828" y="10.915"/><use xlink:href="#L" x="21.828" y="76.407"/><path d="M208.138 190.846a1.76 1.76 0 0 0 1.249 1.682 34.71 34.71 0 0 0 1.4-3.207c-.545-.321-1.22-.324-1.767-.009s-.883.901-.879 1.534zm-83.789 21.831a1.77 1.77 0 1 0-3.4.683l2.567.811c.517-.321.832-.886.833-1.494z"/><use xlink:href="#J" x="21.828" y="76.407"/><path d="M149.87 110.75c.469 0 .919-.186 1.25-.518s.518-.781.518-1.25v-.022q-1.59.534-3.141 1.121c.332.421.837.667 1.373.669z"/><use xlink:href="#J" x="21.828" y="32.748"/><use xlink:href="#L" x="21.828"/><use xlink:href="#J" x="21.828" y="43.661"/><use xlink:href="#L" x="21.828" y="32.746"/><use xlink:href="#L" x="21.828" y="43.661"/><use xlink:href="#G" x="16.374" y="-16.372"/><use xlink:href="#J" y="43.661"/><use xlink:href="#F" x="16.374" y="-38.203"/><use xlink:href="#G" x="16.374" y="-49.118"/><use xlink:href="#I" x="16.374" y="-81.864"/><use xlink:href="#G" x="16.374" y="-5.457"/><use xlink:href="#F" x="16.374" y="-5.457"/><use xlink:href="#M" x="-16.371" y="81.864"/><use xlink:href="#L" y="32.746"/><use xlink:href="#L" y="43.661"/><use xlink:href="#J" y="76.407"/><use xlink:href="#L" y="76.407"/><use xlink:href="#G" x="16.374" y="16.374"/><use xlink:href="#G" x="21.831" y="-43.661"/><use xlink:href="#F" x="21.831"/><use xlink:href="#G" x="21.831"/><use xlink:href="#F" x="21.831" y="10.915"/><use xlink:href="#G" x="21.831" y="32.746"/><use xlink:href="#G" x="21.831" y="-10.913"/><use xlink:href="#G" x="16.374" y="27.287"/><use xlink:href="#G" x="16.374" y="49.12"/><use xlink:href="#F" x="16.374" y="27.289"/><use xlink:href="#G" x="21.831" y="-32.746"/><use xlink:href="#F" x="21.831" y="-32.746"/><use xlink:href="#F" x="21.831" y="43.661"/><use xlink:href="#I" x="38.205" y="-81.864"/><circle cx="188.074" cy="179.931" r="1.768"/><circle cx="188.074" cy="169.016" r="1.768"/><circle cx="188.074" cy="158.1" r="1.768"/><use xlink:href="#G" x="43.662" y="32.746"/><use xlink:href="#I" x="43.662"/><circle cx="193.533" cy="108.982" r="1.768"/><use xlink:href="#G" x="43.662" y="-10.913"/><circle cx="182.617" cy="185.389" r="1.768"/><use xlink:href="#F" x="38.205" y="27.289"/><use xlink:href="#G" x="43.662" y="-32.746"/><use xlink:href="#F" x="43.662" y="-32.746"/><use xlink:href="#G" x="43.662" y="-43.661"/><path d="M188.074 105.292c.524-.001 1.021-.237 1.353-.643l-2.894-.276a1.76 1.76 0 0 0 1.541.919z"/><use xlink:href="#F" x="54.578" y="-43.662"/><use xlink:href="#F" x="54.578" y="-54.577"/><use xlink:href="#H" x="54.576"/><circle cx="193.533" cy="185.389" r="1.768"/><use xlink:href="#H" x="60.035" y="-60.035"/><use xlink:href="#F" x="54.578" y="-21.829"/><use xlink:href="#H" x="54.576" y="-65.492"/><circle cx="193.533" cy="174.474" r="1.768"/><use xlink:href="#F" x="49.119" y="-27.288"/><use xlink:href="#K" x="43.661"/><use xlink:href="#F" x="54.578" y="-10.916"/><circle cx="193.533" cy="163.559" r="1.768"/><use xlink:href="#F" x="49.119" y="-16.373"/><use xlink:href="#F" x="65.493" y="-43.662"/><path d="M213.596 174.474a1.76 1.76 0 0 0 .5 1.227q.22-1.342.436-2.777a1.76 1.76 0 0 0-.936 1.55z"/><use xlink:href="#H" x="70.95" y="-16.374"/><use xlink:href="#F" x="65.493" y="-54.577"/><use xlink:href="#F" x="65.493" y="-21.829"/><circle cx="182.617" cy="174.474" r="1.768"/><use xlink:href="#I" x="-21.831"/><path d="M215.364 118.13a1.77 1.77 0 0 0-.51 3.462 1.77 1.77 0 0 0 2.11-.952 18.79 18.79 0 0 0-1.28-2.478c-.105-.02-.213-.031-.32-.032z"/><use xlink:href="#F" x="70.952" y="-38.203"/><path d="M215.364 161.791a1.77 1.77 0 0 0-1.768 1.768 1.77 1.77 0 0 0 1.768 1.768 1.83 1.83 0 0 0 .223-.023q.213-1.638.436-3.383c-.209-.085-.433-.129-.659-.13z"/><use xlink:href="#G" x="70.952" y="-16.372"/><path d="M217.131 152.643a1.77 1.77 0 0 0-1.768-1.768 1.77 1.77 0 0 0-1.768 1.768 1.77 1.77 0 0 0 1.768 1.768 1.77 1.77 0 0 0 1.768-1.768z"/><use xlink:href="#F" x="65.493" y="-10.916"/><use xlink:href="#F" x="38.205" y="-38.203"/><use xlink:href="#G" x="38.205" y="-16.372"/><circle cx="182.617" cy="108.982" r="1.768"/><use xlink:href="#G" x="38.205" y="-5.457"/><circle cx="182.617" cy="163.559" r="1.768"/><path d="M187.605 210.98c-.14.038-.274.094-.4.167z"/><use xlink:href="#I" x="60.036" y="-81.864"/><path d="M202.68 108.982c-.003.868.626 1.609 1.483 1.747s1.687-.369 1.956-1.194l-3.157-1.505a1.76 1.76 0 0 0-.282.952zm-20.063 100.006a1.77 1.77 0 0 0 1.768-1.768 1.77 1.77 0 0 0-1.768-1.768 1.77 1.77 0 0 0-1.768 1.768 1.77 1.77 0 0 0 1.768 1.768z"/><use xlink:href="#H" x="70.95" y="-27.289"/><path d="M193.531 205.452c-.765-.002-1.445.491-1.681 1.219s.023 1.526.643 1.974q1.435-.764 2.789-1.593a1.76 1.76 0 0 0-1.751-1.6z"/><use xlink:href="#H" x="70.95" y="-60.035"/><use xlink:href="#F" x="-38.204" y="-16.373"/><use xlink:href="#K" x="-38.205" y="81.864"/><circle cx="111.665" cy="169.016" r="1.768"/><circle cx="111.665" cy="158.1" r="1.768"/><use xlink:href="#F" x="-32.747" y="21.83"/><path d="M113.431 136.27c-.001-.332-.096-.658-.274-.938q-1.116 1.268-2.181 2.567a1.77 1.77 0 0 0 2.455-1.629z"/><use xlink:href="#F" x="-32.747" y="-21.829"/><use xlink:href="#J" x="-38.207" y="27.289"/><use xlink:href="#H" x="-32.747" y="-32.746"/><use xlink:href="#F" x="-38.204" y="5.458"/><use xlink:href="#H" x="-32.747"/><use xlink:href="#F" x="-38.204" y="16.371"/><circle cx="111.665" cy="179.931" r="1.768"/><path d="M118.891 130.813a1.75 1.75 0 0 0-.389-1.1q-1.252 1.223-2.459 2.485a1.76 1.76 0 0 0 2.848-1.39z"/><use xlink:href="#G" x="-21.831" y="-10.913"/><use xlink:href="#J" x="-38.207" y="38.204"/><circle cx="122.58" cy="158.1" r="1.768"/><circle cx="122.58" cy="179.931" r="1.768"/><circle cx="122.58" cy="169.016" r="1.768"/><use xlink:href="#F" x="-21.831" y="-32.746"/><use xlink:href="#J" x="-38.207" y="60.035"/><use xlink:href="#H" x="60.035" y="-27.289"/><use xlink:href="#J" x="-38.207" y="49.12"/><use xlink:href="#J" x="-38.207" y="70.948"/><path d="M117.124 205.452a1.77 1.77 0 0 0-1.251 3.018 1.77 1.77 0 0 0 3.018-1.251 1.77 1.77 0 0 0-1.767-1.767z"/><use xlink:href="#J" x="-38.207" y="81.866"/><circle cx="204.448" cy="174.474" r="1.768"/><circle cx="204.448" cy="163.559" r="1.768"/><use xlink:href="#F" x="60.036" y="27.289"/><path d="M160.786 216.367c-.755.002-1.426.484-1.667 1.2q1.605-.125 3.2-.3a1.76 1.76 0 0 0-1.533-.9z"/><use xlink:href="#G" x="60.036" y="-5.457"/><circle cx="204.448" cy="185.389" r="1.768"/><use xlink:href="#F" x="54.578" y="21.83"/><use xlink:href="#H" x="60.035" y="-16.374"/><path d="M107.973 141.755l-1.2 1.642a1.76 1.76 0 0 0 1.2-1.642zm43.64 76.133a1.76 1.76 0 0 0-3.483-.027q1.74.042 3.483.027z"/><use xlink:href="#F" x="60.036" y="-38.203"/><use xlink:href="#G" x="60.036" y="-16.372"/><use xlink:href="#K" x="49.12" y="81.864"/><use xlink:href="#J" x="-54.581" y="54.577"/><path d="M97.06 163.559a1.76 1.76 0 0 0-.528-1.259q-.568 1.506-1.05 3.008a1.76 1.76 0 0 0 1.578-1.749z"/><use xlink:href="#J" x="-54.581" y="43.661"/><use xlink:href="#J" x="-54.581" y="65.492"/><use xlink:href="#J" x="-54.581" y="76.407"/><path d="M95.292 187.157a1.77 1.77 0 0 0 1.768-1.768 1.77 1.77 0 0 0-1.768-1.768 1.77 1.77 0 0 0-1.768 1.768c0 .469.186.919.518 1.25a1.77 1.77 0 0 0 1.25.518zm5.458 12.837a1.75 1.75 0 0 0-.874.239c.743.867 1.53 1.696 2.358 2.482.185-.284.283-.615.283-.954 0-.469-.186-.918-.518-1.249a1.77 1.77 0 0 0-1.249-.518zm5.458 5.458c-.208.002-.414.04-.609.114l2.377 1.652a1.77 1.77 0 0 0-1.768-1.766zm-10.027-10.668q.413.793.875 1.559v-.038a1.76 1.76 0 0 0-.875-1.521z"/><use xlink:href="#G" x="-49.12" y="16.374"/><path d="M138.955 216.367a1.76 1.76 0 0 0-1.406.707q1.5.189 3.014.335c-.285-.633-.914-1.041-1.608-1.042z"/></g><g fill="#211e1f"><path d="M202.95 310.59c-.787 0-1.496.473-1.798 1.2s-.135 1.564.421 2.12 1.393.723 2.12.422 1.201-1.01 1.201-1.797c0-.516-.204-1.01-.569-1.375s-.859-.57-1.375-.57zm-12.004 15.892c.786 0 1.495-.474 1.796-1.2s.135-1.563-.421-2.119-1.392-.722-2.119-.421-1.2 1.01-1.2 1.796c0 .516.204 1.01.569 1.375s.859.569 1.375.569z"/><use xlink:href="#N"/><use xlink:href="#N" x="6.001" y="-6.003"/><use xlink:href="#O"/><use xlink:href="#P"/><use xlink:href="#P" y="24.007"/><path d="M201.006 228.51a1.94 1.94 0 0 0 3.63.951 29.6 29.6 0 0 0-2.888-2.468 1.93 1.93 0 0 0-.742 1.517z"/><use xlink:href="#O" y="24.007"/><path d="M202.95 238.569c-.787 0-1.496.473-1.798 1.2s-.135 1.564.421 2.12 1.393.723 2.12.421 1.201-1.011 1.2-1.798c0-1.074-.87-1.944-1.944-1.944z"/><use xlink:href="#P" x="6.003" y="42.013"/><use xlink:href="#N" x="6.001" y="-30.01"/><use xlink:href="#Q"/><use xlink:href="#N" x="6.001" y="-54.017"/><use xlink:href="#Q" y="-24.007"/><use xlink:href="#N" x="6.001" y="18.004"/><use xlink:href="#P" x="-6.001" y="18.006"/><use xlink:href="#P" x="-6.001" y="30.01"/><use xlink:href="#O" x="-6.001" y="-6.001"/><path d="M184.945 292.586c-.786 0-1.495.474-1.796 1.2s-.135 1.563.421 2.119 1.392.722 2.119.421 1.2-1.01 1.2-1.796c-.001-1.073-.871-1.943-1.944-1.944z"/><use xlink:href="#R"/><use xlink:href="#P" x="-6.001" y="-6.001"/><use xlink:href="#P" x="-6.001" y="54.017"/><path d="M180.887 288.528a1.89 1.89 0 0 0-2.211-1.918l.048 3.84a1.87 1.87 0 0 0 2.163-1.922z"/><use xlink:href="#P" y="48.014"/><path d="M186.889 318.537a1.94 1.94 0 0 0-3.877-.107l.626 1.538a1.94 1.94 0 0 0 3.251-1.431zm-6.002-18.006a1.94 1.94 0 0 0-1.751-1.925q.156 1.923.365 3.778a1.94 1.94 0 0 0 1.386-1.853zm-1.808-25.937l-.217 3.866c.027 0 .053.008.08.008a1.94 1.94 0 0 0 1.951-1.87 1.94 1.94 0 0 0-1.814-2.004zm1.103-11.56q-.2 1.6-.378 3.221c.59-.287.993-.855 1.07-1.507s-.184-1.298-.692-1.714zm10.764-24.465c-.787 0-1.496.473-1.798 1.2s-.135 1.564.421 2.12 1.393.723 2.12.421 1.201-1.011 1.2-1.798c-.001-1.073-.871-1.943-1.944-1.944z"/><use xlink:href="#P" x="24.008"/><use xlink:href="#R" x="24.008"/><use xlink:href="#P" x="18.007" y="42.013"/><use xlink:href="#N" y="-24.007"/><use xlink:href="#P" x="24.008" y="24.007"/><use xlink:href="#O" x="24.008"/><use xlink:href="#P" x="18.007" y="54.017"/><use xlink:href="#S"/><path d="M225.014 300.531c.003.078.011.157.023.234l.264-1.239c-.186.302-.285.65-.287 1.005z"/><use xlink:href="#N" x="12.004" y="-24.007"/><path d="M207.009 234.512c-.005.762.439 1.456 1.132 1.771s1.508.195 2.08-.308q-1.179-1.615-2.381-3.054a1.94 1.94 0 0 0-.831 1.591z"/><use xlink:href="#N" x="12.004" y="-60.018"/><use xlink:href="#N" x="12.004" y="-36.011"/><use xlink:href="#Q" x="6.003" y="-30.008"/><use xlink:href="#Q" x="12.004"/><path d="M198.431 329.755c.094 0 .184-.017.277-.022a1.93 1.93 0 0 0-3.472-.1 20.28 20.28 0 0 0 3.195.122z"/><use xlink:href="#S" x="-12.004"/><use xlink:href="#P" x="6.003" y="-18.005"/><use xlink:href="#N" y="-60.018"/><use xlink:href="#N" y="-36.011"/><use xlink:href="#P" x="24.008" y="48.014"/><use xlink:href="#Q" x="-6.001" y="-30.008"/><use xlink:href="#P" x="30.011" y="30.01"/><use xlink:href="#P" x="30.011" y="18.006"/><path d="M219.013 258.519a1.94 1.94 0 0 0 3.329 1.361l-1.184-3.285a1.92 1.92 0 0 0-.2-.021 1.95 1.95 0 0 0-1.376.569 1.94 1.94 0 0 0-.569 1.376zm6.001 30.009a1.94 1.94 0 0 0 1.5 1.888q.128-1.88.16-3.8a1.94 1.94 0 0 0-1.66 1.912zm1.343-10.164l-.4-3.5a1.93 1.93 0 0 0 .4 3.5z"/><use xlink:href="#P" x="30.011" y="42.013"/><use xlink:href="#P" x="30.011" y="54.017"/></g><g fill="#231f20"><path d="M164.421 238.319c-.785.001-1.539-.306-2.1-.856a30 30 0 0 1-7.045-10.949c-7.125-21.233-3.523-33.565-3.365-34.079a3 3 0 0 1 5.738 1.75c-.027.094-3.137 11.194 3.315 30.421 1.224 3.217 3.117 6.137 5.554 8.568a3 3 0 0 1-2.1 5.145zm10.31 4.706c-1.269-.001-2.532-.159-3.762-.47a3 3 0 0 1 1.455-5.82c5.435 1.353 11.367-2.31 17.639-10.9 20.979-28.733 24.625-48.975 13.933-77.352-4.174-11.077-13.514-18.411-25.626-20.122a3 3 0 0 1 .839-5.942c14.35 2.028 25.431 10.756 30.4 23.948 11.536 30.618 7.689 52.339-14.7 83.006-6.627 9.076-13.399 13.652-20.178 13.652z"/><path d="M154.784 196.311c-.25 0-.5-.032-.742-.094l-13.161-3.347a11.62 11.62 0 0 1-8.741-12.088c.78-11.042 3.361-31.544 11.884-44.8 4.761-7.4 13.524-12.385 24.045-13.67a3 3 0 0 1 3.163 4.159 3 3 0 0 1-2.435 1.796c-8.616 1.053-15.99 5.15-19.726 10.961-7.8 12.129-10.206 31.505-10.946 41.975-.191 2.718 1.593 5.183 4.235 5.85l13.161 3.347a3 3 0 0 1-.737 5.908z"/></g><path d="M168.994 209.089a24.34 24.34 0 0 1-6.789-.962 3 3 0 0 1 1.673-5.762 18.44 18.44 0 0 0 12.079-.635l.256-.1a3 3 0 0 1 2.272 5.553l-.258.1a24.43 24.43 0 0 1-9.233 1.806z" fill="#cc5ca6"/><path d="M167.239 234.109c-.202-.442-.512-.827-.9-1.12-.01 0-.01-.01-.02-.01s-.01-.02-.02-.02c-.666-.517-1.517-.734-2.35-.6-.91.142-1.703.695-2.15 1.5l-1.56 1.31-1.43 1.18c-9.22 7.54-30.81 25.2-39.38 43.26-7.19 15.17-10.53 25.32-9.42 28.59a3 3 0 0 0 2.84 2.04 2.93 2.93 0 0 0 .96-.16 3 3 0 0 0 1.98-3.41c-.01-.6.18-5.76 9.07-24.49 7.98-16.84 29.61-34.53 37.75-41.19l2.89-2.4c1.01-.87 2.71-2.33 1.74-4.48z" fill="#46d281"/><path d="M159.144 185.701a3 3 0 0 1-2.9-3.787l12.553-46.231a3 3 0 1 1 5.791 1.572l-12.553 46.232a3 3 0 0 1-2.891 2.214z" fill="#ffff7b"/><path d="M222.631 181.219a3.01 3.01 0 0 1-1.039-.187l-36.586-13.5a3 3 0 0 1-.898-5.138 3 3 0 0 1 2.977-.49l36.585 13.5a3 3 0 0 1-1.039 5.815z" fill="#49c5d9"/><path d="M234.491 314.604a3 3 0 0 1-3-2.97 137.79 137.79 0 0 0-33.539-88.78 3 3 0 1 1 4.539-3.923c22.269 25.763 34.671 58.593 35 92.644a3 3 0 0 1-2.971 3.029zm27.718-7.365v-192.5a15.58 15.58 0 0 0-15.56-15.55H92.669a15.58 15.58 0 0 0-15.56 15.55v209.83a15.58 15.58 0 0 0 15.56 15.56h153.98a15.58 15.58 0 0 0 15.56-15.56 3 3 0 1 1 6 0c-.012 11.902-9.658 21.548-21.56 21.56H92.669c-11.902-.012-21.548-9.658-21.56-21.56v-209.83c.017-11.899 9.661-21.539 21.56-21.55h153.98c11.899.011 21.543 9.651 21.56 21.55v192.5a3 3 0 1 1-6 0zm-139.69-197.74a3 3 0 0 1-3 3h-22.27a7.79 7.79 0 0 0-7.73 6.97 7.2 7.2 0 0 0-.04.81v23.35a3 3 0 1 1-6 0v-23.35q0-.4.03-.81c.429-7.277 6.451-12.96 13.74-12.97h22.27a3 3 0 0 1 3 3z" fill="#231f20"/><path d="M627.819 29.409c-42.25 0-78 32.01-89.18 75.68q-.765 2.955-1.37 6a118.25 118.25 0 0 0 0 46.12q.6 3.03 1.37 6c11.19 43.66 46.93 75.68 89.18 75.68 51.19 0 92.83-46.99 92.83-104.74s-41.64-104.74-92.83-104.74zm0 203.48c-38.98 0-72.05-29.37-82.98-69.68a98.9 98.9 0 0 1-1.44-6 111.99 111.99 0 0 1 0-46.12 98.9 98.9 0 0 1 1.44-6c10.93-40.31 44-69.68 82.98-69.68 47.88 0 86.83 44.29 86.83 98.74s-38.95 98.74-86.83 98.74zm-29.082-52.31c-1.076.003-2.113-.405-2.9-1.139-11.87-11.067-18.677-27.462-18.677-44.984 0-23.823 13.04-45.574 32.447-54.124a3 3 0 1 1 2.42 5.491c-17.267 7.607-28.867 27.151-28.867 48.633-.035 8.611 1.827 17.124 5.453 24.934a88.74 88.74 0 0 1-3.353-24.934c0-9.266 4.467-17.7 7.827-23.237a3 3 0 0 1 5.129 3.113c-4.746 7.822-6.956 14.216-6.956 20.124 0 16.1 3.859 30.046 10.863 39.279a4.26 4.26 0 0 1-3.389 6.844zm33.856 11.588a3 3 0 0 1-.357-5.978c26.638-3.234 29.514-38.156 29.514-53.02 0-12.618-6.2-25.488-16.584-34.429a3 3 0 1 1 3.914-4.546c11.69 10.064 18.67 24.634 18.67 38.975 0 13.951-2.04 25.765-5.907 35.085a57.21 57.21 0 0 0 10.639-33.8c0-28.138-18.9-50.961-43.033-51.957a3 3 0 0 1-2.873-3.121 2.96 2.96 0 0 1 3.121-2.873c27.356 1.129 48.785 26.584 48.785 57.951 0 29.919-19.579 54.722-45.544 57.692a3.07 3.07 0 0 1-.345.021z" fill="#efefef"/><g fill="#e2e2e2"><circle cx="631.514" cy="142.076" r="1.768"/><circle cx="631.514" cy="152.991" r="1.768"/><use xlink:href="#F" x="487.102" y="-37.855"/><use xlink:href="#G" x="487.102" y="-48.77"/><use xlink:href="#I" x="487.102" y="-81.516"/><path d="M631.514 162.139a1.77 1.77 0 1 0 1.128 3.118l.582-1.778c-.195-.786-.9-1.339-1.71-1.34zm9.148-30.978c.001.82.566 1.531 1.365 1.717-.001-1.115-.114-2.227-.337-3.319-.626.288-1.027.913-1.028 1.602zm-3.691 14.604a1.77 1.77 0 0 0-1.768 1.768 1.77 1.77 0 0 0 1.768 1.768 1.74 1.74 0 0 0 .83-.217q.372-1.207.725-2.376a1.76 1.76 0 0 0-1.555-.943z"/><use xlink:href="#G" x="492.559" y="-32.398"/><use xlink:href="#I" x="492.559" y="-65.144"/><path d="M635.203 114.787a1.77 1.77 0 0 0 1.768 1.768c.09-.002.179-.011.268-.027l-1.388-3.1c-.409.333-.647.832-.648 1.359z"/><use xlink:href="#F" x="481.643" y="-54.229"/><use xlink:href="#F" x="481.643" y="-43.314"/><use xlink:href="#F" x="476.186" y="-37.855"/><path d="M620.598 122.013a1.77 1.77 0 0 0 1.2-3.082 1.77 1.77 0 0 0-1.994-.257q-.371 1.241-.7 2.5a1.76 1.76 0 0 0 1.494.839z"/><circle cx="620.598" cy="142.076" r="1.768"/><path d="M625.298 104.059l-.474 1.078a1.76 1.76 0 0 0 2.753-2.151c-1.06.106-2.007.463-2.279 1.073zm-2.932 48.932a1.77 1.77 0 0 0-1.768-1.768 1.75 1.75 0 0 0-.884.246q.39 1.643.808 3.283c.026 0 .05.007.076.007.469 0 .919-.186 1.25-.518a1.77 1.77 0 0 0 .518-1.25zm5.457 16.372a1.76 1.76 0 0 0-3.319-.831l.542 1.694a1.64 1.64 0 0 0 1.1.9c.94-.046 1.678-.822 1.677-1.763z"/><use xlink:href="#H" x="487.1" y="-48.772"/><use xlink:href="#F" x="481.643" y="-10.568"/><use xlink:href="#K" x="476.185" y="16.72"/></g><path d="M540.683 157.209h-41.674c-4.27-.008-7.728-3.47-7.73-7.74v-30.64c.002-4.27 3.46-7.732 7.73-7.74H540.7l1.685-6h-43.376c-7.582.01-13.725 6.158-13.73 13.74v30.64a13.76 13.76 0 0 0 13.73 13.74h43.24zm-406.064 336.4h-81.12a13.75 13.75 0 0 0-13.73 13.73v30.65a13.75 13.75 0 0 0 13.73 13.73h81.12c7.582-.005 13.73-6.148 13.74-13.73v-30.65c-.01-7.582-6.158-13.725-13.74-13.73zm7.74 44.38c-.008 4.27-3.47 7.728-7.74 7.73h-81.12c-4.266-.007-7.723-3.464-7.73-7.73v-30.65c.007-4.266 3.464-7.723 7.73-7.73h81.12c4.27.002 7.732 3.46 7.74 7.73zm650.76 30.68h-81.13c-7.582.01-13.725 6.158-13.73 13.74v30.64a13.76 13.76 0 0 0 13.73 13.74h81.13a13.76 13.76 0 0 0 13.73-13.74v-30.64c-.005-7.582-6.148-13.73-13.73-13.74zm7.73 44.38c-.002 4.27-3.46 7.732-7.73 7.74h-81.13c-4.27-.008-7.728-3.47-7.73-7.74v-30.64c.002-4.27 3.46-7.732 7.73-7.74h81.13c4.27.008 7.728 3.47 7.73 7.74z" fill="#efefef"/><g fill="#211e1f"><use xlink:href="#T"/><use xlink:href="#U"/><use xlink:href="#V"/><use xlink:href="#T" x="-10.952"/><use xlink:href="#U" x="-5.475" y="5.475"/><use xlink:href="#V" x="-16.427" y="-5.475"/><path d="M287.611 795.431c-.004.979.787 1.777 1.766 1.781s1.777-.787 1.781-1.766a15 15 0 0 0-3.438-.605 1.75 1.75 0 0 0-.109.59zm7.251 25.606a1.75 1.75 0 0 0-1.687 2.3 14.94 14.94 0 0 0 2.91-1.8 1.76 1.76 0 0 0-1.223-.5z"/><use xlink:href="#W"/><use xlink:href="#X"/><use xlink:href="#Y"/><path d="M300.337 815.561c-.691-.004-1.321.396-1.611 1.023s-.188 1.366.262 1.89c.646-.899 1.19-1.867 1.623-2.886a1.79 1.79 0 0 0-.274-.027zm0-10.952c-.806-.001-1.511.541-1.717 1.32s.138 1.599.839 1.997 1.581.274 2.145-.303a14.98 14.98 0 0 0-.73-2.923 1.75 1.75 0 0 0-.536-.091z"/><use xlink:href="#V" x="10.95"/><use xlink:href="#V" x="-21.904"/><circle cx="272.958" cy="822.811" r="1.774"/><circle cx="272.958" cy="811.86" r="1.774"/><use xlink:href="#Y" x="-5.477" y="5.475"/><circle cx="207.246" cy="811.86" r="1.774"/><path d="M201.77 804.609c-.718 0-1.365.432-1.64 1.094s-.123 1.426.384 1.934 1.27.66 1.933.385 1.095-.921 1.095-1.639c0-.979-.794-1.773-1.773-1.774z"/><use xlink:href="#V" x="-54.76"/><path d="M210.948 795.431c-.005.715.42 1.363 1.078 1.644s1.42.139 1.932-.359.676-1.256.415-1.921h-3.3a1.77 1.77 0 0 0-.125.637zm-9.178 20.13c-.979 0-1.773.794-1.773 1.773s.794 1.773 1.773 1.773 1.773-.794 1.773-1.773c0-.47-.187-.921-.519-1.254a1.77 1.77 0 0 0-1.254-.519zm10.951-10.952c-.718 0-1.364.432-1.639 1.095a1.77 1.77 0 0 0 .385 1.933c.508.507 1.27.659 1.933.385s1.095-.921 1.095-1.639c0-.471-.187-.922-.519-1.255s-.784-.52-1.255-.519z"/><circle cx="207.246" cy="800.908" r="1.774"/><use xlink:href="#Y" x="-10.952"/><use xlink:href="#W" x="-10.952"/><use xlink:href="#X" x="-5.475" y="16.428"/><path d="M209.02 822.811c.002-.766-.488-1.446-1.214-1.688s-1.526.01-1.983.625-.468 1.453-.027 2.079a14.76 14.76 0 0 0 2.115.627 1.77 1.77 0 0 0 1.11-1.643zm-10.952-10.952c-.001-.979-.795-1.773-1.774-1.773-.086.002-.171.011-.256.025.026 1.182.192 2.357.494 3.5a1.77 1.77 0 0 0 1.536-1.752z"/><circle cx="218.199" cy="822.811" r="1.774"/><use xlink:href="#V" x="-32.856"/><circle cx="240.102" cy="822.811" r="1.774"/><use xlink:href="#V" x="-38.331" y="-5.475"/><use xlink:href="#U" x="-38.333" y="5.475"/><circle cx="240.102" cy="811.86" r="1.774"/><circle cx="218.199" cy="811.86" r="1.774"/><use xlink:href="#T" x="-32.856"/></g><g fill="#fdf14c"><path d="M241.537 768.65l13.764-13.833-13.242-1.05 12.263-9.576 8-6.249h-25.546v5.7h12.773l-11.026 11.9 11.026 1.877z"/><path d="M265.159 736.969c-.419-1.212-1.558-2.026-2.84-2.03h-25.54a3 3 0 0 0-3 3v5.71a3 3 0 0 0 3 3h5.9l-1.81 1.95-4.54 4.91a3.02 3.02 0 0 0-.64 1.09 2.91 2.91 0 0 0 0 1.91c.351 1.042 1.246 1.806 2.33 1.99l6.31 1.08-5.23 7.33c-.909 1.268-.691 3.022.5 4.03.541.462 1.229.714 1.94.71a3 3 0 0 0 2.12-.88l13.77-13.84a3.01 3.01 0 0 0 .86-2.33c-.02-.281-.081-.557-.18-.82a2.98 2.98 0 0 0-2.57-1.95l-5.56-.44 3.57-2.79 10.62-8.29c1.011-.787 1.409-2.13.99-3.34zm-13.04 5.13a2.96 2.96 0 0 0-1.27-1.16h2.76z"/></g><path d="M162.349 639.089h-45.4a9.58 9.58 0 0 0-9.57 9.57v45.4a9.58 9.58 0 0 0 9.57 9.57h45.4a9.58 9.58 0 0 0 9.57-9.57v-45.4a9.58 9.58 0 0 0-9.57-9.57zm3.57 54.97c-.001 1.971-1.599 3.569-3.57 3.57h-45.4c-1.971-.001-3.569-1.599-3.57-3.57v-45.4c.001-1.971 1.599-3.569 3.57-3.57h45.4c1.971.001 3.569 1.599 3.57 3.57z" fill="#efefef"/><path d="M282.689 680.019c-2.632-2.777-6.265-4.386-10.09-4.47l-21.255-.52c-.552-13.553-11.393-24.423-24.944-25.013-14.218-.566-26.288 10.319-27.19 24.519l-5.047 84.419a25.24 25.24 0 0 1-50.428-1.506v-76.939h6.074a9.14 9.14 0 0 0 0-18.28h-18.14a9.14 9.14 0 0 0 0 18.28h6.066v76.939c.003 16.886 13.426 30.713 30.305 31.217s31.103-12.497 32.113-29.353l5.048-84.419c.689-10.938 9.987-19.323 20.938-18.883 10.286.443 18.57 8.592 19.183 18.869l-15.093-.37a14.45 14.45 0 0 0-14.77 14.06l-.37 15.34-1.5 44.69-.2 6-1.1 32.97-.38 11.7a11.59 11.59 0 0 0 11.2 11.94l48.98 1.57c.12.01.25.01.38.01a11.59 11.59 0 0 0 11.56-11.3l1.12-46.89.15-6 .68-28.4.68-29.88a14.29 14.29 0 0 0-3.97-10.3zm-151.02-5.51a3.14 3.14 0 0 1 0-6.28h18.14a3.14 3.14 0 0 1 0 6.28h-6.078v-2.142a3 3 0 1 0-6 0v2.142zm92.4 8.32c1.559-1.497 3.639-2.329 5.8-2.32h.21l42.38 1.04a8.39 8.39 0 0 1 5.89 2.61 8.23 8.23 0 0 1 2.2 4.48h0l-58.91-1.449h0c.346-1.668 1.194-3.189 2.43-4.361zm55.91 37.23l-.68 28.54-.15 6-1.12 46.74c-.026 1.488-.654 2.902-1.74 3.92-1.079 1.025-2.523 1.576-4.01 1.53l-48.97-1.57c-3.081-.101-5.498-2.679-5.4-5.76l.37-11.7 1.11-33.16.2-6 1.49-44.5.27-10.91h0l59.21 1.456z" fill="#231f20"/><path d="M824.431 286.759c-5.565-5.787-14.453-6.815-21.193-2.451s-9.438 12.895-6.434 20.341 10.867 11.716 18.748 10.182 13.568-8.442 13.559-16.472a16.73 16.73 0 0 0-4.68-11.6zm-12.09 22.38a10.78 10.78 0 0 1-10.78-10.77 10.78 10.78 0 0 1 10.77-10.78c5.951-.003 10.777 4.819 10.78 10.77-.011 5.946-4.826 10.765-10.772 10.78z" fill="#efefef"/><path d="M784.607 406.073a3 3 0 0 1-3-3v-49.316a3 3 0 1 1 6 0v49.316a3 3 0 0 1-3 3zm55.456 0a3 3 0 0 1-3-3v-49.316a3 3 0 1 1 6 0v49.316a3 3 0 0 1-3 3z" fill="#49c5d9"/><g fill="#231f20"><path d="M795.169 350.759h-10.56c-18.243.01-33.03 14.797-33.04 33.04a31.02 31.02 0 0 0 .04 1.67c.888 17.576 15.402 31.368 33 31.36h10.56c5.634-.002 10.203-4.566 10.21-10.2v-45.67a10.22 10.22 0 0 0-10.21-10.2zm4.21 55.87a4.21 4.21 0 0 1-4.21 4.2h-10.56a26.8 26.8 0 0 1-5.1-.49 25.11 25.11 0 0 1-4.32-1.21c-8.676-3.233-15.099-10.675-17.03-19.73-.395-1.84-.593-3.718-.59-5.6a27.06 27.06 0 0 1 .29-3.95c.575-3.94 2.024-7.702 4.24-11.01a26.31 26.31 0 0 1 2.83-3.56 26.6 26.6 0 0 1 4.13-3.58 26.23 26.23 0 0 1 3.61-2.15 26.51 26.51 0 0 1 8.94-2.62 27 27 0 0 1 3-.17h10.56a4.21 4.21 0 0 1 4.21 4.2zm73.43-27.18c-2.197-16.412-16.191-28.672-32.75-28.69h-10.56c-5.631.006-10.194 4.569-10.2 10.2v45.67c0 5.633 4.567 10.2 10.2 10.2h10.56c17.598.008 32.112-13.784 33-31.36a31.02 31.02 0 0 0 .04-1.67 32.89 32.89 0 0 0-.29-4.35zm-8.26 15.84c-.28.6-.58 1.15-.91 1.72a27.08 27.08 0 0 1-13.29 11.78c-1.404.584-2.856 1.046-4.34 1.38-1.953.439-3.948.66-5.95.66h-10.56a4.2 4.2 0 0 1-4.2-4.2v-45.67a4.2 4.2 0 0 1 4.2-4.2h10.56c4.486.006 8.901 1.122 12.85 3.25a27.55 27.55 0 0 1 3.1 1.97 27.03 27.03 0 0 1 4.23 3.84 27.54 27.54 0 0 1 2.53 3.32 26.75 26.75 0 0 1 4.04 10.71 27.04 27.04 0 0 1 0 7.9 26.64 26.64 0 0 1-2.26 7.5z"/><use xlink:href="#Z"/><use xlink:href="#Z" y="28.262"/><use xlink:href="#Z" y="14.132"/><use xlink:href="#Z" y="-14.132"/><use xlink:href="#a"/><use xlink:href="#a" y="-28.264"/><use xlink:href="#a" y="-14.132"/><use xlink:href="#b"/><use xlink:href="#b" y="-14.135"/><path d="M770.396 357.558a2.3 2.3 0 0 0-.433.044q-.669.376-1.317.787c-.346.407-.537.924-.539 1.458a2.29 2.29 0 0 0 3.909 1.62 2.29 2.29 0 0 0-1.62-3.909z"/><circle cx="770.397" cy="373.979" r="2.289"/><use xlink:href="#Z" x="77.726" y="-7.067"/><use xlink:href="#a" x="84.794"/><use xlink:href="#Z" x="77.726" y="21.197"/><path d="M855.189 362.136c1.211-.002 2.21-.949 2.276-2.158-1.04-.798-2.131-1.529-3.266-2.186-.963.461-1.478 1.527-1.24 2.568s1.163 1.778 2.23 1.776z"/><use xlink:href="#Z" x="84.793"/><use xlink:href="#Z" x="84.793" y="14.132"/><path d="M862.256 369.203a2.28 2.28 0 0 0 2.19-1.658 30.37 30.37 0 0 0-2.139-2.915c-.017 0-.033-.005-.051-.005a2.29 2.29 0 0 0-2.289 2.289 2.29 2.29 0 0 0 2.289 2.289z"/><use xlink:href="#Z" x="77.726" y="7.062"/><use xlink:href="#a" x="84.794" y="14.13"/><use xlink:href="#a" x="84.794" y="-14.132"/><use xlink:href="#a" x="84.794" y="-28.264"/><path d="M812.339 260.049c-42.286.046-76.554 34.314-76.6 76.6v43c.007 6.529 5.301 11.819 11.83 11.82h10.29v-1.72a2.5 2.5 0 0 0 .3-.35 2.31 2.31 0 0 0-.3-2.93v-10.85a2.28 2.28 0 0 0 .69-1.64 2.24 2.24 0 0 0-.69-1.63v-32.47c0-19.462 10.383-37.446 27.237-47.177s37.62-9.731 54.475 0 27.238 27.715 27.237 47.177v51.59h9.43c7.006-.006 12.684-5.684 12.69-12.69v-42.13c-.045-42.283-34.307-76.55-76.59-76.6zm-60.48 79.83v45.59h-4.29a5.83 5.83 0 0 1-5.83-5.82v-43a70.4 70.4 0 0 1 21.15-50.33l7.6 9.96c-11.904 11.379-18.636 27.132-18.63 43.6zm97.78-47.55c-21.882-17.24-52.728-17.24-74.61 0l-7.67-10.05c26.079-21.64 63.871-21.64 89.95 0zm33.29 86.45a6.7 6.7 0 0 1-6.69 6.69h-3.43v-45.59c.004-16.47-6.727-32.226-18.63-43.61l7.6-9.95c13.535 13.247 21.159 31.391 21.15 50.33z"/></g><path d="M776.942 285.37a3 3 0 0 1-1.68-5.488c10.947-7.399 23.859-11.348 37.072-11.338a3 3 0 1 1 0 6c-12.018-.009-23.762 3.584-33.718 10.315a3 3 0 0 1-1.674.511z" fill="#cc5ca6"/><defs ><path id="B" d="M435.773 547.336c1.057.004 1.917-.85 1.921-1.907s-.85-1.917-1.907-1.921-1.917.85-1.921 1.907c-.002.508.198.995.556 1.355s.844.564 1.351.566z"/><path id="C" d="M518.617 543.814c-1.057-.004-1.917.85-1.921 1.907s.85 1.917 1.907 1.921 1.917-.85 1.921-1.907c.002-.508-.198-.995-.556-1.355s-.844-.564-1.351-.566z"/><path id="D" d="M518.661 531.981c-.775-.003-1.475.461-1.774 1.175s-.139 1.539.407 2.089 1.369.717 2.086.423 1.186-.99 1.189-1.765c.002-.508-.198-.996-.555-1.356s-.844-.564-1.352-.566z"/><path id="E" d="M512.767 526.043c-.774-.003-1.474.46-1.773 1.174s-.139 1.538.407 2.088 1.368.717 2.084.423 1.185-.99 1.188-1.764c.003-1.056-.85-1.916-1.906-1.921z"/><path id="F" d="M144.412 167.248a1.77 1.77 0 0 0-1.768 1.768 1.77 1.77 0 0 0 1.768 1.768 1.77 1.77 0 0 0 1.25-3.018 1.77 1.77 0 0 0-1.25-.518z"/><path id="G" d="M144.412 156.332a1.77 1.77 0 0 0-1.768 1.768 1.77 1.77 0 0 0 1.768 1.768 1.77 1.77 0 0 0 1.768-1.768 1.77 1.77 0 0 0-1.768-1.768z"/><path id="H" d="M138.955 194.537a1.77 1.77 0 0 0-1.768 1.768 1.77 1.77 0 0 0 1.768 1.768 1.77 1.77 0 0 0 1.768-1.768c0-.469-.186-.919-.518-1.25s-.781-.518-1.25-.518z"/><path id="I" d="M144.412 199.994a1.77 1.77 0 0 0-1.25 3.019 1.77 1.77 0 0 0 3.018-1.252 1.77 1.77 0 0 0-1.768-1.767z"/><path id="J" d="M155.331 112.671a1.77 1.77 0 0 0-1.252 3.018 1.77 1.77 0 0 0 3.019-1.25 1.77 1.77 0 0 0-1.767-1.768z"/><path id="K" d="M149.87 118.13a1.77 1.77 0 0 0-1.25 3.019 1.77 1.77 0 0 0 3.018-1.252c0-.469-.186-.918-.518-1.25s-.781-.517-1.25-.517z"/><path id="L" d="M155.331 134.502a1.77 1.77 0 0 0-1.252 3.018 1.77 1.77 0 0 0 3.019-1.25c0-.469-.186-.919-.517-1.25s-.781-.518-1.25-.518z"/><path id="M" d="M171.702 118.13a1.77 1.77 0 0 0-1.251 3.018 1.77 1.77 0 0 0 3.018-1.251c0-.976-.791-1.767-1.767-1.767z"/><path id="N" d="M196.949 304.59c-.786 0-1.495.474-1.796 1.2s-.135 1.563.421 2.119 1.392.722 2.119.421 1.2-1.01 1.2-1.796c0-.516-.204-1.01-.569-1.375s-.859-.569-1.375-.569z"/><path id="O" d="M190.946 262.576c-1.074 0-1.944.87-1.944 1.944s.87 1.944 1.943 1.944 1.944-.869 1.945-1.943-.87-1.944-1.944-1.945z"/><path id="P" d="M190.946 250.573c-.786 0-1.495.474-1.796 1.2s-.135 1.563.421 2.119 1.392.722 2.119.421 1.2-1.01 1.2-1.796c0-1.074-.87-1.944-1.944-1.944z"/><path id="Q" d="M202.95 286.583c-1.074 0-1.944.87-1.944 1.944s.87 1.944 1.943 1.944 1.944-.869 1.945-1.943c0-.516-.204-1.01-.569-1.375s-.859-.57-1.375-.57z"/><path id="R" d="M190.946 310.59c-.787 0-1.496.473-1.798 1.2s-.135 1.564.421 2.12 1.393.723 2.12.422 1.201-1.01 1.201-1.797c0-1.074-.87-1.944-1.944-1.945z"/><path id="S" d="M208.953 320.481c.786 0 1.495-.474 1.796-1.2s.135-1.563-.421-2.119-1.392-.722-2.119-.421-1.2 1.01-1.2 1.796c0 1.074.87 1.944 1.944 1.944z"/><path id="T" d="M262.006 821.037c-.718 0-1.364.432-1.639 1.095s-.123 1.426.385 1.933 1.27.659 1.933.385 1.095-.921 1.095-1.639c0-.98-.794-1.774-1.774-1.774z"/><path id="U" d="M262.006 810.086c-.979.001-1.772.795-1.772 1.774s.794 1.773 1.773 1.772 1.773-.794 1.773-1.773-.795-1.773-1.774-1.773z"/><path id="V" d="M267.481 815.561c-.979.001-1.772.795-1.772 1.774s.794 1.773 1.773 1.772 1.773-.794 1.773-1.773c0-.47-.187-.922-.52-1.254s-.784-.519-1.254-.519z"/><path id="W" d="M294.862 799.134c-.979.001-1.772.794-1.772 1.773s.794 1.772 1.773 1.773 1.773-.793 1.773-1.772-.794-1.774-1.774-1.774z"/><path id="X" d="M289.385 808.157c.718 0 1.364-.432 1.639-1.095s.123-1.426-.385-1.933-1.27-.659-1.933-.385-1.095.921-1.095 1.639c0 .98.794 1.774 1.774 1.774z"/><path id="Y" d="M294.862 813.633c.979-.001 1.772-.794 1.772-1.773s-.794-1.772-1.773-1.773-1.773.793-1.773 1.772.794 1.774 1.774 1.774z"/><path id="Z" d="M777.463 378.757a2.29 2.29 0 0 0-2.289 2.289 2.29 2.29 0 0 0 2.289 2.289 2.29 2.29 0 0 0 1.619-3.908 2.29 2.29 0 0 0-1.619-.67z"/><path id="a" d="M763.331 392.889a2.29 2.29 0 0 0-1.62 3.907 2.29 2.29 0 0 0 3.908-1.618 2.29 2.29 0 0 0-2.288-2.289z"/><path id="b" d="M770.396 399.954a2.29 2.29 0 0 0-2.288 2.29 2.29 2.29 0 0 0 2.289 2.288 2.29 2.29 0 0 0 1.618-3.908 2.29 2.29 0 0 0-1.619-.67z"/></defs></svg>