<svg xmlns="http://www.w3.org/2000/svg" width="223.114" height="22.346" viewBox="0 0 223.114 22.346">
    <defs>
        <style>
            .cls-1{fill:#929292}
        </style>
    </defs>
    <g id="Hollard_Header_Hero_dt" transform="translate(-1551.625 -883.812)">
        <g id="Group_6102" transform="translate(1696.8 878.582)">
            <path id="Path_1207" d="M72.291 21.681a.373.373 0 0 0-.462.2c-.283 1.056-.644 1.645-1.491 1.578-1.566-.2-1.491-3.5-1.491-4.97 0-5.5.166-12.177.166-12.44 0-.221-.249-.383-1.178-.614a5.24 5.24 0 0 0-.994-.186.611.611 0 0 0-.611.584v7.254a3.683 3.683 0 0 0-2.758-1.26c-5.634-.07-6.523 12.465-.847 13.246a4.062 4.062 0 0 0 4.225-2.311 3.344 3.344 0 0 0 2.433 2.361 3.064 3.064 0 0 0 3.064-1.8c.3-.619.455-1.471-.042-1.633m-8.258 1.784c-3.752 0-2.9-9.578.089-9.54 1.267.015 2.038 1.625 2.11 3.728.117 3.41-.4 5.81-2.2 5.81m-6.9-11.63c-2.274.365-3.25 3.511-3.25 3.934v-2.743c0-.221-.249-.383-1.178-.614a5.221 5.221 0 0 0-.994-.186.611.611 0 0 0-.611.584v6.521a2.891 2.891 0 0 1-.03.323c-.169 1.874-.34 3.748-1.568 3.748-1.625 0-1.138-3.407-1.116-4.868.067-4.528.167-5.534.167-5.544 0-.221-.249-.383-1.178-.614a5.221 5.221 0 0 0-.988-.183.611.611 0 0 0-.611.584v.437a3.727 3.727 0 0 0-2.9-1.4C39 11.763 37.368 17.75 38.611 21.7c-.186 1.049-.564 1.824-1.558 1.74-1.566-.2-1.491-3.5-1.491-4.97 0-5.5.167-12.425.167-12.44 0-.221-.249-.383-1.178-.614a5.24 5.24 0 0 0-.994-.186.611.611 0 0 0-.611.584v12.033a17.7 17.7 0 0 0 .137 3.057c-.249 1.441-.783 2.632-1.839 2.555-1.566-.2-1.491-3.5-1.491-4.97 0-5.5.167-12.425.167-12.44 0-.221-.249-.383-1.178-.614a5.24 5.24 0 0 0-.994-.186.611.611 0 0 0-.629.586v12.188c-.184 5.852 1.844 6.936 3.032 7.087a3.166 3.166 0 0 0 3.323-2.463c.654 1.859 1.74 2.4 2.485 2.47a3.245 3.245 0 0 0 3.191-2.1 3.87 3.87 0 0 0 2.868 2.05 4.039 4.039 0 0 0 4.145-2.117c.457 1.553 1.243 1.988 2.06 2.16a2.833 2.833 0 0 0 2.873-1.359v.673c0 .221.084.383 1.019.614a6.111 6.111 0 0 0 1.168.186.6.6 0 0 0 .6-.584v-3.35c0-1.424.9-6.653 3.134-6.814a2.069 2.069 0 0 1 .676.092c1.762.606 1.727-3.1-.562-2.734m-13.7 11.63c-3.75-.065-2.9-9.578.089-9.54 1.436.017 2.122 2.085 2.145 4.587.02 2.46-.457 4.983-2.237 4.95M21.275 11.818c-5.634-.07-6.526 12.333-.845 13.246 7.08 1.136 7.627-13.171.845-13.246m.559 11.643c-3.75-.072-2.734-9.222.089-9.54 3.151-.355 3.591 9.61-.089 9.54M14.172 5.436a5.24 5.24 0 0 0-.994-.186.611.611 0 0 0-.611.584v7.908a28.57 28.57 0 0 0-5.02.258V6.053c0-.221-.249-.383-1.178-.614a5.26 5.26 0 0 0-.994-.186.611.611 0 0 0-.624.582v8.713c-.189.045-1.079.236-1.576.4s-.579.527-.413 1.031c.268.815 1.168 1.787 1.7 1.563a2.6 2.6 0 0 1 .288-.094v6.982c0 .221.077.383 1.011.614a6.092 6.092 0 0 0 1.168.186.6.6 0 0 0 .6-.584v-8.027a30.835 30.835 0 0 1 5.02-.708v8.516c0 .221.084.383 1.019.614a6.131 6.131 0 0 0 1.168.186.6.6 0 0 0 .6-.584V6.048c0-.221-.249-.383-1.178-.614" class="cls-1" transform="translate(0 0)"/>
            <path id="Path_1208" d="M291.828 67.565a2.171 2.171 0 0 0-2.336 1.9 2.09 2.09 0 0 0 1.59 2.485 2.068 2.068 0 0 0 2.329-1.8 2.188 2.188 0 0 0-1.585-2.58" class="cls-1" transform="translate(-215.506 -46.825)"/>
        </g>
        <path id="Path_14545" d="M-137.784-2.041h-3.276L-141.8 0h-1.063l2.986-7.82h.9L-135.98 0h-1.058zm-2.965-.849h2.659l-1.332-3.658zm6.966 2.89h-.994v-8.25h.994zm2.889 0h-.994v-8.25h.994zm9.662-2.841a3.48 3.48 0 0 1-.606 2.141 1.945 1.945 0 0 1-1.644.811 2.131 2.131 0 0 1-1.665-.671v2.8h-.994v-8.052h.908l.048.645a2.047 2.047 0 0 1 1.687-.752 1.982 1.982 0 0 1 1.657.79 3.518 3.518 0 0 1 .61 2.2zm-.994-.113a2.568 2.568 0 0 0-.419-1.552 1.35 1.35 0 0 0-1.149-.569 1.461 1.461 0 0 0-1.354.8V-1.5a1.464 1.464 0 0 0 1.364.795 1.343 1.343 0 0 0 1.136-.567 2.8 2.8 0 0 0 .423-1.682zm5.285-1.966a2.978 2.978 0 0 0-.489-.038 1.309 1.309 0 0 0-1.327.833V0h-.994v-5.812h.967l.016.671a1.547 1.547 0 0 1 1.386-.779 1.015 1.015 0 0 1 .44.075zm.762 1.96a3.433 3.433 0 0 1 .336-1.536 2.5 2.5 0 0 1 .935-1.053 2.544 2.544 0 0 1 1.367-.371 2.451 2.451 0 0 1 1.92.822 3.162 3.162 0 0 1 .733 2.186v.07a3.462 3.462 0 0 1-.325 1.523 2.467 2.467 0 0 1-.929 1.05 2.573 2.573 0 0 1-1.388.376 2.445 2.445 0 0 1-1.915-.822 3.146 3.146 0 0 1-.733-2.175zm1 .118a2.486 2.486 0 0 0 .448 1.552 1.435 1.435 0 0 0 1.2.585 1.427 1.427 0 0 0 1.2-.594 2.719 2.719 0 0 0 .446-1.662 2.482 2.482 0 0 0-.454-1.55 1.443 1.443 0 0 0-1.201-.589 1.427 1.427 0 0 0-1.187.585 2.7 2.7 0 0 0-.452 1.674zm5.516-.113a3.4 3.4 0 0 1 .634-2.151 2 2 0 0 1 1.66-.814 2.016 2.016 0 0 1 1.617.7v-3.03h.994V0h-.913l-.048-.623a2.024 2.024 0 0 1-1.66.73 1.985 1.985 0 0 1-1.646-.827 3.443 3.443 0 0 1-.636-2.159zm.994.113a2.578 2.578 0 0 0 .408 1.547 1.32 1.32 0 0 0 1.128.559 1.45 1.45 0 0 0 1.38-.849v-2.669a1.461 1.461 0 0 0-1.37-.822 1.326 1.326 0 0 0-1.139.564 2.838 2.838 0 0 0-.407 1.671zm9.26 2.267a2.111 2.111 0 0 1-1.7.682 1.807 1.807 0 0 1-1.415-.54 2.336 2.336 0 0 1-.491-1.6v-3.779h.994v3.754q0 1.321 1.074 1.321a1.487 1.487 0 0 0 1.515-.849v-4.226h.994V0h-.945zm5.027-.125a1.431 1.431 0 0 0 .929-.322 1.134 1.134 0 0 0 .44-.806h.94a1.8 1.8 0 0 1-.344.951 2.264 2.264 0 0 1-.846.72 2.441 2.441 0 0 1-1.12.269 2.394 2.394 0 0 1-1.887-.797 3.155 3.155 0 0 1-.7-2.167v-.167a3.5 3.5 0 0 1 .312-1.509 2.373 2.373 0 0 1 .894-1.026 2.54 2.54 0 0 1 1.378-.365 2.331 2.331 0 0 1 1.625.585 2.092 2.092 0 0 1 .69 1.52h-.94a1.369 1.369 0 0 0-.427-.927 1.328 1.328 0 0 0-.948-.363 1.391 1.391 0 0 0-1.174.545 2.56 2.56 0 0 0-.416 1.576v.188a2.509 2.509 0 0 0 .414 1.547 1.4 1.4 0 0 0 1.18.548zm4.995-6.515v1.407h1.087v.768h-1.085v3.6a.8.8 0 0 0 .145.524.611.611 0 0 0 .494.175 2.406 2.406 0 0 0 .473-.064V0a2.881 2.881 0 0 1-.763.107 1.237 1.237 0 0 1-1-.4 1.731 1.731 0 0 1-.338-1.144v-3.6h-1.058v-.768h1.058v-1.414zm5.849 5.677a.732.732 0 0 0-.3-.626 2.921 2.921 0 0 0-1.062-.387 5 5 0 0 1-1.2-.387 1.7 1.7 0 0 1-.655-.537 1.285 1.285 0 0 1-.212-.741 1.508 1.508 0 0 1 .6-1.208 2.36 2.36 0 0 1 1.544-.494 2.428 2.428 0 0 1 1.6.51A1.621 1.621 0 0 1-82.6-4.1h-1a.9.9 0 0 0-.346-.7 1.3 1.3 0 0 0-.873-.3 1.358 1.358 0 0 0-.849.236.744.744 0 0 0-.306.618.6.6 0 0 0 .285.542 3.5 3.5 0 0 0 1.029.349 5.359 5.359 0 0 1 1.206.4 1.759 1.759 0 0 1 .685.556 1.367 1.367 0 0 1 .223.792 1.487 1.487 0 0 1-.623 1.249 2.613 2.613 0 0 1-1.617.47A2.926 2.926 0 0 1-86.02-.14a2.009 2.009 0 0 1-.841-.69 1.664 1.664 0 0 1-.3-.959h.994a1.029 1.029 0 0 0 .4.792 1.552 1.552 0 0 0 .986.293 1.6 1.6 0 0 0 .905-.228.7.7 0 0 0 .337-.61zm9.039.967a2.111 2.111 0 0 1-1.7.682 1.807 1.807 0 0 1-1.415-.54 2.336 2.336 0 0 1-.491-1.6v-3.783h.994v3.754q0 1.321 1.074 1.321a1.487 1.487 0 0 0 1.515-.849v-4.226h.994V0h-.945zm3.636-5.237l.032.73a2.118 2.118 0 0 1 1.74-.838q1.842 0 1.858 2.079V0h-.994v-3.846a1.338 1.338 0 0 0-.287-.929 1.152 1.152 0 0 0-.878-.3 1.434 1.434 0 0 0-.849.258 1.751 1.751 0 0 0-.569.677V0h-.99v-5.812zm5.108 2.857a3.4 3.4 0 0 1 .634-2.151 2 2 0 0 1 1.66-.814 2.016 2.016 0 0 1 1.617.7V-8.25h.994V0h-.913l-.048-.623a2.024 2.024 0 0 1-1.66.73 1.985 1.985 0 0 1-1.648-.827 3.443 3.443 0 0 1-.636-2.159zm.994.113a2.578 2.578 0 0 0 .408 1.547 1.32 1.32 0 0 0 1.128.559 1.45 1.45 0 0 0 1.38-.849v-2.673a1.461 1.461 0 0 0-1.37-.822 1.326 1.326 0 0 0-1.139.564 2.838 2.838 0 0 0-.408 1.671zm8.082 2.945A2.539 2.539 0 0 1-58.6-.669a2.881 2.881 0 0 1-.741-2.076v-.183a3.487 3.487 0 0 1 .33-1.544 2.577 2.577 0 0 1 .924-1.063 2.323 2.323 0 0 1 1.287-.384 2.177 2.177 0 0 1 1.762.747 3.232 3.232 0 0 1 .628 2.138v.414h-3.937a2.066 2.066 0 0 0 .5 1.388 1.579 1.579 0 0 0 1.222.532 1.731 1.731 0 0 0 .892-.215 2.24 2.24 0 0 0 .639-.569l.607.473A2.44 2.44 0 0 1-56.679.107zM-56.8-5.1a1.325 1.325 0 0 0-1.01.438 2.128 2.128 0 0 0-.5 1.227h2.911v-.075a1.893 1.893 0 0 0-.408-1.174A1.248 1.248 0 0 0-56.8-5.1zm6.569.183a2.978 2.978 0 0 0-.489-.038 1.309 1.309 0 0 0-1.327.833V0h-.994v-5.812h.967l.016.671a1.547 1.547 0 0 1 1.386-.779 1.015 1.015 0 0 1 .44.075zm6.37 3.55l1.117-4.442h.994L-43.445 0h-.806l-1.413-4.4-1.374 4.4h-.806l-1.686-5.812h.988l1.142 4.351 1.354-4.351h.8zm6.15-3.55a2.978 2.978 0 0 0-.489-.038 1.309 1.309 0 0 0-1.327.833V0h-.994v-5.812h.967l.016.671a1.547 1.547 0 0 1 1.386-.779 1.015 1.015 0 0 1 .44.075zM-35.5 0h-1v-5.812h.994zm-1.074-7.353a.593.593 0 0 1 .148-.408.555.555 0 0 1 .438-.167.563.563 0 0 1 .44.167.587.587 0 0 1 .15.408.568.568 0 0 1-.15.4.573.573 0 0 1-.44.161.565.565 0 0 1-.438-.161.573.573 0 0 1-.15-.4zm4.232.134v1.407h1.085v.768h-1.085v3.6a.8.8 0 0 0 .145.524.611.611 0 0 0 .494.175 2.406 2.406 0 0 0 .473-.064V0a2.881 2.881 0 0 1-.763.107 1.237 1.237 0 0 1-1-.4 1.731 1.731 0 0 1-.338-1.144v-3.6H-34.4v-.768h1.058v-1.414zm3.813 0v1.407h1.085v.768h-1.086v3.6a.8.8 0 0 0 .145.524.611.611 0 0 0 .494.175 2.406 2.406 0 0 0 .473-.064V0a2.881 2.881 0 0 1-.763.107 1.237 1.237 0 0 1-1-.4 1.731 1.731 0 0 1-.338-1.144v-3.6h-1.058v-.768h1.058v-1.414zm4.876 7.326a2.539 2.539 0 0 1-1.923-.776 2.881 2.881 0 0 1-.741-2.076v-.183a3.487 3.487 0 0 1 .33-1.544 2.577 2.577 0 0 1 .924-1.063 2.323 2.323 0 0 1 1.286-.384 2.177 2.177 0 0 1 1.762.747 3.232 3.232 0 0 1 .628 2.138v.414h-3.937a2.066 2.066 0 0 0 .5 1.388A1.579 1.579 0 0 0-23.6-.7a1.731 1.731 0 0 0 .892-.215 2.24 2.24 0 0 0 .639-.569l.607.473A2.44 2.44 0 0 1-23.653.107zm-.124-5.21a1.325 1.325 0 0 0-1.01.438 2.128 2.128 0 0 0-.5 1.227h2.911v-.075a1.893 1.893 0 0 0-.408-1.174 1.248 1.248 0 0 0-.993-.413zm4.7-.709l.032.73a2.118 2.118 0 0 1 1.74-.838q1.842 0 1.858 2.079V0h-.994v-3.846a1.338 1.338 0 0 0-.287-.929 1.152 1.152 0 0 0-.878-.3 1.434 1.434 0 0 0-.849.258 1.751 1.751 0 0 0-.569.677V0h-.994v-5.812zm13.212 2.97A3.455 3.455 0 0 1-6.477-.7a1.956 1.956 0 0 1-1.644.807 2.026 2.026 0 0 1-1.7-.779L-9.872 0h-.913v-8.25h.994v3.078a2.014 2.014 0 0 1 1.66-.747 1.968 1.968 0 0 1 1.662.8 3.559 3.559 0 0 1 .6 2.191zm-.994-.113a2.685 2.685 0 0 0-.392-1.568 1.3 1.3 0 0 0-1.128-.553 1.459 1.459 0 0 0-1.413.913v2.514a1.5 1.5 0 0 0 1.423.913 1.291 1.291 0 0 0 1.112-.553 2.855 2.855 0 0 0 .398-1.665zm4.307 1.5L-1.2-5.812h1.066L-2.471.9q-.542 1.45-1.724 1.45l-.188-.016-.371-.07v-.808l.269.021a1.322 1.322 0 0 0 .787-.2 1.477 1.477 0 0 0 .465-.751l.22-.591-2.073-5.747H-4z" class="cls-1" transform="translate(1694.485 903.811)"/>
    </g>
</svg>
